M48
; DRILL file {KiCad (5.1.10-1-10_14)} date Thursday, October 07, 2021 at 10:12:18 PM
; FORMAT={-:-/ absolute / inch / decimal}
; #@! TF.CreationDate,2021-10-07T22:12:18+10:00
; #@! TF.GenerationSoftware,Kicad,Pcbnew,(5.1.10-1-10_14)
; #@! TF.FileFunction,NonPlated,1,2,NPTH
FMAT,2
INCH
T1C0.0120
%
G90
G05
T1
G00X3.4022Y-6.666
M15
G01X3.4022Y-6.764
M16
G05
G00X3.4022Y-6.666
M15
G01X3.4362Y-6.666
M16
G05
G00X3.4022Y-6.764
M15
G01X3.4362Y-6.764
M16
G05
G00X3.4362Y-6.532
M15
G01X3.4362Y-7.004
M16
G05
G00X3.5072Y-7.007
M15
G01X3.5072Y-7.053
M16
G05
G00X3.4362Y-6.532
M15
G01X3.6862Y-6.532
M16
G05
G00X3.4362Y-7.004
M15
G01X3.6862Y-7.004
M16
G05
G00X3.5072Y-7.056
M15
G01X3.6153Y-7.056
M16
G05
G00X3.6153Y-7.007
M15
G01X3.6153Y-7.053
M16
G05
G00X3.6862Y-6.532
M15
G01X3.6862Y-7.004
M16
G05
G00X4.3762Y-6.532
M15
G01X4.3762Y-7.004
M16
G05
G00X4.4472Y-7.007
M15
G01X4.4472Y-7.053
M16
G05
G00X4.3762Y-6.532
M15
G01X4.6262Y-6.532
M16
G05
G00X4.3762Y-7.004
M15
G01X4.6262Y-7.004
M16
G05
G00X4.4472Y-7.056
M15
G01X4.5553Y-7.056
M16
G05
G00X4.5553Y-7.007
M15
G01X4.5553Y-7.053
M16
G05
G00X4.6262Y-6.532
M15
G01X4.6262Y-7.004
M16
G05
G00X4.6262Y-6.666
M15
G01X4.6602Y-6.666
M16
G05
G00X4.6262Y-6.764
M15
G01X4.6602Y-6.764
M16
G05
G00X4.6602Y-6.666
M15
G01X4.6602Y-6.764
M16
G05
G00X5.6522Y-6.666
M15
G01X5.6522Y-6.764
M16
G05
G00X5.6522Y-6.666
M15
G01X5.6863Y-6.666
M16
G05
G00X5.6522Y-6.764
M15
G01X5.6863Y-6.764
M16
G05
G00X5.6863Y-6.532
M15
G01X5.6863Y-7.004
M16
G05
G00X5.7572Y-7.007
M15
G01X5.7572Y-7.053
M16
G05
G00X5.6863Y-6.532
M15
G01X5.9363Y-6.532
M16
G05
G00X5.6863Y-7.004
M15
G01X5.9363Y-7.004
M16
G05
G00X5.7572Y-7.056
M15
G01X5.8652Y-7.056
M16
G05
G00X5.8652Y-7.007
M15
G01X5.8652Y-7.053
M16
G05
G00X5.9363Y-6.532
M15
G01X5.9363Y-7.004
M16
G05
G00X6.6262Y-6.532
M15
G01X6.6262Y-7.004
M16
G05
G00X6.6972Y-7.007
M15
G01X6.6972Y-7.053
M16
G05
G00X6.6262Y-6.532
M15
G01X6.8762Y-6.532
M16
G05
G00X6.6262Y-7.004
M15
G01X6.8762Y-7.004
M16
G05
G00X6.6972Y-7.056
M15
G01X6.8053Y-7.056
M16
G05
G00X6.8053Y-7.007
M15
G01X6.8053Y-7.053
M16
G05
G00X6.8762Y-6.532
M15
G01X6.8762Y-7.004
M16
G05
G00X6.8762Y-6.666
M15
G01X6.9102Y-6.666
M16
G05
G00X6.8762Y-6.764
M15
G01X6.9102Y-6.764
M16
G05
G00X6.9102Y-6.666
M15
G01X6.9102Y-6.764
M16
G05
T0
M30
