G04 #@! TF.GenerationSoftware,KiCad,Pcbnew,(5.1.10-1-10_14)*
G04 #@! TF.CreationDate,2021-10-07T22:12:16+10:00*
G04 #@! TF.ProjectId,WTL-62-TOP,57544c2d-3632-42d5-944f-502e6b696361,rev?*
G04 #@! TF.SameCoordinates,Original*
G04 #@! TF.FileFunction,Profile,NP*
%FSLAX46Y46*%
G04 Gerber Fmt 4.6, Leading zero omitted, Abs format (unit mm)*
G04 Created by KiCad (PCBNEW (5.1.10-1-10_14)) date 2021-10-07 22:12:16*
%MOMM*%
%LPD*%
G01*
G04 APERTURE LIST*
G04 #@! TA.AperFunction,Profile*
%ADD10C,0.050000*%
G04 #@! TD*
G04 #@! TA.AperFunction,Profile*
%ADD11C,0.120000*%
G04 #@! TD*
G04 APERTURE END LIST*
D10*
X28575000Y-85725000D02*
X271462500Y-85725000D01*
X26193750Y-180181250D02*
X26193750Y-88106250D01*
X271462500Y-182562500D02*
X28575000Y-182562500D01*
X273843750Y-88106250D02*
X273843750Y-180181250D01*
X271462500Y-85725000D02*
G75*
G02*
X273843750Y-88106250I0J-2381250D01*
G01*
X273843750Y-180181250D02*
G75*
G02*
X271462500Y-182562500I-2381250J0D01*
G01*
X28575000Y-182562500D02*
G75*
G02*
X26193750Y-180181250I0J2381250D01*
G01*
X26193750Y-88106250D02*
G75*
G02*
X28575000Y-85725000I2381250J0D01*
G01*
D11*
X166543750Y-164450000D02*
X152543750Y-164450000D01*
X166543750Y-178450000D02*
X166543750Y-164450000D01*
X152543750Y-178450000D02*
X166543750Y-178450000D01*
X152543750Y-164450000D02*
X152543750Y-178450000D01*
X109393750Y-164450000D02*
X95393750Y-164450000D01*
X109393750Y-178450000D02*
X109393750Y-164450000D01*
X95393750Y-178450000D02*
X109393750Y-178450000D01*
X95393750Y-164450000D02*
X95393750Y-178450000D01*
X214168750Y-164450000D02*
X200168750Y-164450000D01*
X214168750Y-178450000D02*
X214168750Y-164450000D01*
X200168750Y-178450000D02*
X214168750Y-178450000D01*
X200168750Y-164450000D02*
X200168750Y-178450000D01*
X271318750Y-164450000D02*
X257318750Y-164450000D01*
X271318750Y-178450000D02*
X271318750Y-164450000D01*
X257318750Y-178450000D02*
X271318750Y-178450000D01*
X257318750Y-164450000D02*
X257318750Y-178450000D01*
X233218750Y-164450000D02*
X219218750Y-164450000D01*
X233218750Y-178450000D02*
X233218750Y-164450000D01*
X219218750Y-178450000D02*
X233218750Y-178450000D01*
X219218750Y-164450000D02*
X219218750Y-178450000D01*
X252268750Y-164450000D02*
X238268750Y-164450000D01*
X252268750Y-178450000D02*
X252268750Y-164450000D01*
X238268750Y-178450000D02*
X252268750Y-178450000D01*
X238268750Y-164450000D02*
X238268750Y-178450000D01*
X80818750Y-164450000D02*
X66818750Y-164450000D01*
X80818750Y-178450000D02*
X80818750Y-164450000D01*
X66818750Y-178450000D02*
X80818750Y-178450000D01*
X66818750Y-164450000D02*
X66818750Y-178450000D01*
X137968750Y-164450000D02*
X123968750Y-164450000D01*
X137968750Y-178450000D02*
X137968750Y-164450000D01*
X123968750Y-178450000D02*
X137968750Y-178450000D01*
X123968750Y-164450000D02*
X123968750Y-178450000D01*
X195118750Y-164450000D02*
X181118750Y-164450000D01*
X195118750Y-178450000D02*
X195118750Y-164450000D01*
X181118750Y-178450000D02*
X195118750Y-178450000D01*
X181118750Y-164450000D02*
X181118750Y-178450000D01*
X61768750Y-164450000D02*
X47768750Y-164450000D01*
X61768750Y-178450000D02*
X61768750Y-164450000D01*
X47768750Y-178450000D02*
X61768750Y-178450000D01*
X47768750Y-164450000D02*
X47768750Y-178450000D01*
X99868750Y-145400000D02*
X85868750Y-145400000D01*
X99868750Y-159400000D02*
X99868750Y-145400000D01*
X85868750Y-159400000D02*
X99868750Y-159400000D01*
X85868750Y-145400000D02*
X85868750Y-159400000D01*
X42718750Y-145400000D02*
X28718750Y-145400000D01*
X42718750Y-159400000D02*
X42718750Y-145400000D01*
X28718750Y-159400000D02*
X42718750Y-159400000D01*
X28718750Y-145400000D02*
X28718750Y-159400000D01*
X214168750Y-145400000D02*
X200168750Y-145400000D01*
X214168750Y-159400000D02*
X214168750Y-145400000D01*
X200168750Y-159400000D02*
X214168750Y-159400000D01*
X200168750Y-145400000D02*
X200168750Y-159400000D01*
X271318750Y-145400000D02*
X257318750Y-145400000D01*
X271318750Y-159400000D02*
X271318750Y-145400000D01*
X257318750Y-159400000D02*
X271318750Y-159400000D01*
X257318750Y-145400000D02*
X257318750Y-159400000D01*
X233218750Y-145400000D02*
X219218750Y-145400000D01*
X233218750Y-159400000D02*
X233218750Y-145400000D01*
X219218750Y-159400000D02*
X233218750Y-159400000D01*
X219218750Y-145400000D02*
X219218750Y-159400000D01*
X252268750Y-145400000D02*
X238268750Y-145400000D01*
X252268750Y-159400000D02*
X252268750Y-145400000D01*
X238268750Y-159400000D02*
X252268750Y-159400000D01*
X238268750Y-145400000D02*
X238268750Y-159400000D01*
X118918750Y-145400000D02*
X104918750Y-145400000D01*
X118918750Y-159400000D02*
X118918750Y-145400000D01*
X104918750Y-159400000D02*
X118918750Y-159400000D01*
X104918750Y-145400000D02*
X104918750Y-159400000D01*
X80818750Y-145400000D02*
X66818750Y-145400000D01*
X80818750Y-159400000D02*
X80818750Y-145400000D01*
X66818750Y-159400000D02*
X80818750Y-159400000D01*
X66818750Y-145400000D02*
X66818750Y-159400000D01*
X137968750Y-145400000D02*
X123968750Y-145400000D01*
X137968750Y-159400000D02*
X137968750Y-145400000D01*
X123968750Y-159400000D02*
X137968750Y-159400000D01*
X123968750Y-145400000D02*
X123968750Y-159400000D01*
X157018750Y-145400000D02*
X143018750Y-145400000D01*
X157018750Y-159400000D02*
X157018750Y-145400000D01*
X143018750Y-159400000D02*
X157018750Y-159400000D01*
X143018750Y-145400000D02*
X143018750Y-159400000D01*
X176068750Y-145400000D02*
X162068750Y-145400000D01*
X176068750Y-159400000D02*
X176068750Y-145400000D01*
X162068750Y-159400000D02*
X176068750Y-159400000D01*
X162068750Y-145400000D02*
X162068750Y-159400000D01*
X195118750Y-145400000D02*
X181118750Y-145400000D01*
X195118750Y-159400000D02*
X195118750Y-145400000D01*
X181118750Y-159400000D02*
X195118750Y-159400000D01*
X181118750Y-145400000D02*
X181118750Y-159400000D01*
X61768750Y-145400000D02*
X47768750Y-145400000D01*
X61768750Y-159400000D02*
X61768750Y-145400000D01*
X47768750Y-159400000D02*
X61768750Y-159400000D01*
X47768750Y-145400000D02*
X47768750Y-159400000D01*
X99868750Y-126350000D02*
X85868750Y-126350000D01*
X99868750Y-140350000D02*
X99868750Y-126350000D01*
X85868750Y-140350000D02*
X99868750Y-140350000D01*
X85868750Y-126350000D02*
X85868750Y-140350000D01*
X42718750Y-126350000D02*
X28718750Y-126350000D01*
X42718750Y-140350000D02*
X42718750Y-126350000D01*
X28718750Y-140350000D02*
X42718750Y-140350000D01*
X28718750Y-126350000D02*
X28718750Y-140350000D01*
X214168750Y-126350000D02*
X200168750Y-126350000D01*
X214168750Y-140350000D02*
X214168750Y-126350000D01*
X200168750Y-140350000D02*
X214168750Y-140350000D01*
X200168750Y-126350000D02*
X200168750Y-140350000D01*
X271318750Y-126350000D02*
X257318750Y-126350000D01*
X271318750Y-140350000D02*
X271318750Y-126350000D01*
X257318750Y-140350000D02*
X271318750Y-140350000D01*
X257318750Y-126350000D02*
X257318750Y-140350000D01*
X233218750Y-126350000D02*
X219218750Y-126350000D01*
X233218750Y-140350000D02*
X233218750Y-126350000D01*
X219218750Y-140350000D02*
X233218750Y-140350000D01*
X219218750Y-126350000D02*
X219218750Y-140350000D01*
X252268750Y-126350000D02*
X238268750Y-126350000D01*
X252268750Y-140350000D02*
X252268750Y-126350000D01*
X238268750Y-140350000D02*
X252268750Y-140350000D01*
X238268750Y-126350000D02*
X238268750Y-140350000D01*
X118918750Y-126350000D02*
X104918750Y-126350000D01*
X118918750Y-140350000D02*
X118918750Y-126350000D01*
X104918750Y-140350000D02*
X118918750Y-140350000D01*
X104918750Y-126350000D02*
X104918750Y-140350000D01*
X80818750Y-126350000D02*
X66818750Y-126350000D01*
X80818750Y-140350000D02*
X80818750Y-126350000D01*
X66818750Y-140350000D02*
X80818750Y-140350000D01*
X66818750Y-126350000D02*
X66818750Y-140350000D01*
X137968750Y-126350000D02*
X123968750Y-126350000D01*
X137968750Y-140350000D02*
X137968750Y-126350000D01*
X123968750Y-140350000D02*
X137968750Y-140350000D01*
X123968750Y-126350000D02*
X123968750Y-140350000D01*
X157018750Y-126350000D02*
X143018750Y-126350000D01*
X157018750Y-140350000D02*
X157018750Y-126350000D01*
X143018750Y-140350000D02*
X157018750Y-140350000D01*
X143018750Y-126350000D02*
X143018750Y-140350000D01*
X176068750Y-126350000D02*
X162068750Y-126350000D01*
X176068750Y-140350000D02*
X176068750Y-126350000D01*
X162068750Y-140350000D02*
X176068750Y-140350000D01*
X162068750Y-126350000D02*
X162068750Y-140350000D01*
X195118750Y-126350000D02*
X181118750Y-126350000D01*
X195118750Y-140350000D02*
X195118750Y-126350000D01*
X181118750Y-140350000D02*
X195118750Y-140350000D01*
X181118750Y-126350000D02*
X181118750Y-140350000D01*
X61768750Y-126350000D02*
X47768750Y-126350000D01*
X61768750Y-140350000D02*
X61768750Y-126350000D01*
X47768750Y-140350000D02*
X61768750Y-140350000D01*
X47768750Y-126350000D02*
X47768750Y-140350000D01*
X99868750Y-107300000D02*
X85868750Y-107300000D01*
X99868750Y-121300000D02*
X99868750Y-107300000D01*
X85868750Y-121300000D02*
X99868750Y-121300000D01*
X85868750Y-107300000D02*
X85868750Y-121300000D01*
X42718750Y-107300000D02*
X28718750Y-107300000D01*
X42718750Y-121300000D02*
X42718750Y-107300000D01*
X28718750Y-121300000D02*
X42718750Y-121300000D01*
X28718750Y-107300000D02*
X28718750Y-121300000D01*
X214168750Y-107300000D02*
X200168750Y-107300000D01*
X214168750Y-121300000D02*
X214168750Y-107300000D01*
X200168750Y-121300000D02*
X214168750Y-121300000D01*
X200168750Y-107300000D02*
X200168750Y-121300000D01*
X271318750Y-107300000D02*
X257318750Y-107300000D01*
X271318750Y-121300000D02*
X271318750Y-107300000D01*
X257318750Y-121300000D02*
X271318750Y-121300000D01*
X257318750Y-107300000D02*
X257318750Y-121300000D01*
X233218750Y-107300000D02*
X219218750Y-107300000D01*
X233218750Y-121300000D02*
X233218750Y-107300000D01*
X219218750Y-121300000D02*
X233218750Y-121300000D01*
X219218750Y-107300000D02*
X219218750Y-121300000D01*
X252268750Y-107300000D02*
X238268750Y-107300000D01*
X252268750Y-121300000D02*
X252268750Y-107300000D01*
X238268750Y-121300000D02*
X252268750Y-121300000D01*
X238268750Y-107300000D02*
X238268750Y-121300000D01*
X118918750Y-107300000D02*
X104918750Y-107300000D01*
X118918750Y-121300000D02*
X118918750Y-107300000D01*
X104918750Y-121300000D02*
X118918750Y-121300000D01*
X104918750Y-107300000D02*
X104918750Y-121300000D01*
X80818750Y-107300000D02*
X66818750Y-107300000D01*
X80818750Y-121300000D02*
X80818750Y-107300000D01*
X66818750Y-121300000D02*
X80818750Y-121300000D01*
X66818750Y-107300000D02*
X66818750Y-121300000D01*
X137968750Y-107300000D02*
X123968750Y-107300000D01*
X137968750Y-121300000D02*
X137968750Y-107300000D01*
X123968750Y-121300000D02*
X137968750Y-121300000D01*
X123968750Y-107300000D02*
X123968750Y-121300000D01*
X157018750Y-107300000D02*
X143018750Y-107300000D01*
X157018750Y-121300000D02*
X157018750Y-107300000D01*
X143018750Y-121300000D02*
X157018750Y-121300000D01*
X143018750Y-107300000D02*
X143018750Y-121300000D01*
X176068750Y-107300000D02*
X162068750Y-107300000D01*
X176068750Y-121300000D02*
X176068750Y-107300000D01*
X162068750Y-121300000D02*
X176068750Y-121300000D01*
X162068750Y-107300000D02*
X162068750Y-121300000D01*
X195118750Y-107300000D02*
X181118750Y-107300000D01*
X195118750Y-121300000D02*
X195118750Y-107300000D01*
X181118750Y-121300000D02*
X195118750Y-121300000D01*
X181118750Y-107300000D02*
X181118750Y-121300000D01*
X61768750Y-107300000D02*
X47768750Y-107300000D01*
X61768750Y-121300000D02*
X61768750Y-107300000D01*
X47768750Y-121300000D02*
X61768750Y-121300000D01*
X47768750Y-107300000D02*
X47768750Y-121300000D01*
X252268750Y-88250000D02*
X238268750Y-88250000D01*
X252268750Y-102250000D02*
X252268750Y-88250000D01*
X238268750Y-102250000D02*
X252268750Y-102250000D01*
X238268750Y-88250000D02*
X238268750Y-102250000D01*
X271318750Y-88250000D02*
X257318750Y-88250000D01*
X271318750Y-102250000D02*
X271318750Y-88250000D01*
X257318750Y-102250000D02*
X271318750Y-102250000D01*
X257318750Y-88250000D02*
X257318750Y-102250000D01*
X233218750Y-88250000D02*
X219218750Y-88250000D01*
X233218750Y-102250000D02*
X233218750Y-88250000D01*
X219218750Y-102250000D02*
X233218750Y-102250000D01*
X219218750Y-88250000D02*
X219218750Y-102250000D01*
X214168750Y-88250000D02*
X200168750Y-88250000D01*
X214168750Y-102250000D02*
X214168750Y-88250000D01*
X200168750Y-102250000D02*
X214168750Y-102250000D01*
X200168750Y-88250000D02*
X200168750Y-102250000D01*
X176068750Y-88250000D02*
X162068750Y-88250000D01*
X176068750Y-102250000D02*
X176068750Y-88250000D01*
X162068750Y-102250000D02*
X176068750Y-102250000D01*
X162068750Y-88250000D02*
X162068750Y-102250000D01*
X195118750Y-88250000D02*
X181118750Y-88250000D01*
X195118750Y-102250000D02*
X195118750Y-88250000D01*
X181118750Y-102250000D02*
X195118750Y-102250000D01*
X181118750Y-88250000D02*
X181118750Y-102250000D01*
X157018750Y-88250000D02*
X143018750Y-88250000D01*
X157018750Y-102250000D02*
X157018750Y-88250000D01*
X143018750Y-102250000D02*
X157018750Y-102250000D01*
X143018750Y-88250000D02*
X143018750Y-102250000D01*
X137968750Y-88250000D02*
X123968750Y-88250000D01*
X137968750Y-102250000D02*
X137968750Y-88250000D01*
X123968750Y-102250000D02*
X137968750Y-102250000D01*
X123968750Y-88250000D02*
X123968750Y-102250000D01*
X118918750Y-88250000D02*
X104918750Y-88250000D01*
X118918750Y-102250000D02*
X118918750Y-88250000D01*
X104918750Y-102250000D02*
X118918750Y-102250000D01*
X104918750Y-88250000D02*
X104918750Y-102250000D01*
X99868750Y-88250000D02*
X85868750Y-88250000D01*
X99868750Y-102250000D02*
X99868750Y-88250000D01*
X85868750Y-102250000D02*
X99868750Y-102250000D01*
X85868750Y-88250000D02*
X85868750Y-102250000D01*
X80818750Y-88250000D02*
X66818750Y-88250000D01*
X80818750Y-102250000D02*
X80818750Y-88250000D01*
X66818750Y-102250000D02*
X80818750Y-102250000D01*
X66818750Y-88250000D02*
X66818750Y-102250000D01*
X61768750Y-88250000D02*
X47768750Y-88250000D01*
X61768750Y-102250000D02*
X61768750Y-88250000D01*
X47768750Y-102250000D02*
X61768750Y-102250000D01*
X47768750Y-88250000D02*
X47768750Y-102250000D01*
X42718750Y-88250000D02*
X28718750Y-88250000D01*
X42718750Y-102250000D02*
X42718750Y-88250000D01*
X28718750Y-102250000D02*
X42718750Y-102250000D01*
X28718750Y-88250000D02*
X28718750Y-102250000D01*
M02*
