G04 #@! TF.GenerationSoftware,KiCad,Pcbnew,(5.1.10-1-10_14)*
G04 #@! TF.CreationDate,2021-09-30T10:55:57+10:00*
G04 #@! TF.ProjectId,WTLBetter62,57544c42-6574-4746-9572-36322e6b6963,rev?*
G04 #@! TF.SameCoordinates,Original*
G04 #@! TF.FileFunction,Legend,Bot*
G04 #@! TF.FilePolarity,Positive*
%FSLAX46Y46*%
G04 Gerber Fmt 4.6, Leading zero omitted, Abs format (unit mm)*
G04 Created by KiCad (PCBNEW (5.1.10-1-10_14)) date 2021-09-30 10:55:57*
%MOMM*%
%LPD*%
G01*
G04 APERTURE LIST*
%ADD10C,0.600000*%
%ADD11C,0.127000*%
%ADD12C,0.200000*%
%ADD13C,0.150000*%
%ADD14C,1.000000*%
%ADD15C,0.300000*%
%ADD16C,0.800000*%
%ADD17C,3.000000*%
%ADD18C,0.500000*%
%ADD19C,3.500000*%
%ADD20C,0.400000*%
%ADD21C,0.120000*%
%ADD22R,1.900000X0.400000*%
%ADD23C,3.000000*%
%ADD24R,2.550000X2.500000*%
%ADD25C,1.900000*%
%ADD26C,4.100000*%
%ADD27C,1.152000*%
%ADD28C,3.048000*%
%ADD29C,3.987800*%
%ADD30R,0.600000X1.000000*%
%ADD31R,0.300000X1.000000*%
%ADD32O,1.000000X2.200000*%
%ADD33O,1.000000X1.800000*%
%ADD34C,1.400000*%
%ADD35C,4.300000*%
%ADD36R,1.000000X1.400000*%
%ADD37R,1.400000X1.000000*%
%ADD38R,1.500000X0.550000*%
%ADD39R,0.550000X1.500000*%
G04 APERTURE END LIST*
D10*
X133377083Y-10509523D02*
X132424702Y-14509523D01*
X131662797Y-11652380D01*
X130900892Y-14509523D01*
X129948511Y-10509523D01*
X128424702Y-14509523D02*
X128424702Y-11842857D01*
X128424702Y-10509523D02*
X128615178Y-10700000D01*
X128424702Y-10890476D01*
X128234226Y-10700000D01*
X128424702Y-10509523D01*
X128424702Y-10890476D01*
X125948511Y-14509523D02*
X126329464Y-14319047D01*
X126519940Y-13938095D01*
X126519940Y-10509523D01*
X123853273Y-14509523D02*
X124234226Y-14319047D01*
X124424702Y-13938095D01*
X124424702Y-10509523D01*
X122329464Y-14509523D02*
X122329464Y-11842857D01*
X122329464Y-10509523D02*
X122519940Y-10700000D01*
X122329464Y-10890476D01*
X122138988Y-10700000D01*
X122329464Y-10509523D01*
X122329464Y-10890476D01*
X120424702Y-11842857D02*
X120424702Y-14509523D01*
X120424702Y-12223809D02*
X120234226Y-12033333D01*
X119853273Y-11842857D01*
X119281845Y-11842857D01*
X118900892Y-12033333D01*
X118710416Y-12414285D01*
X118710416Y-14509523D01*
X115091369Y-11842857D02*
X115091369Y-15080952D01*
X115281845Y-15461904D01*
X115472321Y-15652380D01*
X115853273Y-15842857D01*
X116424702Y-15842857D01*
X116805654Y-15652380D01*
X115091369Y-14319047D02*
X115472321Y-14509523D01*
X116234226Y-14509523D01*
X116615178Y-14319047D01*
X116805654Y-14128571D01*
X116996130Y-13747619D01*
X116996130Y-12604761D01*
X116805654Y-12223809D01*
X116615178Y-12033333D01*
X116234226Y-11842857D01*
X115472321Y-11842857D01*
X115091369Y-12033333D01*
X110710416Y-10509523D02*
X108424702Y-10509523D01*
X109567559Y-14509523D02*
X109567559Y-10509523D01*
X106519940Y-14509523D02*
X106900892Y-14319047D01*
X107091369Y-14128571D01*
X107281845Y-13747619D01*
X107281845Y-12604761D01*
X107091369Y-12223809D01*
X106900892Y-12033333D01*
X106519940Y-11842857D01*
X105948511Y-11842857D01*
X105567559Y-12033333D01*
X105377083Y-12223809D01*
X105186607Y-12604761D01*
X105186607Y-13747619D01*
X105377083Y-14128571D01*
X105567559Y-14319047D01*
X105948511Y-14509523D01*
X106519940Y-14509523D01*
X98519940Y-14509523D02*
X100424702Y-14509523D01*
X100424702Y-10509523D01*
X97186607Y-14509523D02*
X97186607Y-11842857D01*
X97186607Y-10509523D02*
X97377083Y-10700000D01*
X97186607Y-10890476D01*
X96996130Y-10700000D01*
X97186607Y-10509523D01*
X97186607Y-10890476D01*
X95662797Y-11842857D02*
X94710416Y-14509523D01*
X93758035Y-11842857D01*
X90710416Y-14319047D02*
X91091369Y-14509523D01*
X91853273Y-14509523D01*
X92234226Y-14319047D01*
X92424702Y-13938095D01*
X92424702Y-12414285D01*
X92234226Y-12033333D01*
X91853273Y-11842857D01*
X91091369Y-11842857D01*
X90710416Y-12033333D01*
X90519940Y-12414285D01*
X90519940Y-12795238D01*
X92424702Y-13176190D01*
X84424702Y-12414285D02*
X83853273Y-12604761D01*
X83662797Y-12795238D01*
X83472321Y-13176190D01*
X83472321Y-13747619D01*
X83662797Y-14128571D01*
X83853273Y-14319047D01*
X84234226Y-14509523D01*
X85758035Y-14509523D01*
X85758035Y-10509523D01*
X84424702Y-10509523D01*
X84043750Y-10700000D01*
X83853273Y-10890476D01*
X83662797Y-11271428D01*
X83662797Y-11652380D01*
X83853273Y-12033333D01*
X84043750Y-12223809D01*
X84424702Y-12414285D01*
X85758035Y-12414285D01*
X80234226Y-14319047D02*
X80615178Y-14509523D01*
X81377083Y-14509523D01*
X81758035Y-14319047D01*
X81948511Y-13938095D01*
X81948511Y-12414285D01*
X81758035Y-12033333D01*
X81377083Y-11842857D01*
X80615178Y-11842857D01*
X80234226Y-12033333D01*
X80043750Y-12414285D01*
X80043750Y-12795238D01*
X81948511Y-13176190D01*
X78900892Y-11842857D02*
X77377083Y-11842857D01*
X78329464Y-10509523D02*
X78329464Y-13938095D01*
X78138988Y-14319047D01*
X77758035Y-14509523D01*
X77377083Y-14509523D01*
X76615178Y-11842857D02*
X75091369Y-11842857D01*
X76043750Y-10509523D02*
X76043750Y-13938095D01*
X75853273Y-14319047D01*
X75472321Y-14509523D01*
X75091369Y-14509523D01*
X72234226Y-14319047D02*
X72615178Y-14509523D01*
X73377083Y-14509523D01*
X73758035Y-14319047D01*
X73948511Y-13938095D01*
X73948511Y-12414285D01*
X73758035Y-12033333D01*
X73377083Y-11842857D01*
X72615178Y-11842857D01*
X72234226Y-12033333D01*
X72043750Y-12414285D01*
X72043750Y-12795238D01*
X73948511Y-13176190D01*
X70329464Y-14509523D02*
X70329464Y-11842857D01*
X70329464Y-12604761D02*
X70138988Y-12223809D01*
X69948511Y-12033333D01*
X69567559Y-11842857D01*
X69186607Y-11842857D01*
X63091369Y-10509523D02*
X63853273Y-10509523D01*
X64234226Y-10700000D01*
X64424702Y-10890476D01*
X64805654Y-11461904D01*
X64996130Y-12223809D01*
X64996130Y-13747619D01*
X64805654Y-14128571D01*
X64615178Y-14319047D01*
X64234226Y-14509523D01*
X63472321Y-14509523D01*
X63091369Y-14319047D01*
X62900892Y-14128571D01*
X62710416Y-13747619D01*
X62710416Y-12795238D01*
X62900892Y-12414285D01*
X63091369Y-12223809D01*
X63472321Y-12033333D01*
X64234226Y-12033333D01*
X64615178Y-12223809D01*
X64805654Y-12414285D01*
X64996130Y-12795238D01*
X61186607Y-10890476D02*
X60996130Y-10700000D01*
X60615178Y-10509523D01*
X59662797Y-10509523D01*
X59281845Y-10700000D01*
X59091369Y-10890476D01*
X58900892Y-11271428D01*
X58900892Y-11652380D01*
X59091369Y-12223809D01*
X61377083Y-14509523D01*
X58900892Y-14509523D01*
D11*
X80818750Y-51461250D02*
X79518750Y-51461250D01*
X80818750Y-54901250D02*
X79518750Y-54901250D01*
D12*
X80268750Y-55401250D02*
G75*
G03*
X80268750Y-55401250I-100000J0D01*
G01*
D13*
X35953818Y12372279D02*
G75*
G02*
X33737500Y10493750I-2151318J291471D01*
G01*
X39237500Y8793751D02*
G75*
G02*
X37137501Y6893750I-2000000J99999D01*
G01*
D14*
X36353818Y11972279D02*
G75*
G02*
X34137500Y10093750I-2151318J291471D01*
G01*
D15*
X39137500Y9443750D02*
X39137500Y8793750D01*
D16*
X38637500Y11893750D02*
X38637500Y10093751D01*
D17*
X37507500Y8393750D02*
X37507500Y10633750D01*
D18*
X29137500Y10243750D02*
X30437500Y10193750D01*
D14*
X29437500Y7493750D02*
X29437500Y9993750D01*
D19*
X30737500Y8693750D02*
X37437500Y8693750D01*
D13*
X28937500Y10493750D02*
X28937500Y6893750D01*
X28957500Y9493750D02*
X28957500Y7243750D01*
X39237500Y9543750D02*
X39037500Y9543750D01*
X38987500Y7943750D02*
X38987500Y12393750D01*
X39237500Y8793750D02*
X39237500Y9543750D01*
X38987500Y12393750D02*
X35957500Y12393750D01*
X33737500Y10493750D02*
X28937500Y10493750D01*
X28937500Y6893750D02*
X37137501Y6893750D01*
D18*
X38787500Y12193750D02*
X36337500Y12193750D01*
D20*
X29087500Y7093750D02*
X30337500Y7093750D01*
D13*
X97396182Y-61584779D02*
G75*
G02*
X99612500Y-59706250I2151318J-291471D01*
G01*
X94112500Y-58006251D02*
G75*
G02*
X96212499Y-56106250I2000000J-99999D01*
G01*
D14*
X96996182Y-61184779D02*
G75*
G02*
X99212500Y-59306250I2151318J-291471D01*
G01*
D15*
X94212500Y-58656250D02*
X94212500Y-58006250D01*
D16*
X94712500Y-61106250D02*
X94712500Y-59306251D01*
D17*
X95842500Y-57606250D02*
X95842500Y-59846250D01*
D18*
X104212500Y-59456250D02*
X102912500Y-59406250D01*
D14*
X103912500Y-56706250D02*
X103912500Y-59206250D01*
D19*
X102612500Y-57906250D02*
X95912500Y-57906250D01*
D13*
X104412500Y-59706250D02*
X104412500Y-56106250D01*
X104392500Y-58706250D02*
X104392500Y-56456250D01*
X94112500Y-58756250D02*
X94312500Y-58756250D01*
X94362500Y-57156250D02*
X94362500Y-61606250D01*
X94112500Y-58006250D02*
X94112500Y-58756250D01*
X94362500Y-61606250D02*
X97392500Y-61606250D01*
X99612500Y-59706250D02*
X104412500Y-59706250D01*
X104412500Y-56106250D02*
X96212499Y-56106250D01*
D18*
X94562500Y-61406250D02*
X97012500Y-61406250D01*
D20*
X104262500Y-56306250D02*
X103012500Y-56306250D01*
D13*
X154546182Y-61584779D02*
G75*
G02*
X156762500Y-59706250I2151318J-291471D01*
G01*
X151262500Y-58006251D02*
G75*
G02*
X153362499Y-56106250I2000000J-99999D01*
G01*
D14*
X154146182Y-61184779D02*
G75*
G02*
X156362500Y-59306250I2151318J-291471D01*
G01*
D15*
X151362500Y-58656250D02*
X151362500Y-58006250D01*
D16*
X151862500Y-61106250D02*
X151862500Y-59306251D01*
D17*
X152992500Y-57606250D02*
X152992500Y-59846250D01*
D18*
X161362500Y-59456250D02*
X160062500Y-59406250D01*
D14*
X161062500Y-56706250D02*
X161062500Y-59206250D01*
D19*
X159762500Y-57906250D02*
X153062500Y-57906250D01*
D13*
X161562500Y-59706250D02*
X161562500Y-56106250D01*
X161542500Y-58706250D02*
X161542500Y-56456250D01*
X151262500Y-58756250D02*
X151462500Y-58756250D01*
X151512500Y-57156250D02*
X151512500Y-61606250D01*
X151262500Y-58006250D02*
X151262500Y-58756250D01*
X151512500Y-61606250D02*
X154542500Y-61606250D01*
X156762500Y-59706250D02*
X161562500Y-59706250D01*
X161562500Y-56106250D02*
X153362499Y-56106250D01*
D18*
X151712500Y-61406250D02*
X154162500Y-61406250D01*
D20*
X161412500Y-56306250D02*
X160162500Y-56306250D01*
D21*
X43197490Y-50889293D02*
X43566957Y-51258760D01*
X42158043Y-51928740D02*
X42527510Y-52298207D01*
D13*
X259321182Y-61584779D02*
G75*
G02*
X261537500Y-59706250I2151318J-291471D01*
G01*
X256037500Y-58006251D02*
G75*
G02*
X258137499Y-56106250I2000000J-99999D01*
G01*
D14*
X258921182Y-61184779D02*
G75*
G02*
X261137500Y-59306250I2151318J-291471D01*
G01*
D15*
X256137500Y-58656250D02*
X256137500Y-58006250D01*
D16*
X256637500Y-61106250D02*
X256637500Y-59306251D01*
D17*
X257767500Y-57606250D02*
X257767500Y-59846250D01*
D18*
X266137500Y-59456250D02*
X264837500Y-59406250D01*
D14*
X265837500Y-56706250D02*
X265837500Y-59206250D01*
D19*
X264537500Y-57906250D02*
X257837500Y-57906250D01*
D13*
X266337500Y-59706250D02*
X266337500Y-56106250D01*
X266317500Y-58706250D02*
X266317500Y-56456250D01*
X256037500Y-58756250D02*
X256237500Y-58756250D01*
X256287500Y-57156250D02*
X256287500Y-61606250D01*
X256037500Y-58006250D02*
X256037500Y-58756250D01*
X256287500Y-61606250D02*
X259317500Y-61606250D01*
X261537500Y-59706250D02*
X266337500Y-59706250D01*
X266337500Y-56106250D02*
X258137499Y-56106250D01*
D18*
X256487500Y-61406250D02*
X258937500Y-61406250D01*
D20*
X266187500Y-56306250D02*
X264937500Y-56306250D01*
D13*
X240271182Y-61584779D02*
G75*
G02*
X242487500Y-59706250I2151318J-291471D01*
G01*
X236987500Y-58006251D02*
G75*
G02*
X239087499Y-56106250I2000000J-99999D01*
G01*
D14*
X239871182Y-61184779D02*
G75*
G02*
X242087500Y-59306250I2151318J-291471D01*
G01*
D15*
X237087500Y-58656250D02*
X237087500Y-58006250D01*
D16*
X237587500Y-61106250D02*
X237587500Y-59306251D01*
D17*
X238717500Y-57606250D02*
X238717500Y-59846250D01*
D18*
X247087500Y-59456250D02*
X245787500Y-59406250D01*
D14*
X246787500Y-56706250D02*
X246787500Y-59206250D01*
D19*
X245487500Y-57906250D02*
X238787500Y-57906250D01*
D13*
X247287500Y-59706250D02*
X247287500Y-56106250D01*
X247267500Y-58706250D02*
X247267500Y-56456250D01*
X236987500Y-58756250D02*
X237187500Y-58756250D01*
X237237500Y-57156250D02*
X237237500Y-61606250D01*
X236987500Y-58006250D02*
X236987500Y-58756250D01*
X237237500Y-61606250D02*
X240267500Y-61606250D01*
X242487500Y-59706250D02*
X247287500Y-59706250D01*
X247287500Y-56106250D02*
X239087499Y-56106250D01*
D18*
X237437500Y-61406250D02*
X239887500Y-61406250D01*
D20*
X247137500Y-56306250D02*
X245887500Y-56306250D01*
D13*
X221221182Y-61584779D02*
G75*
G02*
X223437500Y-59706250I2151318J-291471D01*
G01*
X217937500Y-58006251D02*
G75*
G02*
X220037499Y-56106250I2000000J-99999D01*
G01*
D14*
X220821182Y-61184779D02*
G75*
G02*
X223037500Y-59306250I2151318J-291471D01*
G01*
D15*
X218037500Y-58656250D02*
X218037500Y-58006250D01*
D16*
X218537500Y-61106250D02*
X218537500Y-59306251D01*
D17*
X219667500Y-57606250D02*
X219667500Y-59846250D01*
D18*
X228037500Y-59456250D02*
X226737500Y-59406250D01*
D14*
X227737500Y-56706250D02*
X227737500Y-59206250D01*
D19*
X226437500Y-57906250D02*
X219737500Y-57906250D01*
D13*
X228237500Y-59706250D02*
X228237500Y-56106250D01*
X228217500Y-58706250D02*
X228217500Y-56456250D01*
X217937500Y-58756250D02*
X218137500Y-58756250D01*
X218187500Y-57156250D02*
X218187500Y-61606250D01*
X217937500Y-58006250D02*
X217937500Y-58756250D01*
X218187500Y-61606250D02*
X221217500Y-61606250D01*
X223437500Y-59706250D02*
X228237500Y-59706250D01*
X228237500Y-56106250D02*
X220037499Y-56106250D01*
D18*
X218387500Y-61406250D02*
X220837500Y-61406250D01*
D20*
X228087500Y-56306250D02*
X226837500Y-56306250D01*
D13*
X202171182Y-61584779D02*
G75*
G02*
X204387500Y-59706250I2151318J-291471D01*
G01*
X198887500Y-58006251D02*
G75*
G02*
X200987499Y-56106250I2000000J-99999D01*
G01*
D14*
X201771182Y-61184779D02*
G75*
G02*
X203987500Y-59306250I2151318J-291471D01*
G01*
D15*
X198987500Y-58656250D02*
X198987500Y-58006250D01*
D16*
X199487500Y-61106250D02*
X199487500Y-59306251D01*
D17*
X200617500Y-57606250D02*
X200617500Y-59846250D01*
D18*
X208987500Y-59456250D02*
X207687500Y-59406250D01*
D14*
X208687500Y-56706250D02*
X208687500Y-59206250D01*
D19*
X207387500Y-57906250D02*
X200687500Y-57906250D01*
D13*
X209187500Y-59706250D02*
X209187500Y-56106250D01*
X209167500Y-58706250D02*
X209167500Y-56456250D01*
X198887500Y-58756250D02*
X199087500Y-58756250D01*
X199137500Y-57156250D02*
X199137500Y-61606250D01*
X198887500Y-58006250D02*
X198887500Y-58756250D01*
X199137500Y-61606250D02*
X202167500Y-61606250D01*
X204387500Y-59706250D02*
X209187500Y-59706250D01*
X209187500Y-56106250D02*
X200987499Y-56106250D01*
D18*
X199337500Y-61406250D02*
X201787500Y-61406250D01*
D20*
X209037500Y-56306250D02*
X207787500Y-56306250D01*
D13*
X183121182Y-61584779D02*
G75*
G02*
X185337500Y-59706250I2151318J-291471D01*
G01*
X179837500Y-58006251D02*
G75*
G02*
X181937499Y-56106250I2000000J-99999D01*
G01*
D14*
X182721182Y-61184779D02*
G75*
G02*
X184937500Y-59306250I2151318J-291471D01*
G01*
D15*
X179937500Y-58656250D02*
X179937500Y-58006250D01*
D16*
X180437500Y-61106250D02*
X180437500Y-59306251D01*
D17*
X181567500Y-57606250D02*
X181567500Y-59846250D01*
D18*
X189937500Y-59456250D02*
X188637500Y-59406250D01*
D14*
X189637500Y-56706250D02*
X189637500Y-59206250D01*
D19*
X188337500Y-57906250D02*
X181637500Y-57906250D01*
D13*
X190137500Y-59706250D02*
X190137500Y-56106250D01*
X190117500Y-58706250D02*
X190117500Y-56456250D01*
X179837500Y-58756250D02*
X180037500Y-58756250D01*
X180087500Y-57156250D02*
X180087500Y-61606250D01*
X179837500Y-58006250D02*
X179837500Y-58756250D01*
X180087500Y-61606250D02*
X183117500Y-61606250D01*
X185337500Y-59706250D02*
X190137500Y-59706250D01*
X190137500Y-56106250D02*
X181937499Y-56106250D01*
D18*
X180287500Y-61406250D02*
X182737500Y-61406250D01*
D20*
X189987500Y-56306250D02*
X188737500Y-56306250D01*
D13*
X125971182Y-61584779D02*
G75*
G02*
X128187500Y-59706250I2151318J-291471D01*
G01*
X122687500Y-58006251D02*
G75*
G02*
X124787499Y-56106250I2000000J-99999D01*
G01*
D14*
X125571182Y-61184779D02*
G75*
G02*
X127787500Y-59306250I2151318J-291471D01*
G01*
D15*
X122787500Y-58656250D02*
X122787500Y-58006250D01*
D16*
X123287500Y-61106250D02*
X123287500Y-59306251D01*
D17*
X124417500Y-57606250D02*
X124417500Y-59846250D01*
D18*
X132787500Y-59456250D02*
X131487500Y-59406250D01*
D14*
X132487500Y-56706250D02*
X132487500Y-59206250D01*
D19*
X131187500Y-57906250D02*
X124487500Y-57906250D01*
D13*
X132987500Y-59706250D02*
X132987500Y-56106250D01*
X132967500Y-58706250D02*
X132967500Y-56456250D01*
X122687500Y-58756250D02*
X122887500Y-58756250D01*
X122937500Y-57156250D02*
X122937500Y-61606250D01*
X122687500Y-58006250D02*
X122687500Y-58756250D01*
X122937500Y-61606250D02*
X125967500Y-61606250D01*
X128187500Y-59706250D02*
X132987500Y-59706250D01*
X132987500Y-56106250D02*
X124787499Y-56106250D01*
D18*
X123137500Y-61406250D02*
X125587500Y-61406250D01*
D20*
X132837500Y-56306250D02*
X131587500Y-56306250D01*
D13*
X68821182Y-61584779D02*
G75*
G02*
X71037500Y-59706250I2151318J-291471D01*
G01*
X65537500Y-58006251D02*
G75*
G02*
X67637499Y-56106250I2000000J-99999D01*
G01*
D14*
X68421182Y-61184779D02*
G75*
G02*
X70637500Y-59306250I2151318J-291471D01*
G01*
D15*
X65637500Y-58656250D02*
X65637500Y-58006250D01*
D16*
X66137500Y-61106250D02*
X66137500Y-59306251D01*
D17*
X67267500Y-57606250D02*
X67267500Y-59846250D01*
D18*
X75637500Y-59456250D02*
X74337500Y-59406250D01*
D14*
X75337500Y-56706250D02*
X75337500Y-59206250D01*
D19*
X74037500Y-57906250D02*
X67337500Y-57906250D01*
D13*
X75837500Y-59706250D02*
X75837500Y-56106250D01*
X75817500Y-58706250D02*
X75817500Y-56456250D01*
X65537500Y-58756250D02*
X65737500Y-58756250D01*
X65787500Y-57156250D02*
X65787500Y-61606250D01*
X65537500Y-58006250D02*
X65537500Y-58756250D01*
X65787500Y-61606250D02*
X68817500Y-61606250D01*
X71037500Y-59706250D02*
X75837500Y-59706250D01*
X75837500Y-56106250D02*
X67637499Y-56106250D01*
D18*
X65987500Y-61406250D02*
X68437500Y-61406250D01*
D20*
X75687500Y-56306250D02*
X74437500Y-56306250D01*
D13*
X49771182Y-61584779D02*
G75*
G02*
X51987500Y-59706250I2151318J-291471D01*
G01*
X46487500Y-58006251D02*
G75*
G02*
X48587499Y-56106250I2000000J-99999D01*
G01*
D14*
X49371182Y-61184779D02*
G75*
G02*
X51587500Y-59306250I2151318J-291471D01*
G01*
D15*
X46587500Y-58656250D02*
X46587500Y-58006250D01*
D16*
X47087500Y-61106250D02*
X47087500Y-59306251D01*
D17*
X48217500Y-57606250D02*
X48217500Y-59846250D01*
D18*
X56587500Y-59456250D02*
X55287500Y-59406250D01*
D14*
X56287500Y-56706250D02*
X56287500Y-59206250D01*
D19*
X54987500Y-57906250D02*
X48287500Y-57906250D01*
D13*
X56787500Y-59706250D02*
X56787500Y-56106250D01*
X56767500Y-58706250D02*
X56767500Y-56456250D01*
X46487500Y-58756250D02*
X46687500Y-58756250D01*
X46737500Y-57156250D02*
X46737500Y-61606250D01*
X46487500Y-58006250D02*
X46487500Y-58756250D01*
X46737500Y-61606250D02*
X49767500Y-61606250D01*
X51987500Y-59706250D02*
X56787500Y-59706250D01*
X56787500Y-56106250D02*
X48587499Y-56106250D01*
D18*
X46937500Y-61406250D02*
X49387500Y-61406250D01*
D20*
X56637500Y-56306250D02*
X55387500Y-56306250D01*
D13*
X259321182Y-42534779D02*
G75*
G02*
X261537500Y-40656250I2151318J-291471D01*
G01*
X256037500Y-38956251D02*
G75*
G02*
X258137499Y-37056250I2000000J-99999D01*
G01*
D14*
X258921182Y-42134779D02*
G75*
G02*
X261137500Y-40256250I2151318J-291471D01*
G01*
D15*
X256137500Y-39606250D02*
X256137500Y-38956250D01*
D16*
X256637500Y-42056250D02*
X256637500Y-40256251D01*
D17*
X257767500Y-38556250D02*
X257767500Y-40796250D01*
D18*
X266137500Y-40406250D02*
X264837500Y-40356250D01*
D14*
X265837500Y-37656250D02*
X265837500Y-40156250D01*
D19*
X264537500Y-38856250D02*
X257837500Y-38856250D01*
D13*
X266337500Y-40656250D02*
X266337500Y-37056250D01*
X266317500Y-39656250D02*
X266317500Y-37406250D01*
X256037500Y-39706250D02*
X256237500Y-39706250D01*
X256287500Y-38106250D02*
X256287500Y-42556250D01*
X256037500Y-38956250D02*
X256037500Y-39706250D01*
X256287500Y-42556250D02*
X259317500Y-42556250D01*
X261537500Y-40656250D02*
X266337500Y-40656250D01*
X266337500Y-37056250D02*
X258137499Y-37056250D01*
D18*
X256487500Y-42356250D02*
X258937500Y-42356250D01*
D20*
X266187500Y-37256250D02*
X264937500Y-37256250D01*
D13*
X240271182Y-42534779D02*
G75*
G02*
X242487500Y-40656250I2151318J-291471D01*
G01*
X236987500Y-38956251D02*
G75*
G02*
X239087499Y-37056250I2000000J-99999D01*
G01*
D14*
X239871182Y-42134779D02*
G75*
G02*
X242087500Y-40256250I2151318J-291471D01*
G01*
D15*
X237087500Y-39606250D02*
X237087500Y-38956250D01*
D16*
X237587500Y-42056250D02*
X237587500Y-40256251D01*
D17*
X238717500Y-38556250D02*
X238717500Y-40796250D01*
D18*
X247087500Y-40406250D02*
X245787500Y-40356250D01*
D14*
X246787500Y-37656250D02*
X246787500Y-40156250D01*
D19*
X245487500Y-38856250D02*
X238787500Y-38856250D01*
D13*
X247287500Y-40656250D02*
X247287500Y-37056250D01*
X247267500Y-39656250D02*
X247267500Y-37406250D01*
X236987500Y-39706250D02*
X237187500Y-39706250D01*
X237237500Y-38106250D02*
X237237500Y-42556250D01*
X236987500Y-38956250D02*
X236987500Y-39706250D01*
X237237500Y-42556250D02*
X240267500Y-42556250D01*
X242487500Y-40656250D02*
X247287500Y-40656250D01*
X247287500Y-37056250D02*
X239087499Y-37056250D01*
D18*
X237437500Y-42356250D02*
X239887500Y-42356250D01*
D20*
X247137500Y-37256250D02*
X245887500Y-37256250D01*
D13*
X221221182Y-42534779D02*
G75*
G02*
X223437500Y-40656250I2151318J-291471D01*
G01*
X217937500Y-38956251D02*
G75*
G02*
X220037499Y-37056250I2000000J-99999D01*
G01*
D14*
X220821182Y-42134779D02*
G75*
G02*
X223037500Y-40256250I2151318J-291471D01*
G01*
D15*
X218037500Y-39606250D02*
X218037500Y-38956250D01*
D16*
X218537500Y-42056250D02*
X218537500Y-40256251D01*
D17*
X219667500Y-38556250D02*
X219667500Y-40796250D01*
D18*
X228037500Y-40406250D02*
X226737500Y-40356250D01*
D14*
X227737500Y-37656250D02*
X227737500Y-40156250D01*
D19*
X226437500Y-38856250D02*
X219737500Y-38856250D01*
D13*
X228237500Y-40656250D02*
X228237500Y-37056250D01*
X228217500Y-39656250D02*
X228217500Y-37406250D01*
X217937500Y-39706250D02*
X218137500Y-39706250D01*
X218187500Y-38106250D02*
X218187500Y-42556250D01*
X217937500Y-38956250D02*
X217937500Y-39706250D01*
X218187500Y-42556250D02*
X221217500Y-42556250D01*
X223437500Y-40656250D02*
X228237500Y-40656250D01*
X228237500Y-37056250D02*
X220037499Y-37056250D01*
D18*
X218387500Y-42356250D02*
X220837500Y-42356250D01*
D20*
X228087500Y-37256250D02*
X226837500Y-37256250D01*
D13*
X202171182Y-42534779D02*
G75*
G02*
X204387500Y-40656250I2151318J-291471D01*
G01*
X198887500Y-38956251D02*
G75*
G02*
X200987499Y-37056250I2000000J-99999D01*
G01*
D14*
X201771182Y-42134779D02*
G75*
G02*
X203987500Y-40256250I2151318J-291471D01*
G01*
D15*
X198987500Y-39606250D02*
X198987500Y-38956250D01*
D16*
X199487500Y-42056250D02*
X199487500Y-40256251D01*
D17*
X200617500Y-38556250D02*
X200617500Y-40796250D01*
D18*
X208987500Y-40406250D02*
X207687500Y-40356250D01*
D14*
X208687500Y-37656250D02*
X208687500Y-40156250D01*
D19*
X207387500Y-38856250D02*
X200687500Y-38856250D01*
D13*
X209187500Y-40656250D02*
X209187500Y-37056250D01*
X209167500Y-39656250D02*
X209167500Y-37406250D01*
X198887500Y-39706250D02*
X199087500Y-39706250D01*
X199137500Y-38106250D02*
X199137500Y-42556250D01*
X198887500Y-38956250D02*
X198887500Y-39706250D01*
X199137500Y-42556250D02*
X202167500Y-42556250D01*
X204387500Y-40656250D02*
X209187500Y-40656250D01*
X209187500Y-37056250D02*
X200987499Y-37056250D01*
D18*
X199337500Y-42356250D02*
X201787500Y-42356250D01*
D20*
X209037500Y-37256250D02*
X207787500Y-37256250D01*
D13*
X183121182Y-42534779D02*
G75*
G02*
X185337500Y-40656250I2151318J-291471D01*
G01*
X179837500Y-38956251D02*
G75*
G02*
X181937499Y-37056250I2000000J-99999D01*
G01*
D14*
X182721182Y-42134779D02*
G75*
G02*
X184937500Y-40256250I2151318J-291471D01*
G01*
D15*
X179937500Y-39606250D02*
X179937500Y-38956250D01*
D16*
X180437500Y-42056250D02*
X180437500Y-40256251D01*
D17*
X181567500Y-38556250D02*
X181567500Y-40796250D01*
D18*
X189937500Y-40406250D02*
X188637500Y-40356250D01*
D14*
X189637500Y-37656250D02*
X189637500Y-40156250D01*
D19*
X188337500Y-38856250D02*
X181637500Y-38856250D01*
D13*
X190137500Y-40656250D02*
X190137500Y-37056250D01*
X190117500Y-39656250D02*
X190117500Y-37406250D01*
X179837500Y-39706250D02*
X180037500Y-39706250D01*
X180087500Y-38106250D02*
X180087500Y-42556250D01*
X179837500Y-38956250D02*
X179837500Y-39706250D01*
X180087500Y-42556250D02*
X183117500Y-42556250D01*
X185337500Y-40656250D02*
X190137500Y-40656250D01*
X190137500Y-37056250D02*
X181937499Y-37056250D01*
D18*
X180287500Y-42356250D02*
X182737500Y-42356250D01*
D20*
X189987500Y-37256250D02*
X188737500Y-37256250D01*
D13*
X164071182Y-42534779D02*
G75*
G02*
X166287500Y-40656250I2151318J-291471D01*
G01*
X160787500Y-38956251D02*
G75*
G02*
X162887499Y-37056250I2000000J-99999D01*
G01*
D14*
X163671182Y-42134779D02*
G75*
G02*
X165887500Y-40256250I2151318J-291471D01*
G01*
D15*
X160887500Y-39606250D02*
X160887500Y-38956250D01*
D16*
X161387500Y-42056250D02*
X161387500Y-40256251D01*
D17*
X162517500Y-38556250D02*
X162517500Y-40796250D01*
D18*
X170887500Y-40406250D02*
X169587500Y-40356250D01*
D14*
X170587500Y-37656250D02*
X170587500Y-40156250D01*
D19*
X169287500Y-38856250D02*
X162587500Y-38856250D01*
D13*
X171087500Y-40656250D02*
X171087500Y-37056250D01*
X171067500Y-39656250D02*
X171067500Y-37406250D01*
X160787500Y-39706250D02*
X160987500Y-39706250D01*
X161037500Y-38106250D02*
X161037500Y-42556250D01*
X160787500Y-38956250D02*
X160787500Y-39706250D01*
X161037500Y-42556250D02*
X164067500Y-42556250D01*
X166287500Y-40656250D02*
X171087500Y-40656250D01*
X171087500Y-37056250D02*
X162887499Y-37056250D01*
D18*
X161237500Y-42356250D02*
X163687500Y-42356250D01*
D20*
X170937500Y-37256250D02*
X169687500Y-37256250D01*
D13*
X145021182Y-42534779D02*
G75*
G02*
X147237500Y-40656250I2151318J-291471D01*
G01*
X141737500Y-38956251D02*
G75*
G02*
X143837499Y-37056250I2000000J-99999D01*
G01*
D14*
X144621182Y-42134779D02*
G75*
G02*
X146837500Y-40256250I2151318J-291471D01*
G01*
D15*
X141837500Y-39606250D02*
X141837500Y-38956250D01*
D16*
X142337500Y-42056250D02*
X142337500Y-40256251D01*
D17*
X143467500Y-38556250D02*
X143467500Y-40796250D01*
D18*
X151837500Y-40406250D02*
X150537500Y-40356250D01*
D14*
X151537500Y-37656250D02*
X151537500Y-40156250D01*
D19*
X150237500Y-38856250D02*
X143537500Y-38856250D01*
D13*
X152037500Y-40656250D02*
X152037500Y-37056250D01*
X152017500Y-39656250D02*
X152017500Y-37406250D01*
X141737500Y-39706250D02*
X141937500Y-39706250D01*
X141987500Y-38106250D02*
X141987500Y-42556250D01*
X141737500Y-38956250D02*
X141737500Y-39706250D01*
X141987500Y-42556250D02*
X145017500Y-42556250D01*
X147237500Y-40656250D02*
X152037500Y-40656250D01*
X152037500Y-37056250D02*
X143837499Y-37056250D01*
D18*
X142187500Y-42356250D02*
X144637500Y-42356250D01*
D20*
X151887500Y-37256250D02*
X150637500Y-37256250D01*
D13*
X125971182Y-42534779D02*
G75*
G02*
X128187500Y-40656250I2151318J-291471D01*
G01*
X122687500Y-38956251D02*
G75*
G02*
X124787499Y-37056250I2000000J-99999D01*
G01*
D14*
X125571182Y-42134779D02*
G75*
G02*
X127787500Y-40256250I2151318J-291471D01*
G01*
D15*
X122787500Y-39606250D02*
X122787500Y-38956250D01*
D16*
X123287500Y-42056250D02*
X123287500Y-40256251D01*
D17*
X124417500Y-38556250D02*
X124417500Y-40796250D01*
D18*
X132787500Y-40406250D02*
X131487500Y-40356250D01*
D14*
X132487500Y-37656250D02*
X132487500Y-40156250D01*
D19*
X131187500Y-38856250D02*
X124487500Y-38856250D01*
D13*
X132987500Y-40656250D02*
X132987500Y-37056250D01*
X132967500Y-39656250D02*
X132967500Y-37406250D01*
X122687500Y-39706250D02*
X122887500Y-39706250D01*
X122937500Y-38106250D02*
X122937500Y-42556250D01*
X122687500Y-38956250D02*
X122687500Y-39706250D01*
X122937500Y-42556250D02*
X125967500Y-42556250D01*
X128187500Y-40656250D02*
X132987500Y-40656250D01*
X132987500Y-37056250D02*
X124787499Y-37056250D01*
D18*
X123137500Y-42356250D02*
X125587500Y-42356250D01*
D20*
X132837500Y-37256250D02*
X131587500Y-37256250D01*
D13*
X106921182Y-42534779D02*
G75*
G02*
X109137500Y-40656250I2151318J-291471D01*
G01*
X103637500Y-38956251D02*
G75*
G02*
X105737499Y-37056250I2000000J-99999D01*
G01*
D14*
X106521182Y-42134779D02*
G75*
G02*
X108737500Y-40256250I2151318J-291471D01*
G01*
D15*
X103737500Y-39606250D02*
X103737500Y-38956250D01*
D16*
X104237500Y-42056250D02*
X104237500Y-40256251D01*
D17*
X105367500Y-38556250D02*
X105367500Y-40796250D01*
D18*
X113737500Y-40406250D02*
X112437500Y-40356250D01*
D14*
X113437500Y-37656250D02*
X113437500Y-40156250D01*
D19*
X112137500Y-38856250D02*
X105437500Y-38856250D01*
D13*
X113937500Y-40656250D02*
X113937500Y-37056250D01*
X113917500Y-39656250D02*
X113917500Y-37406250D01*
X103637500Y-39706250D02*
X103837500Y-39706250D01*
X103887500Y-38106250D02*
X103887500Y-42556250D01*
X103637500Y-38956250D02*
X103637500Y-39706250D01*
X103887500Y-42556250D02*
X106917500Y-42556250D01*
X109137500Y-40656250D02*
X113937500Y-40656250D01*
X113937500Y-37056250D02*
X105737499Y-37056250D01*
D18*
X104087500Y-42356250D02*
X106537500Y-42356250D01*
D20*
X113787500Y-37256250D02*
X112537500Y-37256250D01*
D13*
X87871182Y-42534779D02*
G75*
G02*
X90087500Y-40656250I2151318J-291471D01*
G01*
X84587500Y-38956251D02*
G75*
G02*
X86687499Y-37056250I2000000J-99999D01*
G01*
D14*
X87471182Y-42134779D02*
G75*
G02*
X89687500Y-40256250I2151318J-291471D01*
G01*
D15*
X84687500Y-39606250D02*
X84687500Y-38956250D01*
D16*
X85187500Y-42056250D02*
X85187500Y-40256251D01*
D17*
X86317500Y-38556250D02*
X86317500Y-40796250D01*
D18*
X94687500Y-40406250D02*
X93387500Y-40356250D01*
D14*
X94387500Y-37656250D02*
X94387500Y-40156250D01*
D19*
X93087500Y-38856250D02*
X86387500Y-38856250D01*
D13*
X94887500Y-40656250D02*
X94887500Y-37056250D01*
X94867500Y-39656250D02*
X94867500Y-37406250D01*
X84587500Y-39706250D02*
X84787500Y-39706250D01*
X84837500Y-38106250D02*
X84837500Y-42556250D01*
X84587500Y-38956250D02*
X84587500Y-39706250D01*
X84837500Y-42556250D02*
X87867500Y-42556250D01*
X90087500Y-40656250D02*
X94887500Y-40656250D01*
X94887500Y-37056250D02*
X86687499Y-37056250D01*
D18*
X85037500Y-42356250D02*
X87487500Y-42356250D01*
D20*
X94737500Y-37256250D02*
X93487500Y-37256250D01*
D13*
X49771182Y-42534779D02*
G75*
G02*
X51987500Y-40656250I2151318J-291471D01*
G01*
X46487500Y-38956251D02*
G75*
G02*
X48587499Y-37056250I2000000J-99999D01*
G01*
D14*
X49371182Y-42134779D02*
G75*
G02*
X51587500Y-40256250I2151318J-291471D01*
G01*
D15*
X46587500Y-39606250D02*
X46587500Y-38956250D01*
D16*
X47087500Y-42056250D02*
X47087500Y-40256251D01*
D17*
X48217500Y-38556250D02*
X48217500Y-40796250D01*
D18*
X56587500Y-40406250D02*
X55287500Y-40356250D01*
D14*
X56287500Y-37656250D02*
X56287500Y-40156250D01*
D19*
X54987500Y-38856250D02*
X48287500Y-38856250D01*
D13*
X56787500Y-40656250D02*
X56787500Y-37056250D01*
X56767500Y-39656250D02*
X56767500Y-37406250D01*
X46487500Y-39706250D02*
X46687500Y-39706250D01*
X46737500Y-38106250D02*
X46737500Y-42556250D01*
X46487500Y-38956250D02*
X46487500Y-39706250D01*
X46737500Y-42556250D02*
X49767500Y-42556250D01*
X51987500Y-40656250D02*
X56787500Y-40656250D01*
X56787500Y-37056250D02*
X48587499Y-37056250D01*
D18*
X46937500Y-42356250D02*
X49387500Y-42356250D01*
D20*
X56637500Y-37256250D02*
X55387500Y-37256250D01*
D13*
X30721182Y-42534779D02*
G75*
G02*
X32937500Y-40656250I2151318J-291471D01*
G01*
X27437500Y-38956251D02*
G75*
G02*
X29537499Y-37056250I2000000J-99999D01*
G01*
D14*
X30321182Y-42134779D02*
G75*
G02*
X32537500Y-40256250I2151318J-291471D01*
G01*
D15*
X27537500Y-39606250D02*
X27537500Y-38956250D01*
D16*
X28037500Y-42056250D02*
X28037500Y-40256251D01*
D17*
X29167500Y-38556250D02*
X29167500Y-40796250D01*
D18*
X37537500Y-40406250D02*
X36237500Y-40356250D01*
D14*
X37237500Y-37656250D02*
X37237500Y-40156250D01*
D19*
X35937500Y-38856250D02*
X29237500Y-38856250D01*
D13*
X37737500Y-40656250D02*
X37737500Y-37056250D01*
X37717500Y-39656250D02*
X37717500Y-37406250D01*
X27437500Y-39706250D02*
X27637500Y-39706250D01*
X27687500Y-38106250D02*
X27687500Y-42556250D01*
X27437500Y-38956250D02*
X27437500Y-39706250D01*
X27687500Y-42556250D02*
X30717500Y-42556250D01*
X32937500Y-40656250D02*
X37737500Y-40656250D01*
X37737500Y-37056250D02*
X29537499Y-37056250D01*
D18*
X27887500Y-42356250D02*
X30337500Y-42356250D01*
D20*
X37587500Y-37256250D02*
X36337500Y-37256250D01*
D13*
X259321182Y-23484779D02*
G75*
G02*
X261537500Y-21606250I2151318J-291471D01*
G01*
X256037500Y-19906251D02*
G75*
G02*
X258137499Y-18006250I2000000J-99999D01*
G01*
D14*
X258921182Y-23084779D02*
G75*
G02*
X261137500Y-21206250I2151318J-291471D01*
G01*
D15*
X256137500Y-20556250D02*
X256137500Y-19906250D01*
D16*
X256637500Y-23006250D02*
X256637500Y-21206251D01*
D17*
X257767500Y-19506250D02*
X257767500Y-21746250D01*
D18*
X266137500Y-21356250D02*
X264837500Y-21306250D01*
D14*
X265837500Y-18606250D02*
X265837500Y-21106250D01*
D19*
X264537500Y-19806250D02*
X257837500Y-19806250D01*
D13*
X266337500Y-21606250D02*
X266337500Y-18006250D01*
X266317500Y-20606250D02*
X266317500Y-18356250D01*
X256037500Y-20656250D02*
X256237500Y-20656250D01*
X256287500Y-19056250D02*
X256287500Y-23506250D01*
X256037500Y-19906250D02*
X256037500Y-20656250D01*
X256287500Y-23506250D02*
X259317500Y-23506250D01*
X261537500Y-21606250D02*
X266337500Y-21606250D01*
X266337500Y-18006250D02*
X258137499Y-18006250D01*
D18*
X256487500Y-23306250D02*
X258937500Y-23306250D01*
D20*
X266187500Y-18206250D02*
X264937500Y-18206250D01*
D13*
X240271182Y-23484779D02*
G75*
G02*
X242487500Y-21606250I2151318J-291471D01*
G01*
X236987500Y-19906251D02*
G75*
G02*
X239087499Y-18006250I2000000J-99999D01*
G01*
D14*
X239871182Y-23084779D02*
G75*
G02*
X242087500Y-21206250I2151318J-291471D01*
G01*
D15*
X237087500Y-20556250D02*
X237087500Y-19906250D01*
D16*
X237587500Y-23006250D02*
X237587500Y-21206251D01*
D17*
X238717500Y-19506250D02*
X238717500Y-21746250D01*
D18*
X247087500Y-21356250D02*
X245787500Y-21306250D01*
D14*
X246787500Y-18606250D02*
X246787500Y-21106250D01*
D19*
X245487500Y-19806250D02*
X238787500Y-19806250D01*
D13*
X247287500Y-21606250D02*
X247287500Y-18006250D01*
X247267500Y-20606250D02*
X247267500Y-18356250D01*
X236987500Y-20656250D02*
X237187500Y-20656250D01*
X237237500Y-19056250D02*
X237237500Y-23506250D01*
X236987500Y-19906250D02*
X236987500Y-20656250D01*
X237237500Y-23506250D02*
X240267500Y-23506250D01*
X242487500Y-21606250D02*
X247287500Y-21606250D01*
X247287500Y-18006250D02*
X239087499Y-18006250D01*
D18*
X237437500Y-23306250D02*
X239887500Y-23306250D01*
D20*
X247137500Y-18206250D02*
X245887500Y-18206250D01*
D13*
X221221182Y-23484779D02*
G75*
G02*
X223437500Y-21606250I2151318J-291471D01*
G01*
X217937500Y-19906251D02*
G75*
G02*
X220037499Y-18006250I2000000J-99999D01*
G01*
D14*
X220821182Y-23084779D02*
G75*
G02*
X223037500Y-21206250I2151318J-291471D01*
G01*
D15*
X218037500Y-20556250D02*
X218037500Y-19906250D01*
D16*
X218537500Y-23006250D02*
X218537500Y-21206251D01*
D17*
X219667500Y-19506250D02*
X219667500Y-21746250D01*
D18*
X228037500Y-21356250D02*
X226737500Y-21306250D01*
D14*
X227737500Y-18606250D02*
X227737500Y-21106250D01*
D19*
X226437500Y-19806250D02*
X219737500Y-19806250D01*
D13*
X228237500Y-21606250D02*
X228237500Y-18006250D01*
X228217500Y-20606250D02*
X228217500Y-18356250D01*
X217937500Y-20656250D02*
X218137500Y-20656250D01*
X218187500Y-19056250D02*
X218187500Y-23506250D01*
X217937500Y-19906250D02*
X217937500Y-20656250D01*
X218187500Y-23506250D02*
X221217500Y-23506250D01*
X223437500Y-21606250D02*
X228237500Y-21606250D01*
X228237500Y-18006250D02*
X220037499Y-18006250D01*
D18*
X218387500Y-23306250D02*
X220837500Y-23306250D01*
D20*
X228087500Y-18206250D02*
X226837500Y-18206250D01*
D13*
X202171182Y-23484779D02*
G75*
G02*
X204387500Y-21606250I2151318J-291471D01*
G01*
X198887500Y-19906251D02*
G75*
G02*
X200987499Y-18006250I2000000J-99999D01*
G01*
D14*
X201771182Y-23084779D02*
G75*
G02*
X203987500Y-21206250I2151318J-291471D01*
G01*
D15*
X198987500Y-20556250D02*
X198987500Y-19906250D01*
D16*
X199487500Y-23006250D02*
X199487500Y-21206251D01*
D17*
X200617500Y-19506250D02*
X200617500Y-21746250D01*
D18*
X208987500Y-21356250D02*
X207687500Y-21306250D01*
D14*
X208687500Y-18606250D02*
X208687500Y-21106250D01*
D19*
X207387500Y-19806250D02*
X200687500Y-19806250D01*
D13*
X209187500Y-21606250D02*
X209187500Y-18006250D01*
X209167500Y-20606250D02*
X209167500Y-18356250D01*
X198887500Y-20656250D02*
X199087500Y-20656250D01*
X199137500Y-19056250D02*
X199137500Y-23506250D01*
X198887500Y-19906250D02*
X198887500Y-20656250D01*
X199137500Y-23506250D02*
X202167500Y-23506250D01*
X204387500Y-21606250D02*
X209187500Y-21606250D01*
X209187500Y-18006250D02*
X200987499Y-18006250D01*
D18*
X199337500Y-23306250D02*
X201787500Y-23306250D01*
D20*
X209037500Y-18206250D02*
X207787500Y-18206250D01*
D13*
X183121182Y-23484779D02*
G75*
G02*
X185337500Y-21606250I2151318J-291471D01*
G01*
X179837500Y-19906251D02*
G75*
G02*
X181937499Y-18006250I2000000J-99999D01*
G01*
D14*
X182721182Y-23084779D02*
G75*
G02*
X184937500Y-21206250I2151318J-291471D01*
G01*
D15*
X179937500Y-20556250D02*
X179937500Y-19906250D01*
D16*
X180437500Y-23006250D02*
X180437500Y-21206251D01*
D17*
X181567500Y-19506250D02*
X181567500Y-21746250D01*
D18*
X189937500Y-21356250D02*
X188637500Y-21306250D01*
D14*
X189637500Y-18606250D02*
X189637500Y-21106250D01*
D19*
X188337500Y-19806250D02*
X181637500Y-19806250D01*
D13*
X190137500Y-21606250D02*
X190137500Y-18006250D01*
X190117500Y-20606250D02*
X190117500Y-18356250D01*
X179837500Y-20656250D02*
X180037500Y-20656250D01*
X180087500Y-19056250D02*
X180087500Y-23506250D01*
X179837500Y-19906250D02*
X179837500Y-20656250D01*
X180087500Y-23506250D02*
X183117500Y-23506250D01*
X185337500Y-21606250D02*
X190137500Y-21606250D01*
X190137500Y-18006250D02*
X181937499Y-18006250D01*
D18*
X180287500Y-23306250D02*
X182737500Y-23306250D01*
D20*
X189987500Y-18206250D02*
X188737500Y-18206250D01*
D13*
X164071182Y-23484779D02*
G75*
G02*
X166287500Y-21606250I2151318J-291471D01*
G01*
X160787500Y-19906251D02*
G75*
G02*
X162887499Y-18006250I2000000J-99999D01*
G01*
D14*
X163671182Y-23084779D02*
G75*
G02*
X165887500Y-21206250I2151318J-291471D01*
G01*
D15*
X160887500Y-20556250D02*
X160887500Y-19906250D01*
D16*
X161387500Y-23006250D02*
X161387500Y-21206251D01*
D17*
X162517500Y-19506250D02*
X162517500Y-21746250D01*
D18*
X170887500Y-21356250D02*
X169587500Y-21306250D01*
D14*
X170587500Y-18606250D02*
X170587500Y-21106250D01*
D19*
X169287500Y-19806250D02*
X162587500Y-19806250D01*
D13*
X171087500Y-21606250D02*
X171087500Y-18006250D01*
X171067500Y-20606250D02*
X171067500Y-18356250D01*
X160787500Y-20656250D02*
X160987500Y-20656250D01*
X161037500Y-19056250D02*
X161037500Y-23506250D01*
X160787500Y-19906250D02*
X160787500Y-20656250D01*
X161037500Y-23506250D02*
X164067500Y-23506250D01*
X166287500Y-21606250D02*
X171087500Y-21606250D01*
X171087500Y-18006250D02*
X162887499Y-18006250D01*
D18*
X161237500Y-23306250D02*
X163687500Y-23306250D01*
D20*
X170937500Y-18206250D02*
X169687500Y-18206250D01*
D13*
X145021182Y-23484779D02*
G75*
G02*
X147237500Y-21606250I2151318J-291471D01*
G01*
X141737500Y-19906251D02*
G75*
G02*
X143837499Y-18006250I2000000J-99999D01*
G01*
D14*
X144621182Y-23084779D02*
G75*
G02*
X146837500Y-21206250I2151318J-291471D01*
G01*
D15*
X141837500Y-20556250D02*
X141837500Y-19906250D01*
D16*
X142337500Y-23006250D02*
X142337500Y-21206251D01*
D17*
X143467500Y-19506250D02*
X143467500Y-21746250D01*
D18*
X151837500Y-21356250D02*
X150537500Y-21306250D01*
D14*
X151537500Y-18606250D02*
X151537500Y-21106250D01*
D19*
X150237500Y-19806250D02*
X143537500Y-19806250D01*
D13*
X152037500Y-21606250D02*
X152037500Y-18006250D01*
X152017500Y-20606250D02*
X152017500Y-18356250D01*
X141737500Y-20656250D02*
X141937500Y-20656250D01*
X141987500Y-19056250D02*
X141987500Y-23506250D01*
X141737500Y-19906250D02*
X141737500Y-20656250D01*
X141987500Y-23506250D02*
X145017500Y-23506250D01*
X147237500Y-21606250D02*
X152037500Y-21606250D01*
X152037500Y-18006250D02*
X143837499Y-18006250D01*
D18*
X142187500Y-23306250D02*
X144637500Y-23306250D01*
D20*
X151887500Y-18206250D02*
X150637500Y-18206250D01*
D13*
X125971182Y-23484779D02*
G75*
G02*
X128187500Y-21606250I2151318J-291471D01*
G01*
X122687500Y-19906251D02*
G75*
G02*
X124787499Y-18006250I2000000J-99999D01*
G01*
D14*
X125571182Y-23084779D02*
G75*
G02*
X127787500Y-21206250I2151318J-291471D01*
G01*
D15*
X122787500Y-20556250D02*
X122787500Y-19906250D01*
D16*
X123287500Y-23006250D02*
X123287500Y-21206251D01*
D17*
X124417500Y-19506250D02*
X124417500Y-21746250D01*
D18*
X132787500Y-21356250D02*
X131487500Y-21306250D01*
D14*
X132487500Y-18606250D02*
X132487500Y-21106250D01*
D19*
X131187500Y-19806250D02*
X124487500Y-19806250D01*
D13*
X132987500Y-21606250D02*
X132987500Y-18006250D01*
X132967500Y-20606250D02*
X132967500Y-18356250D01*
X122687500Y-20656250D02*
X122887500Y-20656250D01*
X122937500Y-19056250D02*
X122937500Y-23506250D01*
X122687500Y-19906250D02*
X122687500Y-20656250D01*
X122937500Y-23506250D02*
X125967500Y-23506250D01*
X128187500Y-21606250D02*
X132987500Y-21606250D01*
X132987500Y-18006250D02*
X124787499Y-18006250D01*
D18*
X123137500Y-23306250D02*
X125587500Y-23306250D01*
D20*
X132837500Y-18206250D02*
X131587500Y-18206250D01*
D13*
X106921182Y-23484779D02*
G75*
G02*
X109137500Y-21606250I2151318J-291471D01*
G01*
X103637500Y-19906251D02*
G75*
G02*
X105737499Y-18006250I2000000J-99999D01*
G01*
D14*
X106521182Y-23084779D02*
G75*
G02*
X108737500Y-21206250I2151318J-291471D01*
G01*
D15*
X103737500Y-20556250D02*
X103737500Y-19906250D01*
D16*
X104237500Y-23006250D02*
X104237500Y-21206251D01*
D17*
X105367500Y-19506250D02*
X105367500Y-21746250D01*
D18*
X113737500Y-21356250D02*
X112437500Y-21306250D01*
D14*
X113437500Y-18606250D02*
X113437500Y-21106250D01*
D19*
X112137500Y-19806250D02*
X105437500Y-19806250D01*
D13*
X113937500Y-21606250D02*
X113937500Y-18006250D01*
X113917500Y-20606250D02*
X113917500Y-18356250D01*
X103637500Y-20656250D02*
X103837500Y-20656250D01*
X103887500Y-19056250D02*
X103887500Y-23506250D01*
X103637500Y-19906250D02*
X103637500Y-20656250D01*
X103887500Y-23506250D02*
X106917500Y-23506250D01*
X109137500Y-21606250D02*
X113937500Y-21606250D01*
X113937500Y-18006250D02*
X105737499Y-18006250D01*
D18*
X104087500Y-23306250D02*
X106537500Y-23306250D01*
D20*
X113787500Y-18206250D02*
X112537500Y-18206250D01*
D13*
X87871182Y-23484779D02*
G75*
G02*
X90087500Y-21606250I2151318J-291471D01*
G01*
X84587500Y-19906251D02*
G75*
G02*
X86687499Y-18006250I2000000J-99999D01*
G01*
D14*
X87471182Y-23084779D02*
G75*
G02*
X89687500Y-21206250I2151318J-291471D01*
G01*
D15*
X84687500Y-20556250D02*
X84687500Y-19906250D01*
D16*
X85187500Y-23006250D02*
X85187500Y-21206251D01*
D17*
X86317500Y-19506250D02*
X86317500Y-21746250D01*
D18*
X94687500Y-21356250D02*
X93387500Y-21306250D01*
D14*
X94387500Y-18606250D02*
X94387500Y-21106250D01*
D19*
X93087500Y-19806250D02*
X86387500Y-19806250D01*
D13*
X94887500Y-21606250D02*
X94887500Y-18006250D01*
X94867500Y-20606250D02*
X94867500Y-18356250D01*
X84587500Y-20656250D02*
X84787500Y-20656250D01*
X84837500Y-19056250D02*
X84837500Y-23506250D01*
X84587500Y-19906250D02*
X84587500Y-20656250D01*
X84837500Y-23506250D02*
X87867500Y-23506250D01*
X90087500Y-21606250D02*
X94887500Y-21606250D01*
X94887500Y-18006250D02*
X86687499Y-18006250D01*
D18*
X85037500Y-23306250D02*
X87487500Y-23306250D01*
D20*
X94737500Y-18206250D02*
X93487500Y-18206250D01*
D13*
X68821182Y-23484779D02*
G75*
G02*
X71037500Y-21606250I2151318J-291471D01*
G01*
X65537500Y-19906251D02*
G75*
G02*
X67637499Y-18006250I2000000J-99999D01*
G01*
D14*
X68421182Y-23084779D02*
G75*
G02*
X70637500Y-21206250I2151318J-291471D01*
G01*
D15*
X65637500Y-20556250D02*
X65637500Y-19906250D01*
D16*
X66137500Y-23006250D02*
X66137500Y-21206251D01*
D17*
X67267500Y-19506250D02*
X67267500Y-21746250D01*
D18*
X75637500Y-21356250D02*
X74337500Y-21306250D01*
D14*
X75337500Y-18606250D02*
X75337500Y-21106250D01*
D19*
X74037500Y-19806250D02*
X67337500Y-19806250D01*
D13*
X75837500Y-21606250D02*
X75837500Y-18006250D01*
X75817500Y-20606250D02*
X75817500Y-18356250D01*
X65537500Y-20656250D02*
X65737500Y-20656250D01*
X65787500Y-19056250D02*
X65787500Y-23506250D01*
X65537500Y-19906250D02*
X65537500Y-20656250D01*
X65787500Y-23506250D02*
X68817500Y-23506250D01*
X71037500Y-21606250D02*
X75837500Y-21606250D01*
X75837500Y-18006250D02*
X67637499Y-18006250D01*
D18*
X65987500Y-23306250D02*
X68437500Y-23306250D01*
D20*
X75687500Y-18206250D02*
X74437500Y-18206250D01*
D13*
X49771182Y-23484779D02*
G75*
G02*
X51987500Y-21606250I2151318J-291471D01*
G01*
X46487500Y-19906251D02*
G75*
G02*
X48587499Y-18006250I2000000J-99999D01*
G01*
D14*
X49371182Y-23084779D02*
G75*
G02*
X51587500Y-21206250I2151318J-291471D01*
G01*
D15*
X46587500Y-20556250D02*
X46587500Y-19906250D01*
D16*
X47087500Y-23006250D02*
X47087500Y-21206251D01*
D17*
X48217500Y-19506250D02*
X48217500Y-21746250D01*
D18*
X56587500Y-21356250D02*
X55287500Y-21306250D01*
D14*
X56287500Y-18606250D02*
X56287500Y-21106250D01*
D19*
X54987500Y-19806250D02*
X48287500Y-19806250D01*
D13*
X56787500Y-21606250D02*
X56787500Y-18006250D01*
X56767500Y-20606250D02*
X56767500Y-18356250D01*
X46487500Y-20656250D02*
X46687500Y-20656250D01*
X46737500Y-19056250D02*
X46737500Y-23506250D01*
X46487500Y-19906250D02*
X46487500Y-20656250D01*
X46737500Y-23506250D02*
X49767500Y-23506250D01*
X51987500Y-21606250D02*
X56787500Y-21606250D01*
X56787500Y-18006250D02*
X48587499Y-18006250D01*
D18*
X46937500Y-23306250D02*
X49387500Y-23306250D01*
D20*
X56637500Y-18206250D02*
X55387500Y-18206250D01*
D13*
X30721182Y-23484779D02*
G75*
G02*
X32937500Y-21606250I2151318J-291471D01*
G01*
X27437500Y-19906251D02*
G75*
G02*
X29537499Y-18006250I2000000J-99999D01*
G01*
D14*
X30321182Y-23084779D02*
G75*
G02*
X32537500Y-21206250I2151318J-291471D01*
G01*
D15*
X27537500Y-20556250D02*
X27537500Y-19906250D01*
D16*
X28037500Y-23006250D02*
X28037500Y-21206251D01*
D17*
X29167500Y-19506250D02*
X29167500Y-21746250D01*
D18*
X37537500Y-21356250D02*
X36237500Y-21306250D01*
D14*
X37237500Y-18606250D02*
X37237500Y-21106250D01*
D19*
X35937500Y-19806250D02*
X29237500Y-19806250D01*
D13*
X37737500Y-21606250D02*
X37737500Y-18006250D01*
X37717500Y-20606250D02*
X37717500Y-18356250D01*
X27437500Y-20656250D02*
X27637500Y-20656250D01*
X27687500Y-19056250D02*
X27687500Y-23506250D01*
X27437500Y-19906250D02*
X27437500Y-20656250D01*
X27687500Y-23506250D02*
X30717500Y-23506250D01*
X32937500Y-21606250D02*
X37737500Y-21606250D01*
X37737500Y-18006250D02*
X29537499Y-18006250D01*
D18*
X27887500Y-23306250D02*
X30337500Y-23306250D01*
D20*
X37587500Y-18206250D02*
X36337500Y-18206250D01*
D13*
X259321182Y-4434779D02*
G75*
G02*
X261537500Y-2556250I2151318J-291471D01*
G01*
X256037500Y-856251D02*
G75*
G02*
X258137499Y1043750I2000000J-99999D01*
G01*
D14*
X258921182Y-4034779D02*
G75*
G02*
X261137500Y-2156250I2151318J-291471D01*
G01*
D15*
X256137500Y-1506250D02*
X256137500Y-856250D01*
D16*
X256637500Y-3956250D02*
X256637500Y-2156251D01*
D17*
X257767500Y-456250D02*
X257767500Y-2696250D01*
D18*
X266137500Y-2306250D02*
X264837500Y-2256250D01*
D14*
X265837500Y443750D02*
X265837500Y-2056250D01*
D19*
X264537500Y-756250D02*
X257837500Y-756250D01*
D13*
X266337500Y-2556250D02*
X266337500Y1043750D01*
X266317500Y-1556250D02*
X266317500Y693750D01*
X256037500Y-1606250D02*
X256237500Y-1606250D01*
X256287500Y-6250D02*
X256287500Y-4456250D01*
X256037500Y-856250D02*
X256037500Y-1606250D01*
X256287500Y-4456250D02*
X259317500Y-4456250D01*
X261537500Y-2556250D02*
X266337500Y-2556250D01*
X266337500Y1043750D02*
X258137499Y1043750D01*
D18*
X256487500Y-4256250D02*
X258937500Y-4256250D01*
D20*
X266187500Y843750D02*
X264937500Y843750D01*
D13*
X240271182Y-4434779D02*
G75*
G02*
X242487500Y-2556250I2151318J-291471D01*
G01*
X236987500Y-856251D02*
G75*
G02*
X239087499Y1043750I2000000J-99999D01*
G01*
D14*
X239871182Y-4034779D02*
G75*
G02*
X242087500Y-2156250I2151318J-291471D01*
G01*
D15*
X237087500Y-1506250D02*
X237087500Y-856250D01*
D16*
X237587500Y-3956250D02*
X237587500Y-2156251D01*
D17*
X238717500Y-456250D02*
X238717500Y-2696250D01*
D18*
X247087500Y-2306250D02*
X245787500Y-2256250D01*
D14*
X246787500Y443750D02*
X246787500Y-2056250D01*
D19*
X245487500Y-756250D02*
X238787500Y-756250D01*
D13*
X247287500Y-2556250D02*
X247287500Y1043750D01*
X247267500Y-1556250D02*
X247267500Y693750D01*
X236987500Y-1606250D02*
X237187500Y-1606250D01*
X237237500Y-6250D02*
X237237500Y-4456250D01*
X236987500Y-856250D02*
X236987500Y-1606250D01*
X237237500Y-4456250D02*
X240267500Y-4456250D01*
X242487500Y-2556250D02*
X247287500Y-2556250D01*
X247287500Y1043750D02*
X239087499Y1043750D01*
D18*
X237437500Y-4256250D02*
X239887500Y-4256250D01*
D20*
X247137500Y843750D02*
X245887500Y843750D01*
D13*
X221221182Y-4434779D02*
G75*
G02*
X223437500Y-2556250I2151318J-291471D01*
G01*
X217937500Y-856251D02*
G75*
G02*
X220037499Y1043750I2000000J-99999D01*
G01*
D14*
X220821182Y-4034779D02*
G75*
G02*
X223037500Y-2156250I2151318J-291471D01*
G01*
D15*
X218037500Y-1506250D02*
X218037500Y-856250D01*
D16*
X218537500Y-3956250D02*
X218537500Y-2156251D01*
D17*
X219667500Y-456250D02*
X219667500Y-2696250D01*
D18*
X228037500Y-2306250D02*
X226737500Y-2256250D01*
D14*
X227737500Y443750D02*
X227737500Y-2056250D01*
D19*
X226437500Y-756250D02*
X219737500Y-756250D01*
D13*
X228237500Y-2556250D02*
X228237500Y1043750D01*
X228217500Y-1556250D02*
X228217500Y693750D01*
X217937500Y-1606250D02*
X218137500Y-1606250D01*
X218187500Y-6250D02*
X218187500Y-4456250D01*
X217937500Y-856250D02*
X217937500Y-1606250D01*
X218187500Y-4456250D02*
X221217500Y-4456250D01*
X223437500Y-2556250D02*
X228237500Y-2556250D01*
X228237500Y1043750D02*
X220037499Y1043750D01*
D18*
X218387500Y-4256250D02*
X220837500Y-4256250D01*
D20*
X228087500Y843750D02*
X226837500Y843750D01*
D13*
X202171182Y-4434779D02*
G75*
G02*
X204387500Y-2556250I2151318J-291471D01*
G01*
X198887500Y-856251D02*
G75*
G02*
X200987499Y1043750I2000000J-99999D01*
G01*
D14*
X201771182Y-4034779D02*
G75*
G02*
X203987500Y-2156250I2151318J-291471D01*
G01*
D15*
X198987500Y-1506250D02*
X198987500Y-856250D01*
D16*
X199487500Y-3956250D02*
X199487500Y-2156251D01*
D17*
X200617500Y-456250D02*
X200617500Y-2696250D01*
D18*
X208987500Y-2306250D02*
X207687500Y-2256250D01*
D14*
X208687500Y443750D02*
X208687500Y-2056250D01*
D19*
X207387500Y-756250D02*
X200687500Y-756250D01*
D13*
X209187500Y-2556250D02*
X209187500Y1043750D01*
X209167500Y-1556250D02*
X209167500Y693750D01*
X198887500Y-1606250D02*
X199087500Y-1606250D01*
X199137500Y-6250D02*
X199137500Y-4456250D01*
X198887500Y-856250D02*
X198887500Y-1606250D01*
X199137500Y-4456250D02*
X202167500Y-4456250D01*
X204387500Y-2556250D02*
X209187500Y-2556250D01*
X209187500Y1043750D02*
X200987499Y1043750D01*
D18*
X199337500Y-4256250D02*
X201787500Y-4256250D01*
D20*
X209037500Y843750D02*
X207787500Y843750D01*
D13*
X183121182Y-4434779D02*
G75*
G02*
X185337500Y-2556250I2151318J-291471D01*
G01*
X179837500Y-856251D02*
G75*
G02*
X181937499Y1043750I2000000J-99999D01*
G01*
D14*
X182721182Y-4034779D02*
G75*
G02*
X184937500Y-2156250I2151318J-291471D01*
G01*
D15*
X179937500Y-1506250D02*
X179937500Y-856250D01*
D16*
X180437500Y-3956250D02*
X180437500Y-2156251D01*
D17*
X181567500Y-456250D02*
X181567500Y-2696250D01*
D18*
X189937500Y-2306250D02*
X188637500Y-2256250D01*
D14*
X189637500Y443750D02*
X189637500Y-2056250D01*
D19*
X188337500Y-756250D02*
X181637500Y-756250D01*
D13*
X190137500Y-2556250D02*
X190137500Y1043750D01*
X190117500Y-1556250D02*
X190117500Y693750D01*
X179837500Y-1606250D02*
X180037500Y-1606250D01*
X180087500Y-6250D02*
X180087500Y-4456250D01*
X179837500Y-856250D02*
X179837500Y-1606250D01*
X180087500Y-4456250D02*
X183117500Y-4456250D01*
X185337500Y-2556250D02*
X190137500Y-2556250D01*
X190137500Y1043750D02*
X181937499Y1043750D01*
D18*
X180287500Y-4256250D02*
X182737500Y-4256250D01*
D20*
X189987500Y843750D02*
X188737500Y843750D01*
D13*
X164071182Y-4434779D02*
G75*
G02*
X166287500Y-2556250I2151318J-291471D01*
G01*
X160787500Y-856251D02*
G75*
G02*
X162887499Y1043750I2000000J-99999D01*
G01*
D14*
X163671182Y-4034779D02*
G75*
G02*
X165887500Y-2156250I2151318J-291471D01*
G01*
D15*
X160887500Y-1506250D02*
X160887500Y-856250D01*
D16*
X161387500Y-3956250D02*
X161387500Y-2156251D01*
D17*
X162517500Y-456250D02*
X162517500Y-2696250D01*
D18*
X170887500Y-2306250D02*
X169587500Y-2256250D01*
D14*
X170587500Y443750D02*
X170587500Y-2056250D01*
D19*
X169287500Y-756250D02*
X162587500Y-756250D01*
D13*
X171087500Y-2556250D02*
X171087500Y1043750D01*
X171067500Y-1556250D02*
X171067500Y693750D01*
X160787500Y-1606250D02*
X160987500Y-1606250D01*
X161037500Y-6250D02*
X161037500Y-4456250D01*
X160787500Y-856250D02*
X160787500Y-1606250D01*
X161037500Y-4456250D02*
X164067500Y-4456250D01*
X166287500Y-2556250D02*
X171087500Y-2556250D01*
X171087500Y1043750D02*
X162887499Y1043750D01*
D18*
X161237500Y-4256250D02*
X163687500Y-4256250D01*
D20*
X170937500Y843750D02*
X169687500Y843750D01*
D13*
X145021182Y-4434779D02*
G75*
G02*
X147237500Y-2556250I2151318J-291471D01*
G01*
X141737500Y-856251D02*
G75*
G02*
X143837499Y1043750I2000000J-99999D01*
G01*
D14*
X144621182Y-4034779D02*
G75*
G02*
X146837500Y-2156250I2151318J-291471D01*
G01*
D15*
X141837500Y-1506250D02*
X141837500Y-856250D01*
D16*
X142337500Y-3956250D02*
X142337500Y-2156251D01*
D17*
X143467500Y-456250D02*
X143467500Y-2696250D01*
D18*
X151837500Y-2306250D02*
X150537500Y-2256250D01*
D14*
X151537500Y443750D02*
X151537500Y-2056250D01*
D19*
X150237500Y-756250D02*
X143537500Y-756250D01*
D13*
X152037500Y-2556250D02*
X152037500Y1043750D01*
X152017500Y-1556250D02*
X152017500Y693750D01*
X141737500Y-1606250D02*
X141937500Y-1606250D01*
X141987500Y-6250D02*
X141987500Y-4456250D01*
X141737500Y-856250D02*
X141737500Y-1606250D01*
X141987500Y-4456250D02*
X145017500Y-4456250D01*
X147237500Y-2556250D02*
X152037500Y-2556250D01*
X152037500Y1043750D02*
X143837499Y1043750D01*
D18*
X142187500Y-4256250D02*
X144637500Y-4256250D01*
D20*
X151887500Y843750D02*
X150637500Y843750D01*
D13*
X125971182Y-4434779D02*
G75*
G02*
X128187500Y-2556250I2151318J-291471D01*
G01*
X122687500Y-856251D02*
G75*
G02*
X124787499Y1043750I2000000J-99999D01*
G01*
D14*
X125571182Y-4034779D02*
G75*
G02*
X127787500Y-2156250I2151318J-291471D01*
G01*
D15*
X122787500Y-1506250D02*
X122787500Y-856250D01*
D16*
X123287500Y-3956250D02*
X123287500Y-2156251D01*
D17*
X124417500Y-456250D02*
X124417500Y-2696250D01*
D18*
X132787500Y-2306250D02*
X131487500Y-2256250D01*
D14*
X132487500Y443750D02*
X132487500Y-2056250D01*
D19*
X131187500Y-756250D02*
X124487500Y-756250D01*
D13*
X132987500Y-2556250D02*
X132987500Y1043750D01*
X132967500Y-1556250D02*
X132967500Y693750D01*
X122687500Y-1606250D02*
X122887500Y-1606250D01*
X122937500Y-6250D02*
X122937500Y-4456250D01*
X122687500Y-856250D02*
X122687500Y-1606250D01*
X122937500Y-4456250D02*
X125967500Y-4456250D01*
X128187500Y-2556250D02*
X132987500Y-2556250D01*
X132987500Y1043750D02*
X124787499Y1043750D01*
D18*
X123137500Y-4256250D02*
X125587500Y-4256250D01*
D20*
X132837500Y843750D02*
X131587500Y843750D01*
D13*
X106921182Y-4434779D02*
G75*
G02*
X109137500Y-2556250I2151318J-291471D01*
G01*
X103637500Y-856251D02*
G75*
G02*
X105737499Y1043750I2000000J-99999D01*
G01*
D14*
X106521182Y-4034779D02*
G75*
G02*
X108737500Y-2156250I2151318J-291471D01*
G01*
D15*
X103737500Y-1506250D02*
X103737500Y-856250D01*
D16*
X104237500Y-3956250D02*
X104237500Y-2156251D01*
D17*
X105367500Y-456250D02*
X105367500Y-2696250D01*
D18*
X113737500Y-2306250D02*
X112437500Y-2256250D01*
D14*
X113437500Y443750D02*
X113437500Y-2056250D01*
D19*
X112137500Y-756250D02*
X105437500Y-756250D01*
D13*
X113937500Y-2556250D02*
X113937500Y1043750D01*
X113917500Y-1556250D02*
X113917500Y693750D01*
X103637500Y-1606250D02*
X103837500Y-1606250D01*
X103887500Y-6250D02*
X103887500Y-4456250D01*
X103637500Y-856250D02*
X103637500Y-1606250D01*
X103887500Y-4456250D02*
X106917500Y-4456250D01*
X109137500Y-2556250D02*
X113937500Y-2556250D01*
X113937500Y1043750D02*
X105737499Y1043750D01*
D18*
X104087500Y-4256250D02*
X106537500Y-4256250D01*
D20*
X113787500Y843750D02*
X112537500Y843750D01*
D13*
X87871182Y-4434779D02*
G75*
G02*
X90087500Y-2556250I2151318J-291471D01*
G01*
X84587500Y-856251D02*
G75*
G02*
X86687499Y1043750I2000000J-99999D01*
G01*
D14*
X87471182Y-4034779D02*
G75*
G02*
X89687500Y-2156250I2151318J-291471D01*
G01*
D15*
X84687500Y-1506250D02*
X84687500Y-856250D01*
D16*
X85187500Y-3956250D02*
X85187500Y-2156251D01*
D17*
X86317500Y-456250D02*
X86317500Y-2696250D01*
D18*
X94687500Y-2306250D02*
X93387500Y-2256250D01*
D14*
X94387500Y443750D02*
X94387500Y-2056250D01*
D19*
X93087500Y-756250D02*
X86387500Y-756250D01*
D13*
X94887500Y-2556250D02*
X94887500Y1043750D01*
X94867500Y-1556250D02*
X94867500Y693750D01*
X84587500Y-1606250D02*
X84787500Y-1606250D01*
X84837500Y-6250D02*
X84837500Y-4456250D01*
X84587500Y-856250D02*
X84587500Y-1606250D01*
X84837500Y-4456250D02*
X87867500Y-4456250D01*
X90087500Y-2556250D02*
X94887500Y-2556250D01*
X94887500Y1043750D02*
X86687499Y1043750D01*
D18*
X85037500Y-4256250D02*
X87487500Y-4256250D01*
D20*
X94737500Y843750D02*
X93487500Y843750D01*
D13*
X68821182Y-4434779D02*
G75*
G02*
X71037500Y-2556250I2151318J-291471D01*
G01*
X65537500Y-856251D02*
G75*
G02*
X67637499Y1043750I2000000J-99999D01*
G01*
D14*
X68421182Y-4034779D02*
G75*
G02*
X70637500Y-2156250I2151318J-291471D01*
G01*
D15*
X65637500Y-1506250D02*
X65637500Y-856250D01*
D16*
X66137500Y-3956250D02*
X66137500Y-2156251D01*
D17*
X67267500Y-456250D02*
X67267500Y-2696250D01*
D18*
X75637500Y-2306250D02*
X74337500Y-2256250D01*
D14*
X75337500Y443750D02*
X75337500Y-2056250D01*
D19*
X74037500Y-756250D02*
X67337500Y-756250D01*
D13*
X75837500Y-2556250D02*
X75837500Y1043750D01*
X75817500Y-1556250D02*
X75817500Y693750D01*
X65537500Y-1606250D02*
X65737500Y-1606250D01*
X65787500Y-6250D02*
X65787500Y-4456250D01*
X65537500Y-856250D02*
X65537500Y-1606250D01*
X65787500Y-4456250D02*
X68817500Y-4456250D01*
X71037500Y-2556250D02*
X75837500Y-2556250D01*
X75837500Y1043750D02*
X67637499Y1043750D01*
D18*
X65987500Y-4256250D02*
X68437500Y-4256250D01*
D20*
X75687500Y843750D02*
X74437500Y843750D01*
D13*
X49771182Y-4434779D02*
G75*
G02*
X51987500Y-2556250I2151318J-291471D01*
G01*
X46487500Y-856251D02*
G75*
G02*
X48587499Y1043750I2000000J-99999D01*
G01*
D14*
X49371182Y-4034779D02*
G75*
G02*
X51587500Y-2156250I2151318J-291471D01*
G01*
D15*
X46587500Y-1506250D02*
X46587500Y-856250D01*
D16*
X47087500Y-3956250D02*
X47087500Y-2156251D01*
D17*
X48217500Y-456250D02*
X48217500Y-2696250D01*
D18*
X56587500Y-2306250D02*
X55287500Y-2256250D01*
D14*
X56287500Y443750D02*
X56287500Y-2056250D01*
D19*
X54987500Y-756250D02*
X48287500Y-756250D01*
D13*
X56787500Y-2556250D02*
X56787500Y1043750D01*
X56767500Y-1556250D02*
X56767500Y693750D01*
X46487500Y-1606250D02*
X46687500Y-1606250D01*
X46737500Y-6250D02*
X46737500Y-4456250D01*
X46487500Y-856250D02*
X46487500Y-1606250D01*
X46737500Y-4456250D02*
X49767500Y-4456250D01*
X51987500Y-2556250D02*
X56787500Y-2556250D01*
X56787500Y1043750D02*
X48587499Y1043750D01*
D18*
X46937500Y-4256250D02*
X49387500Y-4256250D01*
D20*
X56637500Y843750D02*
X55387500Y843750D01*
D13*
X30721182Y-4434779D02*
G75*
G02*
X32937500Y-2556250I2151318J-291471D01*
G01*
X27437500Y-856251D02*
G75*
G02*
X29537499Y1043750I2000000J-99999D01*
G01*
D14*
X30321182Y-4034779D02*
G75*
G02*
X32537500Y-2156250I2151318J-291471D01*
G01*
D15*
X27537500Y-1506250D02*
X27537500Y-856250D01*
D16*
X28037500Y-3956250D02*
X28037500Y-2156251D01*
D17*
X29167500Y-456250D02*
X29167500Y-2696250D01*
D18*
X37537500Y-2306250D02*
X36237500Y-2256250D01*
D14*
X37237500Y443750D02*
X37237500Y-2056250D01*
D19*
X35937500Y-756250D02*
X29237500Y-756250D01*
D13*
X37737500Y-2556250D02*
X37737500Y1043750D01*
X37717500Y-1556250D02*
X37717500Y693750D01*
X27437500Y-1606250D02*
X27637500Y-1606250D01*
X27687500Y-6250D02*
X27687500Y-4456250D01*
X27437500Y-856250D02*
X27437500Y-1606250D01*
X27687500Y-4456250D02*
X30717500Y-4456250D01*
X32937500Y-2556250D02*
X37737500Y-2556250D01*
X37737500Y1043750D02*
X29537499Y1043750D01*
D18*
X27887500Y-4256250D02*
X30337500Y-4256250D01*
D20*
X37587500Y843750D02*
X36337500Y843750D01*
D13*
X259321182Y14615221D02*
G75*
G02*
X261537500Y16493750I2151318J-291471D01*
G01*
X256037500Y18193749D02*
G75*
G02*
X258137499Y20093750I2000000J-99999D01*
G01*
D14*
X258921182Y15015221D02*
G75*
G02*
X261137500Y16893750I2151318J-291471D01*
G01*
D15*
X256137500Y17543750D02*
X256137500Y18193750D01*
D16*
X256637500Y15093750D02*
X256637500Y16893749D01*
D17*
X257767500Y18593750D02*
X257767500Y16353750D01*
D18*
X266137500Y16743750D02*
X264837500Y16793750D01*
D14*
X265837500Y19493750D02*
X265837500Y16993750D01*
D19*
X264537500Y18293750D02*
X257837500Y18293750D01*
D13*
X266337500Y16493750D02*
X266337500Y20093750D01*
X266317500Y17493750D02*
X266317500Y19743750D01*
X256037500Y17443750D02*
X256237500Y17443750D01*
X256287500Y19043750D02*
X256287500Y14593750D01*
X256037500Y18193750D02*
X256037500Y17443750D01*
X256287500Y14593750D02*
X259317500Y14593750D01*
X261537500Y16493750D02*
X266337500Y16493750D01*
X266337500Y20093750D02*
X258137499Y20093750D01*
D18*
X256487500Y14793750D02*
X258937500Y14793750D01*
D20*
X266187500Y19893750D02*
X264937500Y19893750D01*
D13*
X240271182Y14615221D02*
G75*
G02*
X242487500Y16493750I2151318J-291471D01*
G01*
X236987500Y18193749D02*
G75*
G02*
X239087499Y20093750I2000000J-99999D01*
G01*
D14*
X239871182Y15015221D02*
G75*
G02*
X242087500Y16893750I2151318J-291471D01*
G01*
D15*
X237087500Y17543750D02*
X237087500Y18193750D01*
D16*
X237587500Y15093750D02*
X237587500Y16893749D01*
D17*
X238717500Y18593750D02*
X238717500Y16353750D01*
D18*
X247087500Y16743750D02*
X245787500Y16793750D01*
D14*
X246787500Y19493750D02*
X246787500Y16993750D01*
D19*
X245487500Y18293750D02*
X238787500Y18293750D01*
D13*
X247287500Y16493750D02*
X247287500Y20093750D01*
X247267500Y17493750D02*
X247267500Y19743750D01*
X236987500Y17443750D02*
X237187500Y17443750D01*
X237237500Y19043750D02*
X237237500Y14593750D01*
X236987500Y18193750D02*
X236987500Y17443750D01*
X237237500Y14593750D02*
X240267500Y14593750D01*
X242487500Y16493750D02*
X247287500Y16493750D01*
X247287500Y20093750D02*
X239087499Y20093750D01*
D18*
X237437500Y14793750D02*
X239887500Y14793750D01*
D20*
X247137500Y19893750D02*
X245887500Y19893750D01*
D13*
X221221182Y14615221D02*
G75*
G02*
X223437500Y16493750I2151318J-291471D01*
G01*
X217937500Y18193749D02*
G75*
G02*
X220037499Y20093750I2000000J-99999D01*
G01*
D14*
X220821182Y15015221D02*
G75*
G02*
X223037500Y16893750I2151318J-291471D01*
G01*
D15*
X218037500Y17543750D02*
X218037500Y18193750D01*
D16*
X218537500Y15093750D02*
X218537500Y16893749D01*
D17*
X219667500Y18593750D02*
X219667500Y16353750D01*
D18*
X228037500Y16743750D02*
X226737500Y16793750D01*
D14*
X227737500Y19493750D02*
X227737500Y16993750D01*
D19*
X226437500Y18293750D02*
X219737500Y18293750D01*
D13*
X228237500Y16493750D02*
X228237500Y20093750D01*
X228217500Y17493750D02*
X228217500Y19743750D01*
X217937500Y17443750D02*
X218137500Y17443750D01*
X218187500Y19043750D02*
X218187500Y14593750D01*
X217937500Y18193750D02*
X217937500Y17443750D01*
X218187500Y14593750D02*
X221217500Y14593750D01*
X223437500Y16493750D02*
X228237500Y16493750D01*
X228237500Y20093750D02*
X220037499Y20093750D01*
D18*
X218387500Y14793750D02*
X220837500Y14793750D01*
D20*
X228087500Y19893750D02*
X226837500Y19893750D01*
D13*
X202171182Y14615221D02*
G75*
G02*
X204387500Y16493750I2151318J-291471D01*
G01*
X198887500Y18193749D02*
G75*
G02*
X200987499Y20093750I2000000J-99999D01*
G01*
D14*
X201771182Y15015221D02*
G75*
G02*
X203987500Y16893750I2151318J-291471D01*
G01*
D15*
X198987500Y17543750D02*
X198987500Y18193750D01*
D16*
X199487500Y15093750D02*
X199487500Y16893749D01*
D17*
X200617500Y18593750D02*
X200617500Y16353750D01*
D18*
X208987500Y16743750D02*
X207687500Y16793750D01*
D14*
X208687500Y19493750D02*
X208687500Y16993750D01*
D19*
X207387500Y18293750D02*
X200687500Y18293750D01*
D13*
X209187500Y16493750D02*
X209187500Y20093750D01*
X209167500Y17493750D02*
X209167500Y19743750D01*
X198887500Y17443750D02*
X199087500Y17443750D01*
X199137500Y19043750D02*
X199137500Y14593750D01*
X198887500Y18193750D02*
X198887500Y17443750D01*
X199137500Y14593750D02*
X202167500Y14593750D01*
X204387500Y16493750D02*
X209187500Y16493750D01*
X209187500Y20093750D02*
X200987499Y20093750D01*
D18*
X199337500Y14793750D02*
X201787500Y14793750D01*
D20*
X209037500Y19893750D02*
X207787500Y19893750D01*
D13*
X183121182Y14615221D02*
G75*
G02*
X185337500Y16493750I2151318J-291471D01*
G01*
X179837500Y18193749D02*
G75*
G02*
X181937499Y20093750I2000000J-99999D01*
G01*
D14*
X182721182Y15015221D02*
G75*
G02*
X184937500Y16893750I2151318J-291471D01*
G01*
D15*
X179937500Y17543750D02*
X179937500Y18193750D01*
D16*
X180437500Y15093750D02*
X180437500Y16893749D01*
D17*
X181567500Y18593750D02*
X181567500Y16353750D01*
D18*
X189937500Y16743750D02*
X188637500Y16793750D01*
D14*
X189637500Y19493750D02*
X189637500Y16993750D01*
D19*
X188337500Y18293750D02*
X181637500Y18293750D01*
D13*
X190137500Y16493750D02*
X190137500Y20093750D01*
X190117500Y17493750D02*
X190117500Y19743750D01*
X179837500Y17443750D02*
X180037500Y17443750D01*
X180087500Y19043750D02*
X180087500Y14593750D01*
X179837500Y18193750D02*
X179837500Y17443750D01*
X180087500Y14593750D02*
X183117500Y14593750D01*
X185337500Y16493750D02*
X190137500Y16493750D01*
X190137500Y20093750D02*
X181937499Y20093750D01*
D18*
X180287500Y14793750D02*
X182737500Y14793750D01*
D20*
X189987500Y19893750D02*
X188737500Y19893750D01*
D13*
X164071182Y14615221D02*
G75*
G02*
X166287500Y16493750I2151318J-291471D01*
G01*
X160787500Y18193749D02*
G75*
G02*
X162887499Y20093750I2000000J-99999D01*
G01*
D14*
X163671182Y15015221D02*
G75*
G02*
X165887500Y16893750I2151318J-291471D01*
G01*
D15*
X160887500Y17543750D02*
X160887500Y18193750D01*
D16*
X161387500Y15093750D02*
X161387500Y16893749D01*
D17*
X162517500Y18593750D02*
X162517500Y16353750D01*
D18*
X170887500Y16743750D02*
X169587500Y16793750D01*
D14*
X170587500Y19493750D02*
X170587500Y16993750D01*
D19*
X169287500Y18293750D02*
X162587500Y18293750D01*
D13*
X171087500Y16493750D02*
X171087500Y20093750D01*
X171067500Y17493750D02*
X171067500Y19743750D01*
X160787500Y17443750D02*
X160987500Y17443750D01*
X161037500Y19043750D02*
X161037500Y14593750D01*
X160787500Y18193750D02*
X160787500Y17443750D01*
X161037500Y14593750D02*
X164067500Y14593750D01*
X166287500Y16493750D02*
X171087500Y16493750D01*
X171087500Y20093750D02*
X162887499Y20093750D01*
D18*
X161237500Y14793750D02*
X163687500Y14793750D01*
D20*
X170937500Y19893750D02*
X169687500Y19893750D01*
D13*
X145021182Y14615221D02*
G75*
G02*
X147237500Y16493750I2151318J-291471D01*
G01*
X141737500Y18193749D02*
G75*
G02*
X143837499Y20093750I2000000J-99999D01*
G01*
D14*
X144621182Y15015221D02*
G75*
G02*
X146837500Y16893750I2151318J-291471D01*
G01*
D15*
X141837500Y17543750D02*
X141837500Y18193750D01*
D16*
X142337500Y15093750D02*
X142337500Y16893749D01*
D17*
X143467500Y18593750D02*
X143467500Y16353750D01*
D18*
X151837500Y16743750D02*
X150537500Y16793750D01*
D14*
X151537500Y19493750D02*
X151537500Y16993750D01*
D19*
X150237500Y18293750D02*
X143537500Y18293750D01*
D13*
X152037500Y16493750D02*
X152037500Y20093750D01*
X152017500Y17493750D02*
X152017500Y19743750D01*
X141737500Y17443750D02*
X141937500Y17443750D01*
X141987500Y19043750D02*
X141987500Y14593750D01*
X141737500Y18193750D02*
X141737500Y17443750D01*
X141987500Y14593750D02*
X145017500Y14593750D01*
X147237500Y16493750D02*
X152037500Y16493750D01*
X152037500Y20093750D02*
X143837499Y20093750D01*
D18*
X142187500Y14793750D02*
X144637500Y14793750D01*
D20*
X151887500Y19893750D02*
X150637500Y19893750D01*
D13*
X125971182Y14615221D02*
G75*
G02*
X128187500Y16493750I2151318J-291471D01*
G01*
X122687500Y18193749D02*
G75*
G02*
X124787499Y20093750I2000000J-99999D01*
G01*
D14*
X125571182Y15015221D02*
G75*
G02*
X127787500Y16893750I2151318J-291471D01*
G01*
D15*
X122787500Y17543750D02*
X122787500Y18193750D01*
D16*
X123287500Y15093750D02*
X123287500Y16893749D01*
D17*
X124417500Y18593750D02*
X124417500Y16353750D01*
D18*
X132787500Y16743750D02*
X131487500Y16793750D01*
D14*
X132487500Y19493750D02*
X132487500Y16993750D01*
D19*
X131187500Y18293750D02*
X124487500Y18293750D01*
D13*
X132987500Y16493750D02*
X132987500Y20093750D01*
X132967500Y17493750D02*
X132967500Y19743750D01*
X122687500Y17443750D02*
X122887500Y17443750D01*
X122937500Y19043750D02*
X122937500Y14593750D01*
X122687500Y18193750D02*
X122687500Y17443750D01*
X122937500Y14593750D02*
X125967500Y14593750D01*
X128187500Y16493750D02*
X132987500Y16493750D01*
X132987500Y20093750D02*
X124787499Y20093750D01*
D18*
X123137500Y14793750D02*
X125587500Y14793750D01*
D20*
X132837500Y19893750D02*
X131587500Y19893750D01*
D13*
X106921182Y14615221D02*
G75*
G02*
X109137500Y16493750I2151318J-291471D01*
G01*
X103637500Y18193749D02*
G75*
G02*
X105737499Y20093750I2000000J-99999D01*
G01*
D14*
X106521182Y15015221D02*
G75*
G02*
X108737500Y16893750I2151318J-291471D01*
G01*
D15*
X103737500Y17543750D02*
X103737500Y18193750D01*
D16*
X104237500Y15093750D02*
X104237500Y16893749D01*
D17*
X105367500Y18593750D02*
X105367500Y16353750D01*
D18*
X113737500Y16743750D02*
X112437500Y16793750D01*
D14*
X113437500Y19493750D02*
X113437500Y16993750D01*
D19*
X112137500Y18293750D02*
X105437500Y18293750D01*
D13*
X113937500Y16493750D02*
X113937500Y20093750D01*
X113917500Y17493750D02*
X113917500Y19743750D01*
X103637500Y17443750D02*
X103837500Y17443750D01*
X103887500Y19043750D02*
X103887500Y14593750D01*
X103637500Y18193750D02*
X103637500Y17443750D01*
X103887500Y14593750D02*
X106917500Y14593750D01*
X109137500Y16493750D02*
X113937500Y16493750D01*
X113937500Y20093750D02*
X105737499Y20093750D01*
D18*
X104087500Y14793750D02*
X106537500Y14793750D01*
D20*
X113787500Y19893750D02*
X112537500Y19893750D01*
D13*
X87871182Y14615221D02*
G75*
G02*
X90087500Y16493750I2151318J-291471D01*
G01*
X84587500Y18193749D02*
G75*
G02*
X86687499Y20093750I2000000J-99999D01*
G01*
D14*
X87471182Y15015221D02*
G75*
G02*
X89687500Y16893750I2151318J-291471D01*
G01*
D15*
X84687500Y17543750D02*
X84687500Y18193750D01*
D16*
X85187500Y15093750D02*
X85187500Y16893749D01*
D17*
X86317500Y18593750D02*
X86317500Y16353750D01*
D18*
X94687500Y16743750D02*
X93387500Y16793750D01*
D14*
X94387500Y19493750D02*
X94387500Y16993750D01*
D19*
X93087500Y18293750D02*
X86387500Y18293750D01*
D13*
X94887500Y16493750D02*
X94887500Y20093750D01*
X94867500Y17493750D02*
X94867500Y19743750D01*
X84587500Y17443750D02*
X84787500Y17443750D01*
X84837500Y19043750D02*
X84837500Y14593750D01*
X84587500Y18193750D02*
X84587500Y17443750D01*
X84837500Y14593750D02*
X87867500Y14593750D01*
X90087500Y16493750D02*
X94887500Y16493750D01*
X94887500Y20093750D02*
X86687499Y20093750D01*
D18*
X85037500Y14793750D02*
X87487500Y14793750D01*
D20*
X94737500Y19893750D02*
X93487500Y19893750D01*
D13*
X68821182Y14615221D02*
G75*
G02*
X71037500Y16493750I2151318J-291471D01*
G01*
X65537500Y18193749D02*
G75*
G02*
X67637499Y20093750I2000000J-99999D01*
G01*
D14*
X68421182Y15015221D02*
G75*
G02*
X70637500Y16893750I2151318J-291471D01*
G01*
D15*
X65637500Y17543750D02*
X65637500Y18193750D01*
D16*
X66137500Y15093750D02*
X66137500Y16893749D01*
D17*
X67267500Y18593750D02*
X67267500Y16353750D01*
D18*
X75637500Y16743750D02*
X74337500Y16793750D01*
D14*
X75337500Y19493750D02*
X75337500Y16993750D01*
D19*
X74037500Y18293750D02*
X67337500Y18293750D01*
D13*
X75837500Y16493750D02*
X75837500Y20093750D01*
X75817500Y17493750D02*
X75817500Y19743750D01*
X65537500Y17443750D02*
X65737500Y17443750D01*
X65787500Y19043750D02*
X65787500Y14593750D01*
X65537500Y18193750D02*
X65537500Y17443750D01*
X65787500Y14593750D02*
X68817500Y14593750D01*
X71037500Y16493750D02*
X75837500Y16493750D01*
X75837500Y20093750D02*
X67637499Y20093750D01*
D18*
X65987500Y14793750D02*
X68437500Y14793750D01*
D20*
X75687500Y19893750D02*
X74437500Y19893750D01*
D13*
X49771182Y14615221D02*
G75*
G02*
X51987500Y16493750I2151318J-291471D01*
G01*
X46487500Y18193749D02*
G75*
G02*
X48587499Y20093750I2000000J-99999D01*
G01*
D14*
X49371182Y15015221D02*
G75*
G02*
X51587500Y16893750I2151318J-291471D01*
G01*
D15*
X46587500Y17543750D02*
X46587500Y18193750D01*
D16*
X47087500Y15093750D02*
X47087500Y16893749D01*
D17*
X48217500Y18593750D02*
X48217500Y16353750D01*
D18*
X56587500Y16743750D02*
X55287500Y16793750D01*
D14*
X56287500Y19493750D02*
X56287500Y16993750D01*
D19*
X54987500Y18293750D02*
X48287500Y18293750D01*
D13*
X56787500Y16493750D02*
X56787500Y20093750D01*
X56767500Y17493750D02*
X56767500Y19743750D01*
X46487500Y17443750D02*
X46687500Y17443750D01*
X46737500Y19043750D02*
X46737500Y14593750D01*
X46487500Y18193750D02*
X46487500Y17443750D01*
X46737500Y14593750D02*
X49767500Y14593750D01*
X51987500Y16493750D02*
X56787500Y16493750D01*
X56787500Y20093750D02*
X48587499Y20093750D01*
D18*
X46937500Y14793750D02*
X49387500Y14793750D01*
D20*
X56637500Y19893750D02*
X55387500Y19893750D01*
D13*
X26881250Y-47095000D02*
X26881250Y-50695000D01*
X26881250Y-50695000D02*
X27381250Y-51195000D01*
X27381250Y-51195000D02*
X28181250Y-51195000D01*
X28181250Y-51195000D02*
X28681250Y-50695000D01*
X28681250Y-50695000D02*
X28681250Y-47095000D01*
X28681250Y-47095000D02*
X28181250Y-46595000D01*
X28181250Y-46595000D02*
X27381250Y-46595000D01*
X27381250Y-46595000D02*
X26881250Y-47095000D01*
X270375000Y-64000000D02*
X269375000Y-64000000D01*
X269875000Y-63900000D02*
X270375000Y-63000000D01*
X269375000Y-63000000D02*
X269875000Y-63900000D01*
X270375000Y-63000000D02*
X269375000Y-63000000D01*
X270625000Y-60800000D02*
X269125000Y-60800000D01*
X270625000Y-66200000D02*
X269125000Y-66200000D01*
X270625000Y-60800000D02*
X270625000Y-66200000D01*
X269125000Y-66200000D02*
X269125000Y-60800000D01*
X251325000Y-64000000D02*
X250325000Y-64000000D01*
X250825000Y-63900000D02*
X251325000Y-63000000D01*
X250325000Y-63000000D02*
X250825000Y-63900000D01*
X251325000Y-63000000D02*
X250325000Y-63000000D01*
X251575000Y-60800000D02*
X250075000Y-60800000D01*
X251575000Y-66200000D02*
X250075000Y-66200000D01*
X251575000Y-60800000D02*
X251575000Y-66200000D01*
X250075000Y-66200000D02*
X250075000Y-60800000D01*
X232275000Y-64000000D02*
X231275000Y-64000000D01*
X231775000Y-63900000D02*
X232275000Y-63000000D01*
X231275000Y-63000000D02*
X231775000Y-63900000D01*
X232275000Y-63000000D02*
X231275000Y-63000000D01*
X232525000Y-60800000D02*
X231025000Y-60800000D01*
X232525000Y-66200000D02*
X231025000Y-66200000D01*
X232525000Y-60800000D02*
X232525000Y-66200000D01*
X231025000Y-66200000D02*
X231025000Y-60800000D01*
X213225000Y-64000000D02*
X212225000Y-64000000D01*
X212725000Y-63900000D02*
X213225000Y-63000000D01*
X212225000Y-63000000D02*
X212725000Y-63900000D01*
X213225000Y-63000000D02*
X212225000Y-63000000D01*
X213475000Y-60800000D02*
X211975000Y-60800000D01*
X213475000Y-66200000D02*
X211975000Y-66200000D01*
X213475000Y-60800000D02*
X213475000Y-66200000D01*
X211975000Y-66200000D02*
X211975000Y-60800000D01*
X194175000Y-64000000D02*
X193175000Y-64000000D01*
X193675000Y-63900000D02*
X194175000Y-63000000D01*
X193175000Y-63000000D02*
X193675000Y-63900000D01*
X194175000Y-63000000D02*
X193175000Y-63000000D01*
X194425000Y-60800000D02*
X192925000Y-60800000D01*
X194425000Y-66200000D02*
X192925000Y-66200000D01*
X194425000Y-60800000D02*
X194425000Y-66200000D01*
X192925000Y-66200000D02*
X192925000Y-60800000D01*
X165600000Y-64000000D02*
X164600000Y-64000000D01*
X165100000Y-63900000D02*
X165600000Y-63000000D01*
X164600000Y-63000000D02*
X165100000Y-63900000D01*
X165600000Y-63000000D02*
X164600000Y-63000000D01*
X165850000Y-60800000D02*
X164350000Y-60800000D01*
X165850000Y-66200000D02*
X164350000Y-66200000D01*
X165850000Y-60800000D02*
X165850000Y-66200000D01*
X164350000Y-66200000D02*
X164350000Y-60800000D01*
X137025000Y-64000000D02*
X136025000Y-64000000D01*
X136525000Y-63900000D02*
X137025000Y-63000000D01*
X136025000Y-63000000D02*
X136525000Y-63900000D01*
X137025000Y-63000000D02*
X136025000Y-63000000D01*
X137275000Y-60800000D02*
X135775000Y-60800000D01*
X137275000Y-66200000D02*
X135775000Y-66200000D01*
X137275000Y-60800000D02*
X137275000Y-66200000D01*
X135775000Y-66200000D02*
X135775000Y-60800000D01*
X108450000Y-64000000D02*
X107450000Y-64000000D01*
X107950000Y-63900000D02*
X108450000Y-63000000D01*
X107450000Y-63000000D02*
X107950000Y-63900000D01*
X108450000Y-63000000D02*
X107450000Y-63000000D01*
X108700000Y-60800000D02*
X107200000Y-60800000D01*
X108700000Y-66200000D02*
X107200000Y-66200000D01*
X108700000Y-60800000D02*
X108700000Y-66200000D01*
X107200000Y-66200000D02*
X107200000Y-60800000D01*
X79646250Y-64000000D02*
X78646250Y-64000000D01*
X79146250Y-63900000D02*
X79646250Y-63000000D01*
X78646250Y-63000000D02*
X79146250Y-63900000D01*
X79646250Y-63000000D02*
X78646250Y-63000000D01*
X79896250Y-60800000D02*
X78396250Y-60800000D01*
X79896250Y-66200000D02*
X78396250Y-66200000D01*
X79896250Y-60800000D02*
X79896250Y-66200000D01*
X78396250Y-66200000D02*
X78396250Y-60800000D01*
X60825000Y-64000000D02*
X59825000Y-64000000D01*
X60325000Y-63900000D02*
X60825000Y-63000000D01*
X59825000Y-63000000D02*
X60325000Y-63900000D01*
X60825000Y-63000000D02*
X59825000Y-63000000D01*
X61075000Y-60800000D02*
X59575000Y-60800000D01*
X61075000Y-66200000D02*
X59575000Y-66200000D01*
X61075000Y-60800000D02*
X61075000Y-66200000D01*
X59575000Y-66200000D02*
X59575000Y-60800000D01*
X270375000Y-44950000D02*
X269375000Y-44950000D01*
X269875000Y-44850000D02*
X270375000Y-43950000D01*
X269375000Y-43950000D02*
X269875000Y-44850000D01*
X270375000Y-43950000D02*
X269375000Y-43950000D01*
X270625000Y-41750000D02*
X269125000Y-41750000D01*
X270625000Y-47150000D02*
X269125000Y-47150000D01*
X270625000Y-41750000D02*
X270625000Y-47150000D01*
X269125000Y-47150000D02*
X269125000Y-41750000D01*
X251325000Y-44950000D02*
X250325000Y-44950000D01*
X250825000Y-44850000D02*
X251325000Y-43950000D01*
X250325000Y-43950000D02*
X250825000Y-44850000D01*
X251325000Y-43950000D02*
X250325000Y-43950000D01*
X251575000Y-41750000D02*
X250075000Y-41750000D01*
X251575000Y-47150000D02*
X250075000Y-47150000D01*
X251575000Y-41750000D02*
X251575000Y-47150000D01*
X250075000Y-47150000D02*
X250075000Y-41750000D01*
X232275000Y-44950000D02*
X231275000Y-44950000D01*
X231775000Y-44850000D02*
X232275000Y-43950000D01*
X231275000Y-43950000D02*
X231775000Y-44850000D01*
X232275000Y-43950000D02*
X231275000Y-43950000D01*
X232525000Y-41750000D02*
X231025000Y-41750000D01*
X232525000Y-47150000D02*
X231025000Y-47150000D01*
X232525000Y-41750000D02*
X232525000Y-47150000D01*
X231025000Y-47150000D02*
X231025000Y-41750000D01*
X213225000Y-44950000D02*
X212225000Y-44950000D01*
X212725000Y-44850000D02*
X213225000Y-43950000D01*
X212225000Y-43950000D02*
X212725000Y-44850000D01*
X213225000Y-43950000D02*
X212225000Y-43950000D01*
X213475000Y-41750000D02*
X211975000Y-41750000D01*
X213475000Y-47150000D02*
X211975000Y-47150000D01*
X213475000Y-41750000D02*
X213475000Y-47150000D01*
X211975000Y-47150000D02*
X211975000Y-41750000D01*
X194175000Y-44950000D02*
X193175000Y-44950000D01*
X193675000Y-44850000D02*
X194175000Y-43950000D01*
X193175000Y-43950000D02*
X193675000Y-44850000D01*
X194175000Y-43950000D02*
X193175000Y-43950000D01*
X194425000Y-41750000D02*
X192925000Y-41750000D01*
X194425000Y-47150000D02*
X192925000Y-47150000D01*
X194425000Y-41750000D02*
X194425000Y-47150000D01*
X192925000Y-47150000D02*
X192925000Y-41750000D01*
X175125000Y-44950000D02*
X174125000Y-44950000D01*
X174625000Y-44850000D02*
X175125000Y-43950000D01*
X174125000Y-43950000D02*
X174625000Y-44850000D01*
X175125000Y-43950000D02*
X174125000Y-43950000D01*
X175375000Y-41750000D02*
X173875000Y-41750000D01*
X175375000Y-47150000D02*
X173875000Y-47150000D01*
X175375000Y-41750000D02*
X175375000Y-47150000D01*
X173875000Y-47150000D02*
X173875000Y-41750000D01*
X156075000Y-44950000D02*
X155075000Y-44950000D01*
X155575000Y-44850000D02*
X156075000Y-43950000D01*
X155075000Y-43950000D02*
X155575000Y-44850000D01*
X156075000Y-43950000D02*
X155075000Y-43950000D01*
X156325000Y-41750000D02*
X154825000Y-41750000D01*
X156325000Y-47150000D02*
X154825000Y-47150000D01*
X156325000Y-41750000D02*
X156325000Y-47150000D01*
X154825000Y-47150000D02*
X154825000Y-41750000D01*
X137025000Y-44950000D02*
X136025000Y-44950000D01*
X136525000Y-44850000D02*
X137025000Y-43950000D01*
X136025000Y-43950000D02*
X136525000Y-44850000D01*
X137025000Y-43950000D02*
X136025000Y-43950000D01*
X137275000Y-41750000D02*
X135775000Y-41750000D01*
X137275000Y-47150000D02*
X135775000Y-47150000D01*
X137275000Y-41750000D02*
X137275000Y-47150000D01*
X135775000Y-47150000D02*
X135775000Y-41750000D01*
X117975000Y-44950000D02*
X116975000Y-44950000D01*
X117475000Y-44850000D02*
X117975000Y-43950000D01*
X116975000Y-43950000D02*
X117475000Y-44850000D01*
X117975000Y-43950000D02*
X116975000Y-43950000D01*
X118225000Y-41750000D02*
X116725000Y-41750000D01*
X118225000Y-47150000D02*
X116725000Y-47150000D01*
X118225000Y-41750000D02*
X118225000Y-47150000D01*
X116725000Y-47150000D02*
X116725000Y-41750000D01*
X98925000Y-44950000D02*
X97925000Y-44950000D01*
X98425000Y-44850000D02*
X98925000Y-43950000D01*
X97925000Y-43950000D02*
X98425000Y-44850000D01*
X98925000Y-43950000D02*
X97925000Y-43950000D01*
X99175000Y-41750000D02*
X97675000Y-41750000D01*
X99175000Y-47150000D02*
X97675000Y-47150000D01*
X99175000Y-41750000D02*
X99175000Y-47150000D01*
X97675000Y-47150000D02*
X97675000Y-41750000D01*
X79875000Y-44950000D02*
X78875000Y-44950000D01*
X79375000Y-44850000D02*
X79875000Y-43950000D01*
X78875000Y-43950000D02*
X79375000Y-44850000D01*
X79875000Y-43950000D02*
X78875000Y-43950000D01*
X80125000Y-41750000D02*
X78625000Y-41750000D01*
X80125000Y-47150000D02*
X78625000Y-47150000D01*
X80125000Y-41750000D02*
X80125000Y-47150000D01*
X78625000Y-47150000D02*
X78625000Y-41750000D01*
X60825000Y-44950000D02*
X59825000Y-44950000D01*
X60325000Y-44850000D02*
X60825000Y-43950000D01*
X59825000Y-43950000D02*
X60325000Y-44850000D01*
X60825000Y-43950000D02*
X59825000Y-43950000D01*
X61075000Y-41750000D02*
X59575000Y-41750000D01*
X61075000Y-47150000D02*
X59575000Y-47150000D01*
X61075000Y-41750000D02*
X61075000Y-47150000D01*
X59575000Y-47150000D02*
X59575000Y-41750000D01*
X41775000Y-44950000D02*
X40775000Y-44950000D01*
X41275000Y-44850000D02*
X41775000Y-43950000D01*
X40775000Y-43950000D02*
X41275000Y-44850000D01*
X41775000Y-43950000D02*
X40775000Y-43950000D01*
X42025000Y-41750000D02*
X40525000Y-41750000D01*
X42025000Y-47150000D02*
X40525000Y-47150000D01*
X42025000Y-41750000D02*
X42025000Y-47150000D01*
X40525000Y-47150000D02*
X40525000Y-41750000D01*
X270375000Y-25900000D02*
X269375000Y-25900000D01*
X269875000Y-25800000D02*
X270375000Y-24900000D01*
X269375000Y-24900000D02*
X269875000Y-25800000D01*
X270375000Y-24900000D02*
X269375000Y-24900000D01*
X270625000Y-22700000D02*
X269125000Y-22700000D01*
X270625000Y-28100000D02*
X269125000Y-28100000D01*
X270625000Y-22700000D02*
X270625000Y-28100000D01*
X269125000Y-28100000D02*
X269125000Y-22700000D01*
X251325000Y-25900000D02*
X250325000Y-25900000D01*
X250825000Y-25800000D02*
X251325000Y-24900000D01*
X250325000Y-24900000D02*
X250825000Y-25800000D01*
X251325000Y-24900000D02*
X250325000Y-24900000D01*
X251575000Y-22700000D02*
X250075000Y-22700000D01*
X251575000Y-28100000D02*
X250075000Y-28100000D01*
X251575000Y-22700000D02*
X251575000Y-28100000D01*
X250075000Y-28100000D02*
X250075000Y-22700000D01*
X232275000Y-25900000D02*
X231275000Y-25900000D01*
X231775000Y-25800000D02*
X232275000Y-24900000D01*
X231275000Y-24900000D02*
X231775000Y-25800000D01*
X232275000Y-24900000D02*
X231275000Y-24900000D01*
X232525000Y-22700000D02*
X231025000Y-22700000D01*
X232525000Y-28100000D02*
X231025000Y-28100000D01*
X232525000Y-22700000D02*
X232525000Y-28100000D01*
X231025000Y-28100000D02*
X231025000Y-22700000D01*
X213225000Y-25900000D02*
X212225000Y-25900000D01*
X212725000Y-25800000D02*
X213225000Y-24900000D01*
X212225000Y-24900000D02*
X212725000Y-25800000D01*
X213225000Y-24900000D02*
X212225000Y-24900000D01*
X213475000Y-22700000D02*
X211975000Y-22700000D01*
X213475000Y-28100000D02*
X211975000Y-28100000D01*
X213475000Y-22700000D02*
X213475000Y-28100000D01*
X211975000Y-28100000D02*
X211975000Y-22700000D01*
X194175000Y-25900000D02*
X193175000Y-25900000D01*
X193675000Y-25800000D02*
X194175000Y-24900000D01*
X193175000Y-24900000D02*
X193675000Y-25800000D01*
X194175000Y-24900000D02*
X193175000Y-24900000D01*
X194425000Y-22700000D02*
X192925000Y-22700000D01*
X194425000Y-28100000D02*
X192925000Y-28100000D01*
X194425000Y-22700000D02*
X194425000Y-28100000D01*
X192925000Y-28100000D02*
X192925000Y-22700000D01*
X175125000Y-25900000D02*
X174125000Y-25900000D01*
X174625000Y-25800000D02*
X175125000Y-24900000D01*
X174125000Y-24900000D02*
X174625000Y-25800000D01*
X175125000Y-24900000D02*
X174125000Y-24900000D01*
X175375000Y-22700000D02*
X173875000Y-22700000D01*
X175375000Y-28100000D02*
X173875000Y-28100000D01*
X175375000Y-22700000D02*
X175375000Y-28100000D01*
X173875000Y-28100000D02*
X173875000Y-22700000D01*
X156075000Y-25900000D02*
X155075000Y-25900000D01*
X155575000Y-25800000D02*
X156075000Y-24900000D01*
X155075000Y-24900000D02*
X155575000Y-25800000D01*
X156075000Y-24900000D02*
X155075000Y-24900000D01*
X156325000Y-22700000D02*
X154825000Y-22700000D01*
X156325000Y-28100000D02*
X154825000Y-28100000D01*
X156325000Y-22700000D02*
X156325000Y-28100000D01*
X154825000Y-28100000D02*
X154825000Y-22700000D01*
X137025000Y-25900000D02*
X136025000Y-25900000D01*
X136525000Y-25800000D02*
X137025000Y-24900000D01*
X136025000Y-24900000D02*
X136525000Y-25800000D01*
X137025000Y-24900000D02*
X136025000Y-24900000D01*
X137275000Y-22700000D02*
X135775000Y-22700000D01*
X137275000Y-28100000D02*
X135775000Y-28100000D01*
X137275000Y-22700000D02*
X137275000Y-28100000D01*
X135775000Y-28100000D02*
X135775000Y-22700000D01*
X117975000Y-25900000D02*
X116975000Y-25900000D01*
X117475000Y-25800000D02*
X117975000Y-24900000D01*
X116975000Y-24900000D02*
X117475000Y-25800000D01*
X117975000Y-24900000D02*
X116975000Y-24900000D01*
X118225000Y-22700000D02*
X116725000Y-22700000D01*
X118225000Y-28100000D02*
X116725000Y-28100000D01*
X118225000Y-22700000D02*
X118225000Y-28100000D01*
X116725000Y-28100000D02*
X116725000Y-22700000D01*
X98925000Y-25900000D02*
X97925000Y-25900000D01*
X98425000Y-25800000D02*
X98925000Y-24900000D01*
X97925000Y-24900000D02*
X98425000Y-25800000D01*
X98925000Y-24900000D02*
X97925000Y-24900000D01*
X99175000Y-22700000D02*
X97675000Y-22700000D01*
X99175000Y-28100000D02*
X97675000Y-28100000D01*
X99175000Y-22700000D02*
X99175000Y-28100000D01*
X97675000Y-28100000D02*
X97675000Y-22700000D01*
X79875000Y-25900000D02*
X78875000Y-25900000D01*
X79375000Y-25800000D02*
X79875000Y-24900000D01*
X78875000Y-24900000D02*
X79375000Y-25800000D01*
X79875000Y-24900000D02*
X78875000Y-24900000D01*
X80125000Y-22700000D02*
X78625000Y-22700000D01*
X80125000Y-28100000D02*
X78625000Y-28100000D01*
X80125000Y-22700000D02*
X80125000Y-28100000D01*
X78625000Y-28100000D02*
X78625000Y-22700000D01*
X60825000Y-25900000D02*
X59825000Y-25900000D01*
X60325000Y-25800000D02*
X60825000Y-24900000D01*
X59825000Y-24900000D02*
X60325000Y-25800000D01*
X60825000Y-24900000D02*
X59825000Y-24900000D01*
X61075000Y-22700000D02*
X59575000Y-22700000D01*
X61075000Y-28100000D02*
X59575000Y-28100000D01*
X61075000Y-22700000D02*
X61075000Y-28100000D01*
X59575000Y-28100000D02*
X59575000Y-22700000D01*
X41775000Y-25900000D02*
X40775000Y-25900000D01*
X41275000Y-25800000D02*
X41775000Y-24900000D01*
X40775000Y-24900000D02*
X41275000Y-25800000D01*
X41775000Y-24900000D02*
X40775000Y-24900000D01*
X42025000Y-22700000D02*
X40525000Y-22700000D01*
X42025000Y-28100000D02*
X40525000Y-28100000D01*
X42025000Y-22700000D02*
X42025000Y-28100000D01*
X40525000Y-28100000D02*
X40525000Y-22700000D01*
X270375000Y-6850000D02*
X269375000Y-6850000D01*
X269875000Y-6750000D02*
X270375000Y-5850000D01*
X269375000Y-5850000D02*
X269875000Y-6750000D01*
X270375000Y-5850000D02*
X269375000Y-5850000D01*
X270625000Y-3650000D02*
X269125000Y-3650000D01*
X270625000Y-9050000D02*
X269125000Y-9050000D01*
X270625000Y-3650000D02*
X270625000Y-9050000D01*
X269125000Y-9050000D02*
X269125000Y-3650000D01*
X251325000Y-6850000D02*
X250325000Y-6850000D01*
X250825000Y-6750000D02*
X251325000Y-5850000D01*
X250325000Y-5850000D02*
X250825000Y-6750000D01*
X251325000Y-5850000D02*
X250325000Y-5850000D01*
X251575000Y-3650000D02*
X250075000Y-3650000D01*
X251575000Y-9050000D02*
X250075000Y-9050000D01*
X251575000Y-3650000D02*
X251575000Y-9050000D01*
X250075000Y-9050000D02*
X250075000Y-3650000D01*
X232275000Y-6850000D02*
X231275000Y-6850000D01*
X231775000Y-6750000D02*
X232275000Y-5850000D01*
X231275000Y-5850000D02*
X231775000Y-6750000D01*
X232275000Y-5850000D02*
X231275000Y-5850000D01*
X232525000Y-3650000D02*
X231025000Y-3650000D01*
X232525000Y-9050000D02*
X231025000Y-9050000D01*
X232525000Y-3650000D02*
X232525000Y-9050000D01*
X231025000Y-9050000D02*
X231025000Y-3650000D01*
X213225000Y-6850000D02*
X212225000Y-6850000D01*
X212725000Y-6750000D02*
X213225000Y-5850000D01*
X212225000Y-5850000D02*
X212725000Y-6750000D01*
X213225000Y-5850000D02*
X212225000Y-5850000D01*
X213475000Y-3650000D02*
X211975000Y-3650000D01*
X213475000Y-9050000D02*
X211975000Y-9050000D01*
X213475000Y-3650000D02*
X213475000Y-9050000D01*
X211975000Y-9050000D02*
X211975000Y-3650000D01*
X194175000Y-6850000D02*
X193175000Y-6850000D01*
X193675000Y-6750000D02*
X194175000Y-5850000D01*
X193175000Y-5850000D02*
X193675000Y-6750000D01*
X194175000Y-5850000D02*
X193175000Y-5850000D01*
X194425000Y-3650000D02*
X192925000Y-3650000D01*
X194425000Y-9050000D02*
X192925000Y-9050000D01*
X194425000Y-3650000D02*
X194425000Y-9050000D01*
X192925000Y-9050000D02*
X192925000Y-3650000D01*
X175125000Y-6850000D02*
X174125000Y-6850000D01*
X174625000Y-6750000D02*
X175125000Y-5850000D01*
X174125000Y-5850000D02*
X174625000Y-6750000D01*
X175125000Y-5850000D02*
X174125000Y-5850000D01*
X175375000Y-3650000D02*
X173875000Y-3650000D01*
X175375000Y-9050000D02*
X173875000Y-9050000D01*
X175375000Y-3650000D02*
X175375000Y-9050000D01*
X173875000Y-9050000D02*
X173875000Y-3650000D01*
X156075000Y-6850000D02*
X155075000Y-6850000D01*
X155575000Y-6750000D02*
X156075000Y-5850000D01*
X155075000Y-5850000D02*
X155575000Y-6750000D01*
X156075000Y-5850000D02*
X155075000Y-5850000D01*
X156325000Y-3650000D02*
X154825000Y-3650000D01*
X156325000Y-9050000D02*
X154825000Y-9050000D01*
X156325000Y-3650000D02*
X156325000Y-9050000D01*
X154825000Y-9050000D02*
X154825000Y-3650000D01*
X137025000Y-6850000D02*
X136025000Y-6850000D01*
X136525000Y-6750000D02*
X137025000Y-5850000D01*
X136025000Y-5850000D02*
X136525000Y-6750000D01*
X137025000Y-5850000D02*
X136025000Y-5850000D01*
X137275000Y-3650000D02*
X135775000Y-3650000D01*
X137275000Y-9050000D02*
X135775000Y-9050000D01*
X137275000Y-3650000D02*
X137275000Y-9050000D01*
X135775000Y-9050000D02*
X135775000Y-3650000D01*
X117975000Y-6850000D02*
X116975000Y-6850000D01*
X117475000Y-6750000D02*
X117975000Y-5850000D01*
X116975000Y-5850000D02*
X117475000Y-6750000D01*
X117975000Y-5850000D02*
X116975000Y-5850000D01*
X118225000Y-3650000D02*
X116725000Y-3650000D01*
X118225000Y-9050000D02*
X116725000Y-9050000D01*
X118225000Y-3650000D02*
X118225000Y-9050000D01*
X116725000Y-9050000D02*
X116725000Y-3650000D01*
X98925000Y-6850000D02*
X97925000Y-6850000D01*
X98425000Y-6750000D02*
X98925000Y-5850000D01*
X97925000Y-5850000D02*
X98425000Y-6750000D01*
X98925000Y-5850000D02*
X97925000Y-5850000D01*
X99175000Y-3650000D02*
X97675000Y-3650000D01*
X99175000Y-9050000D02*
X97675000Y-9050000D01*
X99175000Y-3650000D02*
X99175000Y-9050000D01*
X97675000Y-9050000D02*
X97675000Y-3650000D01*
X79875000Y-6850000D02*
X78875000Y-6850000D01*
X79375000Y-6750000D02*
X79875000Y-5850000D01*
X78875000Y-5850000D02*
X79375000Y-6750000D01*
X79875000Y-5850000D02*
X78875000Y-5850000D01*
X80125000Y-3650000D02*
X78625000Y-3650000D01*
X80125000Y-9050000D02*
X78625000Y-9050000D01*
X80125000Y-3650000D02*
X80125000Y-9050000D01*
X78625000Y-9050000D02*
X78625000Y-3650000D01*
X60825000Y-6850000D02*
X59825000Y-6850000D01*
X60325000Y-6750000D02*
X60825000Y-5850000D01*
X59825000Y-5850000D02*
X60325000Y-6750000D01*
X60825000Y-5850000D02*
X59825000Y-5850000D01*
X61075000Y-3650000D02*
X59575000Y-3650000D01*
X61075000Y-9050000D02*
X59575000Y-9050000D01*
X61075000Y-3650000D02*
X61075000Y-9050000D01*
X59575000Y-9050000D02*
X59575000Y-3650000D01*
X41775000Y-6850000D02*
X40775000Y-6850000D01*
X41275000Y-6750000D02*
X41775000Y-5850000D01*
X40775000Y-5850000D02*
X41275000Y-6750000D01*
X41775000Y-5850000D02*
X40775000Y-5850000D01*
X42025000Y-3650000D02*
X40525000Y-3650000D01*
X42025000Y-9050000D02*
X40525000Y-9050000D01*
X42025000Y-3650000D02*
X42025000Y-9050000D01*
X40525000Y-9050000D02*
X40525000Y-3650000D01*
X270375000Y12200000D02*
X269375000Y12200000D01*
X269875000Y12300000D02*
X270375000Y13200000D01*
X269375000Y13200000D02*
X269875000Y12300000D01*
X270375000Y13200000D02*
X269375000Y13200000D01*
X270625000Y15400000D02*
X269125000Y15400000D01*
X270625000Y10000000D02*
X269125000Y10000000D01*
X270625000Y15400000D02*
X270625000Y10000000D01*
X269125000Y10000000D02*
X269125000Y15400000D01*
X251325000Y12200000D02*
X250325000Y12200000D01*
X250825000Y12300000D02*
X251325000Y13200000D01*
X250325000Y13200000D02*
X250825000Y12300000D01*
X251325000Y13200000D02*
X250325000Y13200000D01*
X251575000Y15400000D02*
X250075000Y15400000D01*
X251575000Y10000000D02*
X250075000Y10000000D01*
X251575000Y15400000D02*
X251575000Y10000000D01*
X250075000Y10000000D02*
X250075000Y15400000D01*
X232275000Y12200000D02*
X231275000Y12200000D01*
X231775000Y12300000D02*
X232275000Y13200000D01*
X231275000Y13200000D02*
X231775000Y12300000D01*
X232275000Y13200000D02*
X231275000Y13200000D01*
X232525000Y15400000D02*
X231025000Y15400000D01*
X232525000Y10000000D02*
X231025000Y10000000D01*
X232525000Y15400000D02*
X232525000Y10000000D01*
X231025000Y10000000D02*
X231025000Y15400000D01*
X213225000Y12200000D02*
X212225000Y12200000D01*
X212725000Y12300000D02*
X213225000Y13200000D01*
X212225000Y13200000D02*
X212725000Y12300000D01*
X213225000Y13200000D02*
X212225000Y13200000D01*
X213475000Y15400000D02*
X211975000Y15400000D01*
X213475000Y10000000D02*
X211975000Y10000000D01*
X213475000Y15400000D02*
X213475000Y10000000D01*
X211975000Y10000000D02*
X211975000Y15400000D01*
X194175000Y12200000D02*
X193175000Y12200000D01*
X193675000Y12300000D02*
X194175000Y13200000D01*
X193175000Y13200000D02*
X193675000Y12300000D01*
X194175000Y13200000D02*
X193175000Y13200000D01*
X194425000Y15400000D02*
X192925000Y15400000D01*
X194425000Y10000000D02*
X192925000Y10000000D01*
X194425000Y15400000D02*
X194425000Y10000000D01*
X192925000Y10000000D02*
X192925000Y15400000D01*
X175125000Y12200000D02*
X174125000Y12200000D01*
X174625000Y12300000D02*
X175125000Y13200000D01*
X174125000Y13200000D02*
X174625000Y12300000D01*
X175125000Y13200000D02*
X174125000Y13200000D01*
X175375000Y15400000D02*
X173875000Y15400000D01*
X175375000Y10000000D02*
X173875000Y10000000D01*
X175375000Y15400000D02*
X175375000Y10000000D01*
X173875000Y10000000D02*
X173875000Y15400000D01*
X156075000Y12200000D02*
X155075000Y12200000D01*
X155575000Y12300000D02*
X156075000Y13200000D01*
X155075000Y13200000D02*
X155575000Y12300000D01*
X156075000Y13200000D02*
X155075000Y13200000D01*
X156325000Y15400000D02*
X154825000Y15400000D01*
X156325000Y10000000D02*
X154825000Y10000000D01*
X156325000Y15400000D02*
X156325000Y10000000D01*
X154825000Y10000000D02*
X154825000Y15400000D01*
X137025000Y12200000D02*
X136025000Y12200000D01*
X136525000Y12300000D02*
X137025000Y13200000D01*
X136025000Y13200000D02*
X136525000Y12300000D01*
X137025000Y13200000D02*
X136025000Y13200000D01*
X137275000Y15400000D02*
X135775000Y15400000D01*
X137275000Y10000000D02*
X135775000Y10000000D01*
X137275000Y15400000D02*
X137275000Y10000000D01*
X135775000Y10000000D02*
X135775000Y15400000D01*
X117975000Y12200000D02*
X116975000Y12200000D01*
X117475000Y12300000D02*
X117975000Y13200000D01*
X116975000Y13200000D02*
X117475000Y12300000D01*
X117975000Y13200000D02*
X116975000Y13200000D01*
X118225000Y15400000D02*
X116725000Y15400000D01*
X118225000Y10000000D02*
X116725000Y10000000D01*
X118225000Y15400000D02*
X118225000Y10000000D01*
X116725000Y10000000D02*
X116725000Y15400000D01*
X98925000Y12200000D02*
X97925000Y12200000D01*
X98425000Y12300000D02*
X98925000Y13200000D01*
X97925000Y13200000D02*
X98425000Y12300000D01*
X98925000Y13200000D02*
X97925000Y13200000D01*
X99175000Y15400000D02*
X97675000Y15400000D01*
X99175000Y10000000D02*
X97675000Y10000000D01*
X99175000Y15400000D02*
X99175000Y10000000D01*
X97675000Y10000000D02*
X97675000Y15400000D01*
X79875000Y12200000D02*
X78875000Y12200000D01*
X79375000Y12300000D02*
X79875000Y13200000D01*
X78875000Y13200000D02*
X79375000Y12300000D01*
X79875000Y13200000D02*
X78875000Y13200000D01*
X80125000Y15400000D02*
X78625000Y15400000D01*
X80125000Y10000000D02*
X78625000Y10000000D01*
X80125000Y15400000D02*
X80125000Y10000000D01*
X78625000Y10000000D02*
X78625000Y15400000D01*
X60825000Y12200000D02*
X59825000Y12200000D01*
X60325000Y12300000D02*
X60825000Y13200000D01*
X59825000Y13200000D02*
X60325000Y12300000D01*
X60825000Y13200000D02*
X59825000Y13200000D01*
X61075000Y15400000D02*
X59575000Y15400000D01*
X61075000Y10000000D02*
X59575000Y10000000D01*
X61075000Y15400000D02*
X61075000Y10000000D01*
X59575000Y10000000D02*
X59575000Y15400000D01*
X43362500Y8437500D02*
X43362500Y7437500D01*
X43262500Y7937500D02*
X42362500Y8437500D01*
X42362500Y7437500D02*
X43262500Y7937500D01*
X42362500Y8437500D02*
X42362500Y7437500D01*
X40162500Y8687500D02*
X40162500Y7187500D01*
X45562500Y8687500D02*
X45562500Y7187500D01*
X40162500Y8687500D02*
X45562500Y8687500D01*
X45562500Y7187500D02*
X40162500Y7187500D01*
X28737500Y-57531250D02*
X28737500Y-56256250D01*
X28162500Y-67881250D02*
X28162500Y-67206250D01*
X38512500Y-67881250D02*
X38512500Y-67206250D01*
X38512500Y-57531250D02*
X38512500Y-58206250D01*
X28162500Y-57531250D02*
X28162500Y-58206250D01*
X38512500Y-57531250D02*
X37837500Y-57531250D01*
X38512500Y-67881250D02*
X37837500Y-67881250D01*
X28162500Y-67881250D02*
X28837500Y-67881250D01*
X28162500Y-57531250D02*
X28737500Y-57531250D01*
D21*
X44391250Y20070814D02*
X44391250Y19616686D01*
X42921250Y20070814D02*
X42921250Y19616686D01*
X29310000Y20070814D02*
X29310000Y19616686D01*
X27840000Y20070814D02*
X27840000Y19616686D01*
X27554186Y-69908750D02*
X28008314Y-69908750D01*
X27554186Y-71378750D02*
X28008314Y-71378750D01*
X33396250Y2947936D02*
X33396250Y3402064D01*
X34866250Y2947936D02*
X34866250Y3402064D01*
X35777500Y2947936D02*
X35777500Y3402064D01*
X37247500Y2947936D02*
X37247500Y3402064D01*
X36739564Y-50741250D02*
X36285436Y-50741250D01*
X36739564Y-49271250D02*
X36285436Y-49271250D01*
X41952500Y3366686D02*
X41952500Y4570814D01*
X43772500Y3366686D02*
X43772500Y4570814D01*
X40570543Y-69515010D02*
X40940010Y-69145543D01*
X41609990Y-70554457D02*
X41979457Y-70184990D01*
X42601248Y-56415000D02*
X43123752Y-56415000D01*
X42601248Y-57885000D02*
X43123752Y-57885000D01*
X23871250Y-66936252D02*
X23871250Y-66413748D01*
X25341250Y-66936252D02*
X25341250Y-66413748D01*
X33598752Y-53916250D02*
X33076248Y-53916250D01*
X33598752Y-52446250D02*
X33076248Y-52446250D01*
X77728750Y-52919998D02*
X77728750Y-53442502D01*
X76258750Y-52919998D02*
X76258750Y-53442502D01*
X82608750Y-53442502D02*
X82608750Y-52919998D01*
X84078750Y-53442502D02*
X84078750Y-52919998D01*
D13*
X81859911Y-52844488D02*
X82164673Y-52844488D01*
X81524673Y-52631154D02*
X81859911Y-52844488D01*
X81524673Y-53057821D01*
X82164673Y-53606392D02*
X82164673Y-53240678D01*
X82164673Y-53423535D02*
X81524673Y-53423535D01*
X81616102Y-53362583D01*
X81677054Y-53301630D01*
X81707530Y-53240678D01*
X44387156Y-51382291D02*
X44791217Y-51786352D01*
X44589187Y-51584322D02*
X45296293Y-50877215D01*
X45262622Y-51045574D01*
X45262622Y-51180261D01*
X45296293Y-51281276D01*
X44656530Y-50237452D02*
X44589187Y-50170108D01*
X44488171Y-50136436D01*
X44420828Y-50136436D01*
X44319813Y-50170108D01*
X44151454Y-50271123D01*
X43983095Y-50439482D01*
X43882080Y-50607841D01*
X43848408Y-50708856D01*
X43848408Y-50776200D01*
X43882080Y-50877215D01*
X43949423Y-50944559D01*
X44050439Y-50978230D01*
X44117782Y-50978230D01*
X44218797Y-50944559D01*
X44387156Y-50843543D01*
X44555515Y-50675185D01*
X44656530Y-50506826D01*
X44690202Y-50405810D01*
X44690202Y-50338467D01*
X44656530Y-50237452D01*
X43579034Y-49631360D02*
X43107629Y-50102765D01*
X43882080Y-49934406D02*
X43511690Y-50304795D01*
X43410675Y-50338467D01*
X43309660Y-50304795D01*
X43208645Y-50203780D01*
X43174973Y-50102765D01*
X43174973Y-50035421D01*
X43343332Y-49395658D02*
X43073958Y-49126284D01*
X42770912Y-49766047D02*
X43377003Y-49159956D01*
X43410675Y-49058940D01*
X43377003Y-48957925D01*
X43309660Y-48890582D01*
X30145535Y-43854464D02*
X30188392Y-43940178D01*
X30188392Y-44111607D01*
X30145535Y-44197321D01*
X30059821Y-44240178D01*
X30016964Y-44240178D01*
X29931250Y-44197321D01*
X29888392Y-44111607D01*
X29888392Y-43983035D01*
X29845535Y-43897321D01*
X29759821Y-43854464D01*
X29716964Y-43854464D01*
X29631250Y-43897321D01*
X29588392Y-43983035D01*
X29588392Y-44111607D01*
X29631250Y-44197321D01*
X30188392Y-44625892D02*
X29288392Y-44625892D01*
X30188392Y-45011607D02*
X29716964Y-45011607D01*
X29631250Y-44968750D01*
X29588392Y-44883035D01*
X29588392Y-44754464D01*
X29631250Y-44668750D01*
X29674107Y-44625892D01*
X30188392Y-45568750D02*
X30145535Y-45483035D01*
X30102678Y-45440178D01*
X30016964Y-45397321D01*
X29759821Y-45397321D01*
X29674107Y-45440178D01*
X29631250Y-45483035D01*
X29588392Y-45568750D01*
X29588392Y-45697321D01*
X29631250Y-45783035D01*
X29674107Y-45825892D01*
X29759821Y-45868750D01*
X30016964Y-45868750D01*
X30102678Y-45825892D01*
X30145535Y-45783035D01*
X30188392Y-45697321D01*
X30188392Y-45568750D01*
X30188392Y-46254464D02*
X29588392Y-46254464D01*
X29759821Y-46254464D02*
X29674107Y-46297321D01*
X29631250Y-46340178D01*
X29588392Y-46425892D01*
X29588392Y-46511607D01*
X29588392Y-46683035D02*
X29588392Y-47025892D01*
X29288392Y-46811607D02*
X30059821Y-46811607D01*
X30145535Y-46854464D01*
X30188392Y-46940178D01*
X30188392Y-47025892D01*
X29588392Y-47883035D02*
X29588392Y-48225892D01*
X29288392Y-48011607D02*
X30059821Y-48011607D01*
X30145535Y-48054464D01*
X30188392Y-48140178D01*
X30188392Y-48225892D01*
X30188392Y-48654464D02*
X30145535Y-48568750D01*
X30102678Y-48525892D01*
X30016964Y-48483035D01*
X29759821Y-48483035D01*
X29674107Y-48525892D01*
X29631250Y-48568750D01*
X29588392Y-48654464D01*
X29588392Y-48783035D01*
X29631250Y-48868750D01*
X29674107Y-48911607D01*
X29759821Y-48954464D01*
X30016964Y-48954464D01*
X30102678Y-48911607D01*
X30145535Y-48868750D01*
X30188392Y-48783035D01*
X30188392Y-48654464D01*
X30188392Y-50025892D02*
X29588392Y-50025892D01*
X29759821Y-50025892D02*
X29674107Y-50068750D01*
X29631250Y-50111607D01*
X29588392Y-50197321D01*
X29588392Y-50283035D01*
X30145535Y-50925892D02*
X30188392Y-50840178D01*
X30188392Y-50668750D01*
X30145535Y-50583035D01*
X30059821Y-50540178D01*
X29716964Y-50540178D01*
X29631250Y-50583035D01*
X29588392Y-50668750D01*
X29588392Y-50840178D01*
X29631250Y-50925892D01*
X29716964Y-50968750D01*
X29802678Y-50968750D01*
X29888392Y-50540178D01*
X30145535Y-51311607D02*
X30188392Y-51397321D01*
X30188392Y-51568750D01*
X30145535Y-51654464D01*
X30059821Y-51697321D01*
X30016964Y-51697321D01*
X29931250Y-51654464D01*
X29888392Y-51568750D01*
X29888392Y-51440178D01*
X29845535Y-51354464D01*
X29759821Y-51311607D01*
X29716964Y-51311607D01*
X29631250Y-51354464D01*
X29588392Y-51440178D01*
X29588392Y-51568750D01*
X29631250Y-51654464D01*
X30145535Y-52425892D02*
X30188392Y-52340178D01*
X30188392Y-52168750D01*
X30145535Y-52083035D01*
X30059821Y-52040178D01*
X29716964Y-52040178D01*
X29631250Y-52083035D01*
X29588392Y-52168750D01*
X29588392Y-52340178D01*
X29631250Y-52425892D01*
X29716964Y-52468750D01*
X29802678Y-52468750D01*
X29888392Y-52040178D01*
X29588392Y-52725892D02*
X29588392Y-53068750D01*
X29288392Y-52854464D02*
X30059821Y-52854464D01*
X30145535Y-52897321D01*
X30188392Y-52983035D01*
X30188392Y-53068750D01*
X26168333Y-55956761D02*
X26168333Y-56337714D01*
X26396904Y-55880571D02*
X25596904Y-56147238D01*
X26396904Y-56413904D01*
X25596904Y-56566285D02*
X25596904Y-57023428D01*
X26396904Y-56794857D02*
X25596904Y-56794857D01*
X26396904Y-57290095D02*
X25863571Y-57290095D01*
X25939761Y-57290095D02*
X25901666Y-57328190D01*
X25863571Y-57404380D01*
X25863571Y-57518666D01*
X25901666Y-57594857D01*
X25977857Y-57632952D01*
X26396904Y-57632952D01*
X25977857Y-57632952D02*
X25901666Y-57671047D01*
X25863571Y-57747238D01*
X25863571Y-57861523D01*
X25901666Y-57937714D01*
X25977857Y-57975809D01*
X26396904Y-57975809D01*
X26358809Y-58661523D02*
X26396904Y-58585333D01*
X26396904Y-58432952D01*
X26358809Y-58356761D01*
X26282619Y-58318666D01*
X25977857Y-58318666D01*
X25901666Y-58356761D01*
X25863571Y-58432952D01*
X25863571Y-58585333D01*
X25901666Y-58661523D01*
X25977857Y-58699619D01*
X26054047Y-58699619D01*
X26130238Y-58318666D01*
X25863571Y-59385333D02*
X26511190Y-59385333D01*
X26587380Y-59347238D01*
X26625476Y-59309142D01*
X26663571Y-59232952D01*
X26663571Y-59118666D01*
X26625476Y-59042476D01*
X26358809Y-59385333D02*
X26396904Y-59309142D01*
X26396904Y-59156761D01*
X26358809Y-59080571D01*
X26320714Y-59042476D01*
X26244523Y-59004380D01*
X26015952Y-59004380D01*
X25939761Y-59042476D01*
X25901666Y-59080571D01*
X25863571Y-59156761D01*
X25863571Y-59309142D01*
X25901666Y-59385333D01*
X26396904Y-60109142D02*
X25977857Y-60109142D01*
X25901666Y-60071047D01*
X25863571Y-59994857D01*
X25863571Y-59842476D01*
X25901666Y-59766285D01*
X26358809Y-60109142D02*
X26396904Y-60032952D01*
X26396904Y-59842476D01*
X26358809Y-59766285D01*
X26282619Y-59728190D01*
X26206428Y-59728190D01*
X26130238Y-59766285D01*
X26092142Y-59842476D01*
X26092142Y-60032952D01*
X26054047Y-60109142D01*
X25596904Y-60413904D02*
X25596904Y-60909142D01*
X25901666Y-60642476D01*
X25901666Y-60756761D01*
X25939761Y-60832952D01*
X25977857Y-60871047D01*
X26054047Y-60909142D01*
X26244523Y-60909142D01*
X26320714Y-60871047D01*
X26358809Y-60832952D01*
X26396904Y-60756761D01*
X26396904Y-60528190D01*
X26358809Y-60452000D01*
X26320714Y-60413904D01*
X25673095Y-61213904D02*
X25635000Y-61252000D01*
X25596904Y-61328190D01*
X25596904Y-61518666D01*
X25635000Y-61594857D01*
X25673095Y-61632952D01*
X25749285Y-61671047D01*
X25825476Y-61671047D01*
X25939761Y-61632952D01*
X26396904Y-61175809D01*
X26396904Y-61671047D01*
X25596904Y-62013904D02*
X26244523Y-62013904D01*
X26320714Y-62052000D01*
X26358809Y-62090095D01*
X26396904Y-62166285D01*
X26396904Y-62318666D01*
X26358809Y-62394857D01*
X26320714Y-62432952D01*
X26244523Y-62471047D01*
X25596904Y-62471047D01*
X25863571Y-63194857D02*
X26396904Y-63194857D01*
X25558809Y-63004380D02*
X26130238Y-62813904D01*
X26130238Y-63309142D01*
X26092142Y-63613904D02*
X26092142Y-64223428D01*
X26168333Y-64566285D02*
X26168333Y-64947238D01*
X26396904Y-64490095D02*
X25596904Y-64756761D01*
X26396904Y-65023428D01*
X44441952Y22772619D02*
X44918142Y22772619D01*
X44965761Y22296428D01*
X44918142Y22344047D01*
X44822904Y22391666D01*
X44584809Y22391666D01*
X44489571Y22344047D01*
X44441952Y22296428D01*
X44394333Y22201190D01*
X44394333Y21963095D01*
X44441952Y21867857D01*
X44489571Y21820238D01*
X44584809Y21772619D01*
X44822904Y21772619D01*
X44918142Y21820238D01*
X44965761Y21867857D01*
X43965761Y21867857D02*
X43918142Y21820238D01*
X43965761Y21772619D01*
X44013380Y21820238D01*
X43965761Y21867857D01*
X43965761Y21772619D01*
X42965761Y21772619D02*
X43537190Y21772619D01*
X43251476Y21772619D02*
X43251476Y22772619D01*
X43346714Y22629761D01*
X43441952Y22534523D01*
X43537190Y22486904D01*
X42537190Y21772619D02*
X42537190Y22772619D01*
X42441952Y22153571D02*
X42156238Y21772619D01*
X42156238Y22439285D02*
X42537190Y22058333D01*
X28693952Y22645619D02*
X29170142Y22645619D01*
X29217761Y22169428D01*
X29170142Y22217047D01*
X29074904Y22264666D01*
X28836809Y22264666D01*
X28741571Y22217047D01*
X28693952Y22169428D01*
X28646333Y22074190D01*
X28646333Y21836095D01*
X28693952Y21740857D01*
X28741571Y21693238D01*
X28836809Y21645619D01*
X29074904Y21645619D01*
X29170142Y21693238D01*
X29217761Y21740857D01*
X28217761Y21740857D02*
X28170142Y21693238D01*
X28217761Y21645619D01*
X28265380Y21693238D01*
X28217761Y21740857D01*
X28217761Y21645619D01*
X27217761Y21645619D02*
X27789190Y21645619D01*
X27503476Y21645619D02*
X27503476Y22645619D01*
X27598714Y22502761D01*
X27693952Y22407523D01*
X27789190Y22359904D01*
X26789190Y21645619D02*
X26789190Y22645619D01*
X26693952Y22026571D02*
X26408238Y21645619D01*
X26408238Y22312285D02*
X26789190Y21931333D01*
X31329238Y-71191380D02*
X31900666Y-71191380D01*
X31614952Y-71191380D02*
X31614952Y-70191380D01*
X31710190Y-70334238D01*
X31805428Y-70429476D01*
X31900666Y-70477095D01*
X30710190Y-70191380D02*
X30614952Y-70191380D01*
X30519714Y-70239000D01*
X30472095Y-70286619D01*
X30424476Y-70381857D01*
X30376857Y-70572333D01*
X30376857Y-70810428D01*
X30424476Y-71000904D01*
X30472095Y-71096142D01*
X30519714Y-71143761D01*
X30614952Y-71191380D01*
X30710190Y-71191380D01*
X30805428Y-71143761D01*
X30853047Y-71096142D01*
X30900666Y-71000904D01*
X30948285Y-70810428D01*
X30948285Y-70572333D01*
X30900666Y-70381857D01*
X30853047Y-70286619D01*
X30805428Y-70239000D01*
X30710190Y-70191380D01*
X29948285Y-71191380D02*
X29948285Y-70191380D01*
X29853047Y-70810428D02*
X29567333Y-71191380D01*
X29567333Y-70524714D02*
X29948285Y-70905666D01*
X34416904Y5786380D02*
X34369285Y5834000D01*
X34274047Y5881619D01*
X34035952Y5881619D01*
X33940714Y5834000D01*
X33893095Y5786380D01*
X33845476Y5691142D01*
X33845476Y5595904D01*
X33893095Y5453047D01*
X34464523Y4881619D01*
X33845476Y4881619D01*
X33464523Y5786380D02*
X33416904Y5834000D01*
X33321666Y5881619D01*
X33083571Y5881619D01*
X32988333Y5834000D01*
X32940714Y5786380D01*
X32893095Y5691142D01*
X32893095Y5595904D01*
X32940714Y5453047D01*
X33512142Y4881619D01*
X32893095Y4881619D01*
X37972904Y5786380D02*
X37925285Y5834000D01*
X37830047Y5881619D01*
X37591952Y5881619D01*
X37496714Y5834000D01*
X37449095Y5786380D01*
X37401476Y5691142D01*
X37401476Y5595904D01*
X37449095Y5453047D01*
X38020523Y4881619D01*
X37401476Y4881619D01*
X37020523Y5786380D02*
X36972904Y5834000D01*
X36877666Y5881619D01*
X36639571Y5881619D01*
X36544333Y5834000D01*
X36496714Y5786380D01*
X36449095Y5691142D01*
X36449095Y5595904D01*
X36496714Y5453047D01*
X37068142Y4881619D01*
X36449095Y4881619D01*
X37107738Y-48839380D02*
X37679166Y-48839380D01*
X37393452Y-48839380D02*
X37393452Y-47839380D01*
X37488690Y-47982238D01*
X37583928Y-48077476D01*
X37679166Y-48125095D01*
X36488690Y-47839380D02*
X36393452Y-47839380D01*
X36298214Y-47887000D01*
X36250595Y-47934619D01*
X36202976Y-48029857D01*
X36155357Y-48220333D01*
X36155357Y-48458428D01*
X36202976Y-48648904D01*
X36250595Y-48744142D01*
X36298214Y-48791761D01*
X36393452Y-48839380D01*
X36488690Y-48839380D01*
X36583928Y-48791761D01*
X36631547Y-48744142D01*
X36679166Y-48648904D01*
X36726785Y-48458428D01*
X36726785Y-48220333D01*
X36679166Y-48029857D01*
X36631547Y-47934619D01*
X36583928Y-47887000D01*
X36488690Y-47839380D01*
X35726785Y-48839380D02*
X35726785Y-47839380D01*
X35631547Y-48458428D02*
X35345833Y-48839380D01*
X35345833Y-48172714D02*
X35726785Y-48553666D01*
X44735523Y1436619D02*
X45211714Y1436619D01*
X45259333Y960428D01*
X45211714Y1008047D01*
X45116476Y1055666D01*
X44878380Y1055666D01*
X44783142Y1008047D01*
X44735523Y960428D01*
X44687904Y865190D01*
X44687904Y627095D01*
X44735523Y531857D01*
X44783142Y484238D01*
X44878380Y436619D01*
X45116476Y436619D01*
X45211714Y484238D01*
X45259333Y531857D01*
X44068857Y1436619D02*
X43973619Y1436619D01*
X43878380Y1389000D01*
X43830761Y1341380D01*
X43783142Y1246142D01*
X43735523Y1055666D01*
X43735523Y817571D01*
X43783142Y627095D01*
X43830761Y531857D01*
X43878380Y484238D01*
X43973619Y436619D01*
X44068857Y436619D01*
X44164095Y484238D01*
X44211714Y531857D01*
X44259333Y627095D01*
X44306952Y817571D01*
X44306952Y1055666D01*
X44259333Y1246142D01*
X44211714Y1341380D01*
X44164095Y1389000D01*
X44068857Y1436619D01*
X43116476Y1436619D02*
X43021238Y1436619D01*
X42926000Y1389000D01*
X42878380Y1341380D01*
X42830761Y1246142D01*
X42783142Y1055666D01*
X42783142Y817571D01*
X42830761Y627095D01*
X42878380Y531857D01*
X42926000Y484238D01*
X43021238Y436619D01*
X43116476Y436619D01*
X43211714Y484238D01*
X43259333Y531857D01*
X43306952Y627095D01*
X43354571Y817571D01*
X43354571Y1055666D01*
X43306952Y1246142D01*
X43259333Y1341380D01*
X43211714Y1389000D01*
X43116476Y1436619D01*
X42354571Y436619D02*
X42354571Y1103285D01*
X42354571Y1008047D02*
X42306952Y1055666D01*
X42211714Y1103285D01*
X42068857Y1103285D01*
X41973619Y1055666D01*
X41926000Y960428D01*
X41926000Y436619D01*
X41926000Y960428D02*
X41878380Y1055666D01*
X41783142Y1103285D01*
X41640285Y1103285D01*
X41545047Y1055666D01*
X41497428Y960428D01*
X41497428Y436619D01*
X41068857Y722333D02*
X40592666Y722333D01*
X41164095Y436619D02*
X40830761Y1436619D01*
X40497428Y436619D01*
X40805435Y-67386114D02*
X40738091Y-67453458D01*
X40704419Y-67554473D01*
X40704419Y-67621816D01*
X40738091Y-67722832D01*
X40839106Y-67891190D01*
X41007465Y-68059549D01*
X41175824Y-68160564D01*
X41276839Y-68194236D01*
X41344183Y-68194236D01*
X41445198Y-68160564D01*
X41512541Y-68093221D01*
X41546213Y-67992206D01*
X41546213Y-67924862D01*
X41512541Y-67823847D01*
X41411526Y-67655488D01*
X41243167Y-67487129D01*
X41074809Y-67386114D01*
X40973793Y-67352442D01*
X40906450Y-67352442D01*
X40805435Y-67386114D01*
X40906450Y-68564625D02*
X40906450Y-68631969D01*
X40973793Y-68631969D01*
X40973793Y-68564625D01*
X40906450Y-68564625D01*
X40973793Y-68631969D01*
X40266687Y-69339076D02*
X40670748Y-68935015D01*
X40468717Y-69137045D02*
X39761610Y-68429938D01*
X39929969Y-68463610D01*
X40064656Y-68463610D01*
X40165671Y-68429938D01*
X39189190Y-69473763D02*
X39660595Y-69945167D01*
X39492236Y-69170717D02*
X39862625Y-69541106D01*
X39896297Y-69642122D01*
X39862625Y-69743137D01*
X39761610Y-69844152D01*
X39660595Y-69877824D01*
X39593251Y-69877824D01*
X38953488Y-69709465D02*
X38684114Y-69978839D01*
X39323877Y-70281885D02*
X38717786Y-69675793D01*
X38616771Y-69642122D01*
X38515755Y-69675793D01*
X38448412Y-69743137D01*
X44362500Y-54922380D02*
X44267261Y-54922380D01*
X44172023Y-54970000D01*
X44124404Y-55017619D01*
X44076785Y-55112857D01*
X44029166Y-55303333D01*
X44029166Y-55541428D01*
X44076785Y-55731904D01*
X44124404Y-55827142D01*
X44172023Y-55874761D01*
X44267261Y-55922380D01*
X44362500Y-55922380D01*
X44457738Y-55874761D01*
X44505357Y-55827142D01*
X44552976Y-55731904D01*
X44600595Y-55541428D01*
X44600595Y-55303333D01*
X44552976Y-55112857D01*
X44505357Y-55017619D01*
X44457738Y-54970000D01*
X44362500Y-54922380D01*
X43600595Y-55827142D02*
X43552976Y-55874761D01*
X43600595Y-55922380D01*
X43648214Y-55874761D01*
X43600595Y-55827142D01*
X43600595Y-55922380D01*
X42600595Y-55922380D02*
X43172023Y-55922380D01*
X42886309Y-55922380D02*
X42886309Y-54922380D01*
X42981547Y-55065238D01*
X43076785Y-55160476D01*
X43172023Y-55208095D01*
X41743452Y-55255714D02*
X41743452Y-55922380D01*
X42172023Y-55255714D02*
X42172023Y-55779523D01*
X42124404Y-55874761D01*
X42029166Y-55922380D01*
X41886309Y-55922380D01*
X41791071Y-55874761D01*
X41743452Y-55827142D01*
X41410119Y-55255714D02*
X41029166Y-55255714D01*
X41267261Y-55922380D02*
X41267261Y-55065238D01*
X41219642Y-54970000D01*
X41124404Y-54922380D01*
X41029166Y-54922380D01*
X24090380Y-61365000D02*
X24090380Y-61460238D01*
X24138000Y-61555476D01*
X24185619Y-61603095D01*
X24280857Y-61650714D01*
X24471333Y-61698333D01*
X24709428Y-61698333D01*
X24899904Y-61650714D01*
X24995142Y-61603095D01*
X25042761Y-61555476D01*
X25090380Y-61460238D01*
X25090380Y-61365000D01*
X25042761Y-61269761D01*
X24995142Y-61222142D01*
X24899904Y-61174523D01*
X24709428Y-61126904D01*
X24471333Y-61126904D01*
X24280857Y-61174523D01*
X24185619Y-61222142D01*
X24138000Y-61269761D01*
X24090380Y-61365000D01*
X24995142Y-62126904D02*
X25042761Y-62174523D01*
X25090380Y-62126904D01*
X25042761Y-62079285D01*
X24995142Y-62126904D01*
X25090380Y-62126904D01*
X25090380Y-63126904D02*
X25090380Y-62555476D01*
X25090380Y-62841190D02*
X24090380Y-62841190D01*
X24233238Y-62745952D01*
X24328476Y-62650714D01*
X24376095Y-62555476D01*
X24423714Y-63984047D02*
X25090380Y-63984047D01*
X24423714Y-63555476D02*
X24947523Y-63555476D01*
X25042761Y-63603095D01*
X25090380Y-63698333D01*
X25090380Y-63841190D01*
X25042761Y-63936428D01*
X24995142Y-63984047D01*
X24423714Y-64317380D02*
X24423714Y-64698333D01*
X25090380Y-64460238D02*
X24233238Y-64460238D01*
X24138000Y-64507857D01*
X24090380Y-64603095D01*
X24090380Y-64698333D01*
X33789880Y-52046130D02*
X34361309Y-52046130D01*
X34075595Y-52046130D02*
X34075595Y-51046130D01*
X34170833Y-51188988D01*
X34266071Y-51284226D01*
X34361309Y-51331845D01*
X32932738Y-51379464D02*
X32932738Y-52046130D01*
X33361309Y-51379464D02*
X33361309Y-51903273D01*
X33313690Y-51998511D01*
X33218452Y-52046130D01*
X33075595Y-52046130D01*
X32980357Y-51998511D01*
X32932738Y-51950892D01*
X32599404Y-51379464D02*
X32218452Y-51379464D01*
X32456547Y-52046130D02*
X32456547Y-51188988D01*
X32408928Y-51093750D01*
X32313690Y-51046130D01*
X32218452Y-51046130D01*
X78604857Y-50220619D02*
X78557238Y-50173000D01*
X78462000Y-50125380D01*
X78223904Y-50125380D01*
X78128666Y-50173000D01*
X78081047Y-50220619D01*
X78033428Y-50315857D01*
X78033428Y-50411095D01*
X78081047Y-50553952D01*
X78652476Y-51125380D01*
X78033428Y-51125380D01*
X77652476Y-50220619D02*
X77604857Y-50173000D01*
X77509619Y-50125380D01*
X77271523Y-50125380D01*
X77176285Y-50173000D01*
X77128666Y-50220619D01*
X77081047Y-50315857D01*
X77081047Y-50411095D01*
X77128666Y-50553952D01*
X77700095Y-51125380D01*
X77081047Y-51125380D01*
X76652476Y-50458714D02*
X76652476Y-51458714D01*
X76652476Y-50506333D02*
X76557238Y-50458714D01*
X76366761Y-50458714D01*
X76271523Y-50506333D01*
X76223904Y-50553952D01*
X76176285Y-50649190D01*
X76176285Y-50934904D01*
X76223904Y-51030142D01*
X76271523Y-51077761D01*
X76366761Y-51125380D01*
X76557238Y-51125380D01*
X76652476Y-51077761D01*
X75414380Y-50601571D02*
X75747714Y-50601571D01*
X75747714Y-51125380D02*
X75747714Y-50125380D01*
X75271523Y-50125380D01*
X85081857Y-50220619D02*
X85034238Y-50173000D01*
X84939000Y-50125380D01*
X84700904Y-50125380D01*
X84605666Y-50173000D01*
X84558047Y-50220619D01*
X84510428Y-50315857D01*
X84510428Y-50411095D01*
X84558047Y-50553952D01*
X85129476Y-51125380D01*
X84510428Y-51125380D01*
X84129476Y-50220619D02*
X84081857Y-50173000D01*
X83986619Y-50125380D01*
X83748523Y-50125380D01*
X83653285Y-50173000D01*
X83605666Y-50220619D01*
X83558047Y-50315857D01*
X83558047Y-50411095D01*
X83605666Y-50553952D01*
X84177095Y-51125380D01*
X83558047Y-51125380D01*
X83129476Y-50458714D02*
X83129476Y-51458714D01*
X83129476Y-50506333D02*
X83034238Y-50458714D01*
X82843761Y-50458714D01*
X82748523Y-50506333D01*
X82700904Y-50553952D01*
X82653285Y-50649190D01*
X82653285Y-50934904D01*
X82700904Y-51030142D01*
X82748523Y-51077761D01*
X82843761Y-51125380D01*
X83034238Y-51125380D01*
X83129476Y-51077761D01*
X81891380Y-50601571D02*
X82224714Y-50601571D01*
X82224714Y-51125380D02*
X82224714Y-50125380D01*
X81748523Y-50125380D01*
%LPC*%
D22*
X80168750Y-51981250D03*
X80168750Y-53181250D03*
X80168750Y-54381250D03*
D23*
X30797500Y8413750D03*
X37147500Y10953750D03*
D24*
X27495500Y8413750D03*
D25*
X38417500Y13493750D03*
X28257500Y13493750D03*
D26*
X33337500Y13493750D03*
D24*
X40422500Y10953750D03*
D23*
X102552500Y-57626250D03*
X96202500Y-60166250D03*
D24*
X105854500Y-57626250D03*
D25*
X94932500Y-62706250D03*
X105092500Y-62706250D03*
D26*
X100012500Y-62706250D03*
D24*
X92927500Y-60166250D03*
D27*
X269875000Y21431250D03*
X26193750Y20637500D03*
X269875000Y-70643750D03*
D23*
X159702500Y-57626250D03*
X153352500Y-60166250D03*
D24*
X163004500Y-57626250D03*
D25*
X152082500Y-62706250D03*
X162242500Y-62706250D03*
D26*
X157162500Y-62706250D03*
D24*
X150077500Y-60166250D03*
D28*
X145224500Y-69691250D03*
X169100500Y-69691250D03*
D29*
X145224500Y-54451250D03*
X169100500Y-54451250D03*
D28*
X88074500Y-69691250D03*
X111950500Y-69691250D03*
D29*
X88074500Y-54451250D03*
X111950500Y-54451250D03*
G36*
G01*
X42844822Y-52247823D02*
X43516573Y-51576072D01*
G75*
G02*
X43870127Y-51576072I176777J-176777D01*
G01*
X44223680Y-51929625D01*
G75*
G02*
X44223680Y-52283179I-176777J-176777D01*
G01*
X43551929Y-52954930D01*
G75*
G02*
X43198375Y-52954930I-176777J176777D01*
G01*
X42844822Y-52601377D01*
G75*
G02*
X42844822Y-52247823I176777J176777D01*
G01*
G37*
G36*
G01*
X41501320Y-50904321D02*
X42173071Y-50232570D01*
G75*
G02*
X42526625Y-50232570I176777J-176777D01*
G01*
X42880178Y-50586123D01*
G75*
G02*
X42880178Y-50939677I-176777J-176777D01*
G01*
X42208427Y-51611428D01*
G75*
G02*
X41854873Y-51611428I-176777J176777D01*
G01*
X41501320Y-51257875D01*
G75*
G02*
X41501320Y-50904321I176777J176777D01*
G01*
G37*
D30*
X38128750Y16936000D03*
X33308750Y16936000D03*
X38928750Y16936000D03*
X32508750Y16936000D03*
D31*
X33968750Y16936000D03*
X34468750Y16936000D03*
X34968750Y16938000D03*
X35468750Y16936000D03*
X35968750Y16938000D03*
X36468750Y16936000D03*
X36968750Y16936000D03*
X37468750Y16936000D03*
D30*
X38128750Y16936000D03*
X38928750Y16936000D03*
X33308750Y16936000D03*
X32508750Y16936000D03*
D32*
X30138750Y21826000D03*
X41298750Y21826000D03*
D33*
X41298750Y17826000D03*
X30138750Y17826000D03*
D23*
X264477500Y-57626250D03*
X258127500Y-60166250D03*
D24*
X267779500Y-57626250D03*
D25*
X256857500Y-62706250D03*
X267017500Y-62706250D03*
D26*
X261937500Y-62706250D03*
D24*
X254852500Y-60166250D03*
D23*
X245427500Y-57626250D03*
X239077500Y-60166250D03*
D24*
X248729500Y-57626250D03*
D25*
X237807500Y-62706250D03*
X247967500Y-62706250D03*
D26*
X242887500Y-62706250D03*
D24*
X235802500Y-60166250D03*
D23*
X226377500Y-57626250D03*
X220027500Y-60166250D03*
D24*
X229679500Y-57626250D03*
D25*
X218757500Y-62706250D03*
X228917500Y-62706250D03*
D26*
X223837500Y-62706250D03*
D24*
X216752500Y-60166250D03*
D23*
X207327500Y-57626250D03*
X200977500Y-60166250D03*
D24*
X210629500Y-57626250D03*
D25*
X199707500Y-62706250D03*
X209867500Y-62706250D03*
D26*
X204787500Y-62706250D03*
D24*
X197702500Y-60166250D03*
D23*
X188277500Y-57626250D03*
X181927500Y-60166250D03*
D24*
X191579500Y-57626250D03*
D25*
X180657500Y-62706250D03*
X190817500Y-62706250D03*
D26*
X185737500Y-62706250D03*
D24*
X178652500Y-60166250D03*
D23*
X131127500Y-57626250D03*
X124777500Y-60166250D03*
D24*
X134429500Y-57626250D03*
D25*
X123507500Y-62706250D03*
X133667500Y-62706250D03*
D26*
X128587500Y-62706250D03*
D24*
X121502500Y-60166250D03*
D23*
X73977500Y-57626250D03*
X67627500Y-60166250D03*
D24*
X77279500Y-57626250D03*
D25*
X66357500Y-62706250D03*
X76517500Y-62706250D03*
D26*
X71437500Y-62706250D03*
D24*
X64352500Y-60166250D03*
D23*
X54927500Y-57626250D03*
X48577500Y-60166250D03*
D24*
X58229500Y-57626250D03*
D25*
X47307500Y-62706250D03*
X57467500Y-62706250D03*
D26*
X52387500Y-62706250D03*
D24*
X45302500Y-60166250D03*
D23*
X264477500Y-38576250D03*
X258127500Y-41116250D03*
D24*
X267779500Y-38576250D03*
D25*
X256857500Y-43656250D03*
X267017500Y-43656250D03*
D26*
X261937500Y-43656250D03*
D24*
X254852500Y-41116250D03*
D23*
X245427500Y-38576250D03*
X239077500Y-41116250D03*
D24*
X248729500Y-38576250D03*
D25*
X237807500Y-43656250D03*
X247967500Y-43656250D03*
D26*
X242887500Y-43656250D03*
D24*
X235802500Y-41116250D03*
D23*
X226377500Y-38576250D03*
X220027500Y-41116250D03*
D24*
X229679500Y-38576250D03*
D25*
X218757500Y-43656250D03*
X228917500Y-43656250D03*
D26*
X223837500Y-43656250D03*
D24*
X216752500Y-41116250D03*
D23*
X207327500Y-38576250D03*
X200977500Y-41116250D03*
D24*
X210629500Y-38576250D03*
D25*
X199707500Y-43656250D03*
X209867500Y-43656250D03*
D26*
X204787500Y-43656250D03*
D24*
X197702500Y-41116250D03*
D23*
X188277500Y-38576250D03*
X181927500Y-41116250D03*
D24*
X191579500Y-38576250D03*
D25*
X180657500Y-43656250D03*
X190817500Y-43656250D03*
D26*
X185737500Y-43656250D03*
D24*
X178652500Y-41116250D03*
D23*
X169227500Y-38576250D03*
X162877500Y-41116250D03*
D24*
X172529500Y-38576250D03*
D25*
X161607500Y-43656250D03*
X171767500Y-43656250D03*
D26*
X166687500Y-43656250D03*
D24*
X159602500Y-41116250D03*
D23*
X150177500Y-38576250D03*
X143827500Y-41116250D03*
D24*
X153479500Y-38576250D03*
D25*
X142557500Y-43656250D03*
X152717500Y-43656250D03*
D26*
X147637500Y-43656250D03*
D24*
X140552500Y-41116250D03*
D23*
X131127500Y-38576250D03*
X124777500Y-41116250D03*
D24*
X134429500Y-38576250D03*
D25*
X123507500Y-43656250D03*
X133667500Y-43656250D03*
D26*
X128587500Y-43656250D03*
D24*
X121502500Y-41116250D03*
D23*
X112077500Y-38576250D03*
X105727500Y-41116250D03*
D24*
X115379500Y-38576250D03*
D25*
X104457500Y-43656250D03*
X114617500Y-43656250D03*
D26*
X109537500Y-43656250D03*
D24*
X102452500Y-41116250D03*
D23*
X93027500Y-38576250D03*
X86677500Y-41116250D03*
D24*
X96329500Y-38576250D03*
D25*
X85407500Y-43656250D03*
X95567500Y-43656250D03*
D26*
X90487500Y-43656250D03*
D24*
X83402500Y-41116250D03*
D23*
X54927500Y-38576250D03*
X48577500Y-41116250D03*
D24*
X58229500Y-38576250D03*
D25*
X47307500Y-43656250D03*
X57467500Y-43656250D03*
D26*
X52387500Y-43656250D03*
D24*
X45302500Y-41116250D03*
D23*
X35877500Y-38576250D03*
X29527500Y-41116250D03*
D24*
X39179500Y-38576250D03*
D25*
X28257500Y-43656250D03*
X38417500Y-43656250D03*
D26*
X33337500Y-43656250D03*
D24*
X26252500Y-41116250D03*
D23*
X264477500Y-19526250D03*
X258127500Y-22066250D03*
D24*
X267779500Y-19526250D03*
D25*
X256857500Y-24606250D03*
X267017500Y-24606250D03*
D26*
X261937500Y-24606250D03*
D24*
X254852500Y-22066250D03*
D23*
X245427500Y-19526250D03*
X239077500Y-22066250D03*
D24*
X248729500Y-19526250D03*
D25*
X237807500Y-24606250D03*
X247967500Y-24606250D03*
D26*
X242887500Y-24606250D03*
D24*
X235802500Y-22066250D03*
D23*
X226377500Y-19526250D03*
X220027500Y-22066250D03*
D24*
X229679500Y-19526250D03*
D25*
X218757500Y-24606250D03*
X228917500Y-24606250D03*
D26*
X223837500Y-24606250D03*
D24*
X216752500Y-22066250D03*
D23*
X207327500Y-19526250D03*
X200977500Y-22066250D03*
D24*
X210629500Y-19526250D03*
D25*
X199707500Y-24606250D03*
X209867500Y-24606250D03*
D26*
X204787500Y-24606250D03*
D24*
X197702500Y-22066250D03*
D23*
X188277500Y-19526250D03*
X181927500Y-22066250D03*
D24*
X191579500Y-19526250D03*
D25*
X180657500Y-24606250D03*
X190817500Y-24606250D03*
D26*
X185737500Y-24606250D03*
D24*
X178652500Y-22066250D03*
D23*
X169227500Y-19526250D03*
X162877500Y-22066250D03*
D24*
X172529500Y-19526250D03*
D25*
X161607500Y-24606250D03*
X171767500Y-24606250D03*
D26*
X166687500Y-24606250D03*
D24*
X159602500Y-22066250D03*
D23*
X150177500Y-19526250D03*
X143827500Y-22066250D03*
D24*
X153479500Y-19526250D03*
D25*
X142557500Y-24606250D03*
X152717500Y-24606250D03*
D26*
X147637500Y-24606250D03*
D24*
X140552500Y-22066250D03*
D23*
X131127500Y-19526250D03*
X124777500Y-22066250D03*
D24*
X134429500Y-19526250D03*
D25*
X123507500Y-24606250D03*
X133667500Y-24606250D03*
D26*
X128587500Y-24606250D03*
D24*
X121502500Y-22066250D03*
D23*
X112077500Y-19526250D03*
X105727500Y-22066250D03*
D24*
X115379500Y-19526250D03*
D25*
X104457500Y-24606250D03*
X114617500Y-24606250D03*
D26*
X109537500Y-24606250D03*
D24*
X102452500Y-22066250D03*
D23*
X93027500Y-19526250D03*
X86677500Y-22066250D03*
D24*
X96329500Y-19526250D03*
D25*
X85407500Y-24606250D03*
X95567500Y-24606250D03*
D26*
X90487500Y-24606250D03*
D24*
X83402500Y-22066250D03*
D23*
X73977500Y-19526250D03*
X67627500Y-22066250D03*
D24*
X77279500Y-19526250D03*
D25*
X66357500Y-24606250D03*
X76517500Y-24606250D03*
D26*
X71437500Y-24606250D03*
D24*
X64352500Y-22066250D03*
D23*
X54927500Y-19526250D03*
X48577500Y-22066250D03*
D24*
X58229500Y-19526250D03*
D25*
X47307500Y-24606250D03*
X57467500Y-24606250D03*
D26*
X52387500Y-24606250D03*
D24*
X45302500Y-22066250D03*
D23*
X35877500Y-19526250D03*
X29527500Y-22066250D03*
D24*
X39179500Y-19526250D03*
D25*
X28257500Y-24606250D03*
X38417500Y-24606250D03*
D26*
X33337500Y-24606250D03*
D24*
X26252500Y-22066250D03*
D23*
X264477500Y-476250D03*
X258127500Y-3016250D03*
D24*
X267779500Y-476250D03*
D25*
X256857500Y-5556250D03*
X267017500Y-5556250D03*
D26*
X261937500Y-5556250D03*
D24*
X254852500Y-3016250D03*
D23*
X245427500Y-476250D03*
X239077500Y-3016250D03*
D24*
X248729500Y-476250D03*
D25*
X237807500Y-5556250D03*
X247967500Y-5556250D03*
D26*
X242887500Y-5556250D03*
D24*
X235802500Y-3016250D03*
D23*
X226377500Y-476250D03*
X220027500Y-3016250D03*
D24*
X229679500Y-476250D03*
D25*
X218757500Y-5556250D03*
X228917500Y-5556250D03*
D26*
X223837500Y-5556250D03*
D24*
X216752500Y-3016250D03*
D23*
X207327500Y-476250D03*
X200977500Y-3016250D03*
D24*
X210629500Y-476250D03*
D25*
X199707500Y-5556250D03*
X209867500Y-5556250D03*
D26*
X204787500Y-5556250D03*
D24*
X197702500Y-3016250D03*
D23*
X188277500Y-476250D03*
X181927500Y-3016250D03*
D24*
X191579500Y-476250D03*
D25*
X180657500Y-5556250D03*
X190817500Y-5556250D03*
D26*
X185737500Y-5556250D03*
D24*
X178652500Y-3016250D03*
D23*
X169227500Y-476250D03*
X162877500Y-3016250D03*
D24*
X172529500Y-476250D03*
D25*
X161607500Y-5556250D03*
X171767500Y-5556250D03*
D26*
X166687500Y-5556250D03*
D24*
X159602500Y-3016250D03*
D23*
X150177500Y-476250D03*
X143827500Y-3016250D03*
D24*
X153479500Y-476250D03*
D25*
X142557500Y-5556250D03*
X152717500Y-5556250D03*
D26*
X147637500Y-5556250D03*
D24*
X140552500Y-3016250D03*
D23*
X131127500Y-476250D03*
X124777500Y-3016250D03*
D24*
X134429500Y-476250D03*
D25*
X123507500Y-5556250D03*
X133667500Y-5556250D03*
D26*
X128587500Y-5556250D03*
D24*
X121502500Y-3016250D03*
D23*
X112077500Y-476250D03*
X105727500Y-3016250D03*
D24*
X115379500Y-476250D03*
D25*
X104457500Y-5556250D03*
X114617500Y-5556250D03*
D26*
X109537500Y-5556250D03*
D24*
X102452500Y-3016250D03*
D23*
X93027500Y-476250D03*
X86677500Y-3016250D03*
D24*
X96329500Y-476250D03*
D25*
X85407500Y-5556250D03*
X95567500Y-5556250D03*
D26*
X90487500Y-5556250D03*
D24*
X83402500Y-3016250D03*
D23*
X73977500Y-476250D03*
X67627500Y-3016250D03*
D24*
X77279500Y-476250D03*
D25*
X66357500Y-5556250D03*
X76517500Y-5556250D03*
D26*
X71437500Y-5556250D03*
D24*
X64352500Y-3016250D03*
D23*
X54927500Y-476250D03*
X48577500Y-3016250D03*
D24*
X58229500Y-476250D03*
D25*
X47307500Y-5556250D03*
X57467500Y-5556250D03*
D26*
X52387500Y-5556250D03*
D24*
X45302500Y-3016250D03*
D23*
X35877500Y-476250D03*
X29527500Y-3016250D03*
D24*
X39179500Y-476250D03*
D25*
X28257500Y-5556250D03*
X38417500Y-5556250D03*
D26*
X33337500Y-5556250D03*
D24*
X26252500Y-3016250D03*
D23*
X264477500Y18573750D03*
X258127500Y16033750D03*
D24*
X267779500Y18573750D03*
D25*
X256857500Y13493750D03*
X267017500Y13493750D03*
D26*
X261937500Y13493750D03*
D24*
X254852500Y16033750D03*
D23*
X245427500Y18573750D03*
X239077500Y16033750D03*
D24*
X248729500Y18573750D03*
D25*
X237807500Y13493750D03*
X247967500Y13493750D03*
D26*
X242887500Y13493750D03*
D24*
X235802500Y16033750D03*
D23*
X226377500Y18573750D03*
X220027500Y16033750D03*
D24*
X229679500Y18573750D03*
D25*
X218757500Y13493750D03*
X228917500Y13493750D03*
D26*
X223837500Y13493750D03*
D24*
X216752500Y16033750D03*
D23*
X207327500Y18573750D03*
X200977500Y16033750D03*
D24*
X210629500Y18573750D03*
D25*
X199707500Y13493750D03*
X209867500Y13493750D03*
D26*
X204787500Y13493750D03*
D24*
X197702500Y16033750D03*
D23*
X188277500Y18573750D03*
X181927500Y16033750D03*
D24*
X191579500Y18573750D03*
D25*
X180657500Y13493750D03*
X190817500Y13493750D03*
D26*
X185737500Y13493750D03*
D24*
X178652500Y16033750D03*
D23*
X169227500Y18573750D03*
X162877500Y16033750D03*
D24*
X172529500Y18573750D03*
D25*
X161607500Y13493750D03*
X171767500Y13493750D03*
D26*
X166687500Y13493750D03*
D24*
X159602500Y16033750D03*
D23*
X150177500Y18573750D03*
X143827500Y16033750D03*
D24*
X153479500Y18573750D03*
D25*
X142557500Y13493750D03*
X152717500Y13493750D03*
D26*
X147637500Y13493750D03*
D24*
X140552500Y16033750D03*
D23*
X131127500Y18573750D03*
X124777500Y16033750D03*
D24*
X134429500Y18573750D03*
D25*
X123507500Y13493750D03*
X133667500Y13493750D03*
D26*
X128587500Y13493750D03*
D24*
X121502500Y16033750D03*
D23*
X112077500Y18573750D03*
X105727500Y16033750D03*
D24*
X115379500Y18573750D03*
D25*
X104457500Y13493750D03*
X114617500Y13493750D03*
D26*
X109537500Y13493750D03*
D24*
X102452500Y16033750D03*
D23*
X93027500Y18573750D03*
X86677500Y16033750D03*
D24*
X96329500Y18573750D03*
D25*
X85407500Y13493750D03*
X95567500Y13493750D03*
D26*
X90487500Y13493750D03*
D24*
X83402500Y16033750D03*
D23*
X73977500Y18573750D03*
X67627500Y16033750D03*
D24*
X77279500Y18573750D03*
D25*
X66357500Y13493750D03*
X76517500Y13493750D03*
D26*
X71437500Y13493750D03*
D24*
X64352500Y16033750D03*
D23*
X54927500Y18573750D03*
X48577500Y16033750D03*
D24*
X58229500Y18573750D03*
D25*
X47307500Y13493750D03*
X57467500Y13493750D03*
D26*
X52387500Y13493750D03*
D24*
X45302500Y16033750D03*
D34*
X27781250Y-50165000D03*
X27781250Y-47625000D03*
D35*
X147637500Y-15081250D03*
X147637500Y-34131250D03*
X233362500Y3968750D03*
X233362500Y-53181250D03*
X61912500Y-53181250D03*
X61912500Y3968750D03*
D36*
X269875000Y-61725000D03*
X269875000Y-65275000D03*
X250825000Y-61725000D03*
X250825000Y-65275000D03*
X231775000Y-61725000D03*
X231775000Y-65275000D03*
X212725000Y-61725000D03*
X212725000Y-65275000D03*
X193675000Y-61725000D03*
X193675000Y-65275000D03*
X165100000Y-61725000D03*
X165100000Y-65275000D03*
X136525000Y-61725000D03*
X136525000Y-65275000D03*
X107950000Y-61725000D03*
X107950000Y-65275000D03*
X79146250Y-61725000D03*
X79146250Y-65275000D03*
X60325000Y-61725000D03*
X60325000Y-65275000D03*
X269875000Y-42675000D03*
X269875000Y-46225000D03*
X250825000Y-42675000D03*
X250825000Y-46225000D03*
X231775000Y-42675000D03*
X231775000Y-46225000D03*
X212725000Y-42675000D03*
X212725000Y-46225000D03*
X193675000Y-42675000D03*
X193675000Y-46225000D03*
X174625000Y-42675000D03*
X174625000Y-46225000D03*
X155575000Y-42675000D03*
X155575000Y-46225000D03*
X136525000Y-42675000D03*
X136525000Y-46225000D03*
X117475000Y-42675000D03*
X117475000Y-46225000D03*
X98425000Y-42675000D03*
X98425000Y-46225000D03*
X79375000Y-42675000D03*
X79375000Y-46225000D03*
X60325000Y-42675000D03*
X60325000Y-46225000D03*
X41275000Y-42675000D03*
X41275000Y-46225000D03*
X269875000Y-23625000D03*
X269875000Y-27175000D03*
X250825000Y-23625000D03*
X250825000Y-27175000D03*
X231775000Y-23625000D03*
X231775000Y-27175000D03*
X212725000Y-23625000D03*
X212725000Y-27175000D03*
X193675000Y-23625000D03*
X193675000Y-27175000D03*
X174625000Y-23625000D03*
X174625000Y-27175000D03*
X155575000Y-23625000D03*
X155575000Y-27175000D03*
X136525000Y-23625000D03*
X136525000Y-27175000D03*
X117475000Y-23625000D03*
X117475000Y-27175000D03*
X98425000Y-23625000D03*
X98425000Y-27175000D03*
X79375000Y-23625000D03*
X79375000Y-27175000D03*
X60325000Y-23625000D03*
X60325000Y-27175000D03*
X41275000Y-23625000D03*
X41275000Y-27175000D03*
X269875000Y-4575000D03*
X269875000Y-8125000D03*
X250825000Y-4575000D03*
X250825000Y-8125000D03*
X231775000Y-4575000D03*
X231775000Y-8125000D03*
X212725000Y-4575000D03*
X212725000Y-8125000D03*
X193675000Y-4575000D03*
X193675000Y-8125000D03*
X174625000Y-4575000D03*
X174625000Y-8125000D03*
X155575000Y-4575000D03*
X155575000Y-8125000D03*
X136525000Y-4575000D03*
X136525000Y-8125000D03*
X117475000Y-4575000D03*
X117475000Y-8125000D03*
X98425000Y-4575000D03*
X98425000Y-8125000D03*
X79375000Y-4575000D03*
X79375000Y-8125000D03*
X60325000Y-4575000D03*
X60325000Y-8125000D03*
X41275000Y-4575000D03*
X41275000Y-8125000D03*
X269875000Y14475000D03*
X269875000Y10925000D03*
X250825000Y14475000D03*
X250825000Y10925000D03*
X231775000Y14475000D03*
X231775000Y10925000D03*
X212725000Y14475000D03*
X212725000Y10925000D03*
X193675000Y14475000D03*
X193675000Y10925000D03*
X174625000Y14475000D03*
X174625000Y10925000D03*
X155575000Y14475000D03*
X155575000Y10925000D03*
X136525000Y14475000D03*
X136525000Y10925000D03*
X117475000Y14475000D03*
X117475000Y10925000D03*
X98425000Y14475000D03*
X98425000Y10925000D03*
X79375000Y14475000D03*
X79375000Y10925000D03*
X60325000Y14475000D03*
X60325000Y10925000D03*
D37*
X41087500Y7937500D03*
X44637500Y7937500D03*
D38*
X27637500Y-58706250D03*
X27637500Y-59506250D03*
X27637500Y-60306250D03*
X27637500Y-61106250D03*
X27637500Y-61906250D03*
X27637500Y-62706250D03*
X27637500Y-63506250D03*
X27637500Y-64306250D03*
X27637500Y-65106250D03*
X27637500Y-65906250D03*
X27637500Y-66706250D03*
D39*
X29337500Y-68406250D03*
X30137500Y-68406250D03*
X30937500Y-68406250D03*
X31737500Y-68406250D03*
X32537500Y-68406250D03*
X33337500Y-68406250D03*
X34137500Y-68406250D03*
X34937500Y-68406250D03*
X35737500Y-68406250D03*
X36537500Y-68406250D03*
X37337500Y-68406250D03*
D38*
X39037500Y-66706250D03*
X39037500Y-65906250D03*
X39037500Y-65106250D03*
X39037500Y-64306250D03*
X39037500Y-63506250D03*
X39037500Y-62706250D03*
X39037500Y-61906250D03*
X39037500Y-61106250D03*
X39037500Y-60306250D03*
X39037500Y-59506250D03*
X39037500Y-58706250D03*
D39*
X37337500Y-57006250D03*
X36537500Y-57006250D03*
X35737500Y-57006250D03*
X34937500Y-57006250D03*
X34137500Y-57006250D03*
X33337500Y-57006250D03*
X32537500Y-57006250D03*
X31737500Y-57006250D03*
X30937500Y-57006250D03*
X30137500Y-57006250D03*
X29337500Y-57006250D03*
G36*
G01*
X43206249Y19443750D02*
X44106251Y19443750D01*
G75*
G02*
X44356250Y19193751I0J-249999D01*
G01*
X44356250Y18668749D01*
G75*
G02*
X44106251Y18418750I-249999J0D01*
G01*
X43206249Y18418750D01*
G75*
G02*
X42956250Y18668749I0J249999D01*
G01*
X42956250Y19193751D01*
G75*
G02*
X43206249Y19443750I249999J0D01*
G01*
G37*
G36*
G01*
X43206249Y21268750D02*
X44106251Y21268750D01*
G75*
G02*
X44356250Y21018751I0J-249999D01*
G01*
X44356250Y20493749D01*
G75*
G02*
X44106251Y20243750I-249999J0D01*
G01*
X43206249Y20243750D01*
G75*
G02*
X42956250Y20493749I0J249999D01*
G01*
X42956250Y21018751D01*
G75*
G02*
X43206249Y21268750I249999J0D01*
G01*
G37*
G36*
G01*
X28124999Y19443750D02*
X29025001Y19443750D01*
G75*
G02*
X29275000Y19193751I0J-249999D01*
G01*
X29275000Y18668749D01*
G75*
G02*
X29025001Y18418750I-249999J0D01*
G01*
X28124999Y18418750D01*
G75*
G02*
X27875000Y18668749I0J249999D01*
G01*
X27875000Y19193751D01*
G75*
G02*
X28124999Y19443750I249999J0D01*
G01*
G37*
G36*
G01*
X28124999Y21268750D02*
X29025001Y21268750D01*
G75*
G02*
X29275000Y21018751I0J-249999D01*
G01*
X29275000Y20493749D01*
G75*
G02*
X29025001Y20243750I-249999J0D01*
G01*
X28124999Y20243750D01*
G75*
G02*
X27875000Y20493749I0J249999D01*
G01*
X27875000Y21018751D01*
G75*
G02*
X28124999Y21268750I249999J0D01*
G01*
G37*
G36*
G01*
X28181250Y-71093751D02*
X28181250Y-70193749D01*
G75*
G02*
X28431249Y-69943750I249999J0D01*
G01*
X28956251Y-69943750D01*
G75*
G02*
X29206250Y-70193749I0J-249999D01*
G01*
X29206250Y-71093751D01*
G75*
G02*
X28956251Y-71343750I-249999J0D01*
G01*
X28431249Y-71343750D01*
G75*
G02*
X28181250Y-71093751I0J249999D01*
G01*
G37*
G36*
G01*
X26356250Y-71093751D02*
X26356250Y-70193749D01*
G75*
G02*
X26606249Y-69943750I249999J0D01*
G01*
X27131251Y-69943750D01*
G75*
G02*
X27381250Y-70193749I0J-249999D01*
G01*
X27381250Y-71093751D01*
G75*
G02*
X27131251Y-71343750I-249999J0D01*
G01*
X26606249Y-71343750D01*
G75*
G02*
X26356250Y-71093751I0J249999D01*
G01*
G37*
G36*
G01*
X34581251Y3575000D02*
X33681249Y3575000D01*
G75*
G02*
X33431250Y3824999I0J249999D01*
G01*
X33431250Y4350001D01*
G75*
G02*
X33681249Y4600000I249999J0D01*
G01*
X34581251Y4600000D01*
G75*
G02*
X34831250Y4350001I0J-249999D01*
G01*
X34831250Y3824999D01*
G75*
G02*
X34581251Y3575000I-249999J0D01*
G01*
G37*
G36*
G01*
X34581251Y1750000D02*
X33681249Y1750000D01*
G75*
G02*
X33431250Y1999999I0J249999D01*
G01*
X33431250Y2525001D01*
G75*
G02*
X33681249Y2775000I249999J0D01*
G01*
X34581251Y2775000D01*
G75*
G02*
X34831250Y2525001I0J-249999D01*
G01*
X34831250Y1999999D01*
G75*
G02*
X34581251Y1750000I-249999J0D01*
G01*
G37*
G36*
G01*
X36962501Y3575000D02*
X36062499Y3575000D01*
G75*
G02*
X35812500Y3824999I0J249999D01*
G01*
X35812500Y4350001D01*
G75*
G02*
X36062499Y4600000I249999J0D01*
G01*
X36962501Y4600000D01*
G75*
G02*
X37212500Y4350001I0J-249999D01*
G01*
X37212500Y3824999D01*
G75*
G02*
X36962501Y3575000I-249999J0D01*
G01*
G37*
G36*
G01*
X36962501Y1750000D02*
X36062499Y1750000D01*
G75*
G02*
X35812500Y1999999I0J249999D01*
G01*
X35812500Y2525001D01*
G75*
G02*
X36062499Y2775000I249999J0D01*
G01*
X36962501Y2775000D01*
G75*
G02*
X37212500Y2525001I0J-249999D01*
G01*
X37212500Y1999999D01*
G75*
G02*
X36962501Y1750000I-249999J0D01*
G01*
G37*
G36*
G01*
X36112500Y-49556249D02*
X36112500Y-50456251D01*
G75*
G02*
X35862501Y-50706250I-249999J0D01*
G01*
X35337499Y-50706250D01*
G75*
G02*
X35087500Y-50456251I0J249999D01*
G01*
X35087500Y-49556249D01*
G75*
G02*
X35337499Y-49306250I249999J0D01*
G01*
X35862501Y-49306250D01*
G75*
G02*
X36112500Y-49556249I0J-249999D01*
G01*
G37*
G36*
G01*
X37937500Y-49556249D02*
X37937500Y-50456251D01*
G75*
G02*
X37687501Y-50706250I-249999J0D01*
G01*
X37162499Y-50706250D01*
G75*
G02*
X36912500Y-50456251I0J249999D01*
G01*
X36912500Y-49556249D01*
G75*
G02*
X37162499Y-49306250I249999J0D01*
G01*
X37687501Y-49306250D01*
G75*
G02*
X37937500Y-49556249I0J-249999D01*
G01*
G37*
G36*
G01*
X43487500Y4743750D02*
X42237500Y4743750D01*
G75*
G02*
X41987500Y4993750I0J250000D01*
G01*
X41987500Y5743750D01*
G75*
G02*
X42237500Y5993750I250000J0D01*
G01*
X43487500Y5993750D01*
G75*
G02*
X43737500Y5743750I0J-250000D01*
G01*
X43737500Y4993750D01*
G75*
G02*
X43487500Y4743750I-250000J0D01*
G01*
G37*
G36*
G01*
X43487500Y1943750D02*
X42237500Y1943750D01*
G75*
G02*
X41987500Y2193750I0J250000D01*
G01*
X41987500Y2943750D01*
G75*
G02*
X42237500Y3193750I250000J0D01*
G01*
X43487500Y3193750D01*
G75*
G02*
X43737500Y2943750I0J-250000D01*
G01*
X43737500Y2193750D01*
G75*
G02*
X43487500Y1943750I-250000J0D01*
G01*
G37*
G36*
G01*
X41929073Y-69867678D02*
X41257322Y-69195927D01*
G75*
G02*
X41257322Y-68842373I176777J176777D01*
G01*
X41610875Y-68488820D01*
G75*
G02*
X41964429Y-68488820I176777J-176777D01*
G01*
X42636180Y-69160571D01*
G75*
G02*
X42636180Y-69514125I-176777J-176777D01*
G01*
X42282627Y-69867678D01*
G75*
G02*
X41929073Y-69867678I-176777J176777D01*
G01*
G37*
G36*
G01*
X40585571Y-71211180D02*
X39913820Y-70539429D01*
G75*
G02*
X39913820Y-70185875I176777J176777D01*
G01*
X40267373Y-69832322D01*
G75*
G02*
X40620927Y-69832322I176777J-176777D01*
G01*
X41292678Y-70504073D01*
G75*
G02*
X41292678Y-70857627I-176777J-176777D01*
G01*
X40939125Y-71211180D01*
G75*
G02*
X40585571Y-71211180I-176777J176777D01*
G01*
G37*
G36*
G01*
X43312500Y-57625000D02*
X43312500Y-56675000D01*
G75*
G02*
X43562500Y-56425000I250000J0D01*
G01*
X44062500Y-56425000D01*
G75*
G02*
X44312500Y-56675000I0J-250000D01*
G01*
X44312500Y-57625000D01*
G75*
G02*
X44062500Y-57875000I-250000J0D01*
G01*
X43562500Y-57875000D01*
G75*
G02*
X43312500Y-57625000I0J250000D01*
G01*
G37*
G36*
G01*
X41412500Y-57625000D02*
X41412500Y-56675000D01*
G75*
G02*
X41662500Y-56425000I250000J0D01*
G01*
X42162500Y-56425000D01*
G75*
G02*
X42412500Y-56675000I0J-250000D01*
G01*
X42412500Y-57625000D01*
G75*
G02*
X42162500Y-57875000I-250000J0D01*
G01*
X41662500Y-57875000D01*
G75*
G02*
X41412500Y-57625000I0J250000D01*
G01*
G37*
G36*
G01*
X25081250Y-66225000D02*
X24131250Y-66225000D01*
G75*
G02*
X23881250Y-65975000I0J250000D01*
G01*
X23881250Y-65475000D01*
G75*
G02*
X24131250Y-65225000I250000J0D01*
G01*
X25081250Y-65225000D01*
G75*
G02*
X25331250Y-65475000I0J-250000D01*
G01*
X25331250Y-65975000D01*
G75*
G02*
X25081250Y-66225000I-250000J0D01*
G01*
G37*
G36*
G01*
X25081250Y-68125000D02*
X24131250Y-68125000D01*
G75*
G02*
X23881250Y-67875000I0J250000D01*
G01*
X23881250Y-67375000D01*
G75*
G02*
X24131250Y-67125000I250000J0D01*
G01*
X25081250Y-67125000D01*
G75*
G02*
X25331250Y-67375000I0J-250000D01*
G01*
X25331250Y-67875000D01*
G75*
G02*
X25081250Y-68125000I-250000J0D01*
G01*
G37*
G36*
G01*
X32887500Y-52706250D02*
X32887500Y-53656250D01*
G75*
G02*
X32637500Y-53906250I-250000J0D01*
G01*
X32137500Y-53906250D01*
G75*
G02*
X31887500Y-53656250I0J250000D01*
G01*
X31887500Y-52706250D01*
G75*
G02*
X32137500Y-52456250I250000J0D01*
G01*
X32637500Y-52456250D01*
G75*
G02*
X32887500Y-52706250I0J-250000D01*
G01*
G37*
G36*
G01*
X34787500Y-52706250D02*
X34787500Y-53656250D01*
G75*
G02*
X34537500Y-53906250I-250000J0D01*
G01*
X34037500Y-53906250D01*
G75*
G02*
X33787500Y-53656250I0J250000D01*
G01*
X33787500Y-52706250D01*
G75*
G02*
X34037500Y-52456250I250000J0D01*
G01*
X34537500Y-52456250D01*
G75*
G02*
X34787500Y-52706250I0J-250000D01*
G01*
G37*
G36*
G01*
X76518750Y-53631250D02*
X77468750Y-53631250D01*
G75*
G02*
X77718750Y-53881250I0J-250000D01*
G01*
X77718750Y-54381250D01*
G75*
G02*
X77468750Y-54631250I-250000J0D01*
G01*
X76518750Y-54631250D01*
G75*
G02*
X76268750Y-54381250I0J250000D01*
G01*
X76268750Y-53881250D01*
G75*
G02*
X76518750Y-53631250I250000J0D01*
G01*
G37*
G36*
G01*
X76518750Y-51731250D02*
X77468750Y-51731250D01*
G75*
G02*
X77718750Y-51981250I0J-250000D01*
G01*
X77718750Y-52481250D01*
G75*
G02*
X77468750Y-52731250I-250000J0D01*
G01*
X76518750Y-52731250D01*
G75*
G02*
X76268750Y-52481250I0J250000D01*
G01*
X76268750Y-51981250D01*
G75*
G02*
X76518750Y-51731250I250000J0D01*
G01*
G37*
G36*
G01*
X83818750Y-52731250D02*
X82868750Y-52731250D01*
G75*
G02*
X82618750Y-52481250I0J250000D01*
G01*
X82618750Y-51981250D01*
G75*
G02*
X82868750Y-51731250I250000J0D01*
G01*
X83818750Y-51731250D01*
G75*
G02*
X84068750Y-51981250I0J-250000D01*
G01*
X84068750Y-52481250D01*
G75*
G02*
X83818750Y-52731250I-250000J0D01*
G01*
G37*
G36*
G01*
X83818750Y-54631250D02*
X82868750Y-54631250D01*
G75*
G02*
X82618750Y-54381250I0J250000D01*
G01*
X82618750Y-53881250D01*
G75*
G02*
X82868750Y-53631250I250000J0D01*
G01*
X83818750Y-53631250D01*
G75*
G02*
X84068750Y-53881250I0J-250000D01*
G01*
X84068750Y-54381250D01*
G75*
G02*
X83818750Y-54631250I-250000J0D01*
G01*
G37*
M02*
