G04 #@! TF.GenerationSoftware,KiCad,Pcbnew,(5.1.10-1-10_14)*
G04 #@! TF.CreationDate,2021-09-30T10:55:57+10:00*
G04 #@! TF.ProjectId,WTLBetter62,57544c42-6574-4746-9572-36322e6b6963,rev?*
G04 #@! TF.SameCoordinates,Original*
G04 #@! TF.FileFunction,Copper,L1,Top*
G04 #@! TF.FilePolarity,Positive*
%FSLAX46Y46*%
G04 Gerber Fmt 4.6, Leading zero omitted, Abs format (unit mm)*
G04 Created by KiCad (PCBNEW (5.1.10-1-10_14)) date 2021-09-30 10:55:57*
%MOMM*%
%LPD*%
G01*
G04 APERTURE LIST*
G04 #@! TA.AperFunction,ComponentPad*
%ADD10O,1.000000X2.200000*%
G04 #@! TD*
G04 #@! TA.AperFunction,ComponentPad*
%ADD11O,1.000000X1.800000*%
G04 #@! TD*
G04 #@! TA.AperFunction,ComponentPad*
%ADD12C,1.400000*%
G04 #@! TD*
G04 #@! TA.AperFunction,ViaPad*
%ADD13C,0.800000*%
G04 #@! TD*
G04 #@! TA.AperFunction,Conductor*
%ADD14C,0.381000*%
G04 #@! TD*
G04 #@! TA.AperFunction,Conductor*
%ADD15C,0.250000*%
G04 #@! TD*
G04 #@! TA.AperFunction,Conductor*
%ADD16C,0.200000*%
G04 #@! TD*
G04 APERTURE END LIST*
D10*
X30138750Y21826000D03*
X41298750Y21826000D03*
D11*
X41298750Y17826000D03*
X30138750Y17826000D03*
D12*
X27781250Y-50165000D03*
X27781250Y-47625000D03*
D13*
X45243750Y-42862500D03*
X45243750Y-4762500D03*
X45243750Y-23812500D03*
X45243750Y-61912500D03*
X45243750Y14287500D03*
X83343750Y-42862500D03*
X83343750Y-4762500D03*
X83343750Y-23812500D03*
X102393750Y-42862500D03*
X102393750Y-4762500D03*
X102393750Y-23812500D03*
X140493750Y-42862500D03*
X140493750Y-4762500D03*
X140493750Y-23812500D03*
X159543750Y-42862500D03*
X159543750Y-4762500D03*
X159543750Y-23812500D03*
X254793750Y-42862500D03*
X254793750Y-4762500D03*
X254793750Y-23812500D03*
X254793750Y-61912500D03*
X254793750Y14287500D03*
X235743750Y-42862500D03*
X235743750Y-4762500D03*
X235743750Y-23812500D03*
X235743750Y-61912500D03*
X235743750Y14287500D03*
X216693750Y-42862500D03*
X216693750Y-4762500D03*
X216693750Y-23812500D03*
X216693750Y-61912500D03*
X216693750Y14287500D03*
X197643750Y-42862500D03*
X197643750Y-4762500D03*
X197643750Y-23812500D03*
X197643750Y-61912500D03*
X197643750Y14287500D03*
X178593750Y-42862500D03*
X178593750Y-4762500D03*
X178593750Y-23812500D03*
X178593750Y-61912500D03*
X178593750Y14287500D03*
X159543750Y14287500D03*
X140493750Y14287500D03*
X121443750Y-42862500D03*
X121443750Y-4762500D03*
X121443750Y-23812500D03*
X121443750Y-61912500D03*
X121443750Y14287500D03*
X102393750Y14287500D03*
X83343750Y14287500D03*
X32543750Y-51593750D03*
X47040778Y9315472D03*
X36512500Y-61912500D03*
X43812500Y-54925000D03*
X46037500Y-55562500D03*
X25403249Y7146999D03*
X42862500Y-55562500D03*
X43656250Y-67925021D03*
X30162500Y-54768750D03*
X34735471Y-55372971D03*
X38893750Y-55906256D03*
X44450000Y6350000D03*
X34925000Y-17462500D03*
X25515778Y-43772028D03*
X34777499Y-36512500D03*
X26222886Y-44479136D03*
X35875003Y5556250D03*
X39562883Y14538069D03*
X34925000Y5556250D03*
X37002208Y14932207D03*
X36873695Y13632206D03*
X27714561Y15941689D03*
X34436290Y15905216D03*
X43486897Y17544040D03*
X41906657Y14919157D03*
X26193750Y-4762500D03*
X26193750Y-23812500D03*
X26193750Y-42862500D03*
X26193750Y6350000D03*
X42865750Y-61912500D03*
X42862500Y-63500000D03*
X45243750Y-57866249D03*
X64293750Y14287500D03*
X64293750Y-4762500D03*
X64293750Y-23812500D03*
X64293750Y-42862500D03*
X64293750Y-61912500D03*
X39687500Y-52387500D03*
X40481250Y-53181250D03*
X63968749Y-47162499D03*
X65430000Y-47160000D03*
X92868750Y-61912500D03*
X40481250Y-54181253D03*
X63968749Y-48418750D03*
X65418749Y-48418750D03*
X40481250Y-55181256D03*
X63968749Y-49418753D03*
X150018750Y-61912500D03*
X153987500Y-66000000D03*
X178593750Y-66000000D03*
X197643750Y-66000000D03*
X36341031Y-70458718D03*
X34925000Y-69850000D03*
X34131250Y-70943760D03*
X34131250Y-50006250D03*
X38595831Y-50502081D03*
X40481250Y-51593750D03*
D14*
X32919942Y-47625000D02*
X34921751Y-49626809D01*
X33713692Y-51593750D02*
X32543750Y-51593750D01*
X34921751Y-49626809D02*
X34921751Y-50385691D01*
X34921751Y-50385691D02*
X33713692Y-51593750D01*
X27781250Y-47625000D02*
X32919942Y-47625000D01*
X50468001Y16941191D02*
X45583192Y21826000D01*
X50468001Y15126309D02*
X50468001Y16941191D01*
X49484941Y14143249D02*
X50468001Y15126309D01*
X45583192Y21826000D02*
X41298750Y21826000D01*
X49484941Y11759635D02*
X49484941Y14143249D01*
X47040778Y9315472D02*
X49484941Y11759635D01*
X44446751Y-55559251D02*
X43812500Y-54925000D01*
X44446751Y-68304462D02*
X44446751Y-55559251D01*
X44035691Y-68715522D02*
X44446751Y-68304462D01*
X43315522Y-68715522D02*
X44035691Y-68715522D01*
X36512500Y-61912500D02*
X43315522Y-68715522D01*
X44450000Y-55562500D02*
X43812500Y-54925000D01*
X46037500Y-55562500D02*
X44450000Y-55562500D01*
X30138750Y21826000D02*
X30138750Y17826000D01*
X41298750Y17826000D02*
X41298750Y21826000D01*
X27781250Y-47625000D02*
X24725277Y-44569027D01*
X24725277Y6469027D02*
X25403249Y7146999D01*
X24725277Y-44569027D02*
X24725277Y6469027D01*
X43656250Y-67925021D02*
X43656250Y-56356250D01*
X43656250Y-56356250D02*
X42862500Y-55562500D01*
X30766721Y-55372971D02*
X34735471Y-55372971D01*
X30162500Y-54768750D02*
X30766721Y-55372971D01*
D15*
X44450000Y-43574910D02*
X44450000Y6350000D01*
X37870830Y-50154080D02*
X44450000Y-43574910D01*
X37870830Y-54883336D02*
X37870830Y-50154080D01*
X38893750Y-55906256D02*
X37870830Y-54883336D01*
X26918751Y-43210501D02*
X26473002Y-43656250D01*
X26918751Y-41023997D02*
X26918751Y-43210501D01*
X31750000Y-22761776D02*
X29457501Y-25054275D01*
X31750000Y-20637500D02*
X31750000Y-22761776D01*
X29457501Y-38485247D02*
X26918751Y-41023997D01*
X29457501Y-25054275D02*
X29457501Y-38485247D01*
X34925000Y-17462500D02*
X31750000Y-20637500D01*
X25631556Y-43656250D02*
X25515778Y-43772028D01*
X26473002Y-43656250D02*
X25631556Y-43656250D01*
X31352501Y-39937498D02*
X31352501Y-42337251D01*
X34777499Y-36512500D02*
X31352501Y-39937498D01*
X30962499Y-42727253D02*
X31352501Y-42337251D01*
X29681249Y-44931251D02*
X30962499Y-43650001D01*
X26675001Y-44931251D02*
X29681249Y-44931251D01*
X30962499Y-43650001D02*
X30962499Y-42727253D01*
X26222886Y-44479136D02*
X26675001Y-44931251D01*
D16*
X39667501Y14433451D02*
X39562883Y14538069D01*
X39667501Y9348748D02*
X39667501Y14433451D01*
X35875003Y5556250D02*
X39667501Y9348748D01*
X36873695Y14803694D02*
X37002208Y14932207D01*
X36873695Y13632206D02*
X36873695Y14803694D01*
X34925000Y11683511D02*
X36873695Y13632206D01*
X34925000Y5556250D02*
X34925000Y11683511D01*
D15*
X27817467Y15838783D02*
X27714561Y15941689D01*
X27751034Y15905216D02*
X27714561Y15941689D01*
X34436290Y15905216D02*
X27751034Y15905216D01*
X41906657Y15963800D02*
X43486897Y17544040D01*
X41906657Y14919157D02*
X41906657Y15963800D01*
X26193750Y6350000D02*
X26193750Y-42862500D01*
X42865750Y-63496750D02*
X42862500Y-63500000D01*
X42865750Y-61912500D02*
X42865750Y-63496750D01*
X45243750Y-61912500D02*
X45243750Y-57866249D01*
X45243750Y14287500D02*
X45243750Y-42862500D01*
X64693749Y-43262499D02*
X64293750Y-42862500D01*
X64293750Y-61912500D02*
X64693749Y-61512501D01*
X64293750Y-42862500D02*
X64293750Y-4762500D01*
X64693749Y13887501D02*
X64293750Y14287500D01*
X64693749Y-4362501D02*
X64693749Y13887501D01*
X64293750Y-4762500D02*
X64693749Y-4362501D01*
X46710503Y-46437499D02*
X64693749Y-46437499D01*
X40760502Y-52387500D02*
X46710503Y-46437499D01*
X39687500Y-52387500D02*
X40760502Y-52387500D01*
X64693749Y-46437499D02*
X64693749Y-43262499D01*
X64693749Y-61512501D02*
X64693749Y-46437499D01*
X40481250Y-53181250D02*
X41275000Y-53181250D01*
X47293751Y-47162499D02*
X63968749Y-47162499D01*
X41275000Y-53181250D02*
X47293751Y-47162499D01*
X79046250Y-47160000D02*
X80168750Y-46037500D01*
X65430000Y-47160000D02*
X79046250Y-47160000D01*
X80168750Y-46037500D02*
X83343750Y-42862500D01*
X79256098Y-46950152D02*
X80168750Y-46037500D01*
X83343750Y14287500D02*
X83343750Y-42862500D01*
X102393750Y-5268502D02*
X102393750Y-42862500D01*
X102393750Y14287500D02*
X102393750Y-5268502D01*
X92868750Y-55562500D02*
X102393750Y-46037500D01*
X102393750Y-46037500D02*
X102393750Y-42862500D01*
X40481250Y-54181253D02*
X41862497Y-54181253D01*
X47625000Y-48418750D02*
X63968749Y-48418750D01*
X41862497Y-54181253D02*
X47625000Y-48418750D01*
X85473974Y-48418750D02*
X92868750Y-55813526D01*
X65418749Y-48418750D02*
X85473974Y-48418750D01*
X92868750Y-55813526D02*
X92868750Y-56356250D01*
X92868750Y-56356250D02*
X92868750Y-55562500D01*
X92868750Y-61912500D02*
X92868750Y-56356250D01*
X121443750Y-61912500D02*
X121443750Y14287500D01*
X40825007Y-54837499D02*
X42793751Y-54837499D01*
X40481250Y-55181256D02*
X40825007Y-54837499D01*
X48212497Y-49418753D02*
X63968749Y-49418753D01*
X42793751Y-54837499D02*
X48212497Y-49418753D01*
X150018750Y-55813526D02*
X150018750Y-61912500D01*
X140493750Y-46288526D02*
X150018750Y-55813526D01*
X140493750Y14287500D02*
X140493750Y-46288526D01*
X159543750Y14287500D02*
X159543750Y-42862500D01*
X157877499Y-58342253D02*
X157877499Y-44528751D01*
X157877499Y-44528751D02*
X159543750Y-42862500D01*
X153987500Y-62232252D02*
X157877499Y-58342253D01*
X153987500Y-66000000D02*
X153987500Y-62232252D01*
X178593750Y-61912500D02*
X178593750Y14287500D01*
X178593750Y-66000000D02*
X178593750Y-61912500D01*
X197643750Y-61912500D02*
X197643750Y14287500D01*
X197643750Y-66000000D02*
X197643750Y-61912500D01*
X216693750Y14287500D02*
X216693750Y-61912500D01*
X46379872Y-70458718D02*
X49446351Y-67392239D01*
X36341031Y-70458718D02*
X46379872Y-70458718D01*
X211214011Y-67392239D02*
X216693750Y-61912500D01*
X49446351Y-67392239D02*
X211214011Y-67392239D01*
X235743750Y-42862500D02*
X235743750Y-4762500D01*
X236143749Y13887501D02*
X235743750Y14287500D01*
X236143749Y-4362501D02*
X236143749Y13887501D01*
X235743750Y-4762500D02*
X236143749Y-4362501D01*
X236143749Y-43262499D02*
X236143749Y-61512501D01*
X236143749Y-61512501D02*
X235743750Y-61912500D01*
X235743750Y-42862500D02*
X236143749Y-43262499D01*
X229814001Y-67842249D02*
X49632751Y-67842249D01*
X235743750Y-61912500D02*
X229814001Y-67842249D01*
X35693034Y-71183719D02*
X34925000Y-70415685D01*
X34925000Y-70415685D02*
X34925000Y-69850000D01*
X46291281Y-71183719D02*
X35693034Y-71183719D01*
X49632751Y-67842249D02*
X46291281Y-71183719D01*
X254793750Y14287500D02*
X254793750Y-61912500D01*
X34821218Y-71633728D02*
X245072522Y-71633728D01*
X245072522Y-71633728D02*
X254793750Y-61912500D01*
X34131250Y-70943760D02*
X34821218Y-71633728D01*
X33972500Y-50165000D02*
X34131250Y-50006250D01*
X27781250Y-50165000D02*
X33972500Y-50165000D01*
X39389581Y-50502081D02*
X40481250Y-51593750D01*
X38595831Y-50502081D02*
X39389581Y-50502081D01*
M02*
