M48
; DRILL file {KiCad (5.1.10-1-10_14)} date Wednesday, August 25, 2021 at 08:34:22 PM
; FORMAT={-:-/ absolute / inch / decimal}
; #@! TF.CreationDate,2021-08-25T20:34:22+10:00
; #@! TF.GenerationSoftware,Kicad,Pcbnew,(5.1.10-1-10_14)
; #@! TF.FileFunction,Plated,1,2,PTH
FMAT,2
INCH
T1C0.0157
T2C0.0236
T3C0.0320
T4C0.0430
%
G90
G05
T1
X1.0312Y-1.875
X1.0312Y-2.625
X1.0312Y-3.375
X1.3448Y-1.2156
X1.4062Y-1.2188
X1.4271Y-1.2522
X1.45Y-1.285
X1.4875Y-1.225
X1.4983Y-1.487
X1.5262Y-1.232
X1.5938Y-1.5
X1.615Y-1.24
X1.6562Y-1.75
X1.6562Y-1.8438
X1.6562Y-2.4436
X1.7812Y-1.3125
X1.7812Y-1.875
X1.7812Y-2.625
X1.7812Y-3.375
X1.7812Y-4.125
X2.4062Y-2.375
X2.5312Y-1.3125
X2.5312Y-1.875
X2.5312Y-2.625
X2.5312Y-3.375
X2.5312Y-4.125
X3.2812Y-1.3125
X3.2812Y-1.875
X3.2812Y-2.625
X3.2812Y-3.375
X3.5312Y-2.5625
X3.6562Y-4.125
X3.875Y-2.5625
X3.9688Y-2.9062
X3.9688Y-2.9688
X4.0312Y-1.3125
X4.0312Y-1.875
X4.0312Y-2.625
X4.0312Y-3.375
X4.7812Y-1.3125
X4.7812Y-1.875
X4.7812Y-2.625
X4.7812Y-3.375
X4.7812Y-4.125
X5.5312Y-1.3125
X5.5312Y-1.875
X5.5312Y-2.625
X5.5312Y-3.375
X5.6875Y-2.2188
X5.75Y-1.9375
X5.8125Y-1.9375
X5.9062Y-4.125
X6.0625Y-2.2188
X6.2812Y-1.3125
X6.2812Y-1.875
X6.2812Y-2.625
X6.2812Y-3.375
X7.0312Y-1.3125
X7.0312Y-1.875
X7.0312Y-2.625
X7.0312Y-3.375
X7.0312Y-4.125
X7.7812Y-1.3125
X7.7812Y-1.875
X7.7812Y-2.625
X7.7812Y-3.375
X7.7812Y-4.125
X8.5312Y-1.3125
X8.5312Y-1.875
X8.5312Y-2.625
X8.5312Y-3.375
X8.5312Y-4.125
X9.2812Y-1.3125
X9.2812Y-1.875
X9.2812Y-2.625
X9.2812Y-3.375
X9.2812Y-4.125
X10.0312Y-1.3125
X10.0312Y-1.875
X10.0312Y-2.625
X10.0312Y-3.375
X10.0312Y-4.125
T2
X1.2492Y-1.1202
X1.2492Y-1.1305
X1.2492Y-1.1502
X1.2492Y-0.9645
X1.2492Y-0.9765
X1.2492Y-0.99
X1.2492Y-1.0015
X1.2492Y-1.1405
X1.2493Y-0.9535
X1.6882Y-1.1202
X1.6882Y-1.1305
X1.6882Y-1.1502
X1.6883Y-0.964
X1.6883Y-0.976
X1.6883Y-0.9895
X1.6883Y-1.001
X1.6883Y-1.1405
X1.6883Y-0.953
T3
X2.64Y-1.7553
X2.64Y-2.3546
X2.74Y-1.7553
X2.74Y-2.3546
X2.84Y-1.7553
X2.84Y-2.3546
X2.94Y-1.7553
X2.94Y-2.3546
X3.04Y-1.7553
X3.04Y-2.3546
X3.14Y-1.7553
X3.14Y-2.3546
X3.24Y-1.7553
X3.24Y-2.3546
X3.34Y-1.7553
X3.34Y-2.3546
X3.44Y-1.7553
X3.44Y-2.3546
X3.54Y-1.7553
X3.54Y-2.3546
X3.64Y-1.7553
X3.64Y-2.3546
X3.74Y-1.7553
X3.74Y-2.3546
T4
X1.3125Y-1.6875
X1.4062Y-1.6875
X1.5Y-1.6875
X1.5938Y-1.6875
T0
M30
