G04 #@! TF.GenerationSoftware,KiCad,Pcbnew,(5.1.10-1-10_14)*
G04 #@! TF.CreationDate,2021-08-25T20:34:20+10:00*
G04 #@! TF.ProjectId,WTL62,57544c36-322e-46b6-9963-61645f706362,rev?*
G04 #@! TF.SameCoordinates,Original*
G04 #@! TF.FileFunction,Legend,Top*
G04 #@! TF.FilePolarity,Positive*
%FSLAX46Y46*%
G04 Gerber Fmt 4.6, Leading zero omitted, Abs format (unit mm)*
G04 Created by KiCad (PCBNEW (5.1.10-1-10_14)) date 2021-08-25 20:34:20*
%MOMM*%
%LPD*%
G01*
G04 APERTURE LIST*
%ADD10C,0.800000*%
%ADD11C,0.120000*%
%ADD12C,4.300000*%
%ADD13C,1.752600*%
%ADD14C,1.000000*%
%ADD15C,1.750000*%
%ADD16C,3.000000*%
%ADD17C,3.987800*%
%ADD18C,3.048000*%
G04 APERTURE END LIST*
D10*
X24861071Y-101955059D02*
X25742023Y-105655059D01*
X26446785Y-103012202D01*
X27151547Y-105655059D01*
X28032500Y-101955059D01*
X29442023Y-105655059D02*
X29442023Y-103188392D01*
X29442023Y-101955059D02*
X29265833Y-102131250D01*
X29442023Y-102307440D01*
X29618214Y-102131250D01*
X29442023Y-101955059D01*
X29442023Y-102307440D01*
X31732500Y-105655059D02*
X31380119Y-105478869D01*
X31203928Y-105126488D01*
X31203928Y-101955059D01*
X33670595Y-105655059D02*
X33318214Y-105478869D01*
X33142023Y-105126488D01*
X33142023Y-101955059D01*
X35080119Y-105655059D02*
X35080119Y-103188392D01*
X35080119Y-101955059D02*
X34903928Y-102131250D01*
X35080119Y-102307440D01*
X35256309Y-102131250D01*
X35080119Y-101955059D01*
X35080119Y-102307440D01*
X36842023Y-103188392D02*
X36842023Y-105655059D01*
X36842023Y-103540773D02*
X37018214Y-103364583D01*
X37370595Y-103188392D01*
X37899166Y-103188392D01*
X38251547Y-103364583D01*
X38427738Y-103716964D01*
X38427738Y-105655059D01*
X41775357Y-103188392D02*
X41775357Y-106183630D01*
X41599166Y-106536011D01*
X41422976Y-106712202D01*
X41070595Y-106888392D01*
X40542023Y-106888392D01*
X40189642Y-106712202D01*
X41775357Y-105478869D02*
X41422976Y-105655059D01*
X40718214Y-105655059D01*
X40365833Y-105478869D01*
X40189642Y-105302678D01*
X40013452Y-104950297D01*
X40013452Y-103893154D01*
X40189642Y-103540773D01*
X40365833Y-103364583D01*
X40718214Y-103188392D01*
X41422976Y-103188392D01*
X41775357Y-103364583D01*
X24684880Y-108305059D02*
X26799166Y-108305059D01*
X25742023Y-112005059D02*
X25742023Y-108305059D01*
X28561071Y-112005059D02*
X28208690Y-111828869D01*
X28032500Y-111652678D01*
X27856309Y-111300297D01*
X27856309Y-110243154D01*
X28032500Y-109890773D01*
X28208690Y-109714583D01*
X28561071Y-109538392D01*
X29089642Y-109538392D01*
X29442023Y-109714583D01*
X29618214Y-109890773D01*
X29794404Y-110243154D01*
X29794404Y-111300297D01*
X29618214Y-111652678D01*
X29442023Y-111828869D01*
X29089642Y-112005059D01*
X28561071Y-112005059D01*
X26975357Y-118355059D02*
X25213452Y-118355059D01*
X25213452Y-114655059D01*
X28208690Y-118355059D02*
X28208690Y-115888392D01*
X28208690Y-114655059D02*
X28032500Y-114831250D01*
X28208690Y-115007440D01*
X28384880Y-114831250D01*
X28208690Y-114655059D01*
X28208690Y-115007440D01*
X29618214Y-115888392D02*
X30499166Y-118355059D01*
X31380119Y-115888392D01*
X34199166Y-118178869D02*
X33846785Y-118355059D01*
X33142023Y-118355059D01*
X32789642Y-118178869D01*
X32613452Y-117826488D01*
X32613452Y-116416964D01*
X32789642Y-116064583D01*
X33142023Y-115888392D01*
X33846785Y-115888392D01*
X34199166Y-116064583D01*
X34375357Y-116416964D01*
X34375357Y-116769345D01*
X32613452Y-117121726D01*
D11*
X100012500Y-100012500D02*
X100012500Y-23812500D01*
X157162500Y-23812500D02*
X157162500Y-100012500D01*
X23812500Y-100012500D02*
X271462500Y-100012500D01*
X23812500Y-80962500D02*
X271462500Y-80962500D01*
X23812500Y-61912500D02*
X271462500Y-61912500D01*
X23812500Y-42862500D02*
X271462500Y-42862500D01*
X252412500Y-23812500D02*
X252412500Y-120650000D01*
X233362500Y-23812500D02*
X233362500Y-120650000D01*
X214312500Y-23812500D02*
X214312500Y-120650000D01*
X195262500Y-23812500D02*
X195262500Y-120650000D01*
X176212500Y-23812500D02*
X176212500Y-120650000D01*
X138112500Y-23812500D02*
X138112500Y-120650000D01*
X119062500Y-23812500D02*
X119062500Y-120650000D01*
X80962500Y-23812500D02*
X80962500Y-120650000D01*
X61912500Y-23812500D02*
X61912500Y-120650000D01*
X42862500Y-23812500D02*
X42862500Y-120650000D01*
%LPC*%
D12*
X147637500Y-80962500D03*
X147637500Y-61912500D03*
X61912500Y-100012500D03*
X61912500Y-42862500D03*
X233362500Y-42862500D03*
X233362500Y-100012500D03*
D13*
X33337500Y-42862500D03*
X40481250Y-42862500D03*
X38100000Y-42862500D03*
X35718750Y-42862500D03*
D14*
X42881550Y-28968700D03*
X42881250Y-28452000D03*
X42881250Y-29214000D03*
X42881250Y-28714700D03*
X31730650Y-28714700D03*
X31730650Y-29214000D03*
X31730650Y-28452000D03*
X31730950Y-28968700D03*
X31730950Y-25146000D03*
X31730950Y-25438100D03*
X31731250Y-24218900D03*
X31730950Y-24498300D03*
X31730950Y-24803100D03*
X42881550Y-25425400D03*
X42881550Y-25133300D03*
X42881550Y-24790400D03*
X42881550Y-24485600D03*
X42881850Y-24206200D03*
D15*
X209867500Y-71437500D03*
X199707500Y-71437500D03*
D16*
X200977500Y-68897500D03*
D17*
X204787500Y-71437500D03*
D16*
X207327500Y-66357500D03*
D17*
X145224500Y-117792500D03*
X169100500Y-117792500D03*
D18*
X145224500Y-102552500D03*
X169100500Y-102552500D03*
D15*
X162242500Y-109537500D03*
X152082500Y-109537500D03*
D16*
X153352500Y-106997500D03*
D17*
X157162500Y-109537500D03*
D16*
X159702500Y-104457500D03*
D17*
X88074500Y-117792500D03*
X111950500Y-117792500D03*
D18*
X88074500Y-102552500D03*
X111950500Y-102552500D03*
D15*
X105092500Y-109537500D03*
X94932500Y-109537500D03*
D16*
X96202500Y-106997500D03*
D17*
X100012500Y-109537500D03*
D16*
X102552500Y-104457500D03*
D15*
X171767500Y-33337500D03*
X161607500Y-33337500D03*
D16*
X162877500Y-30797500D03*
D17*
X166687500Y-33337500D03*
D16*
X169227500Y-28257500D03*
D15*
X190817500Y-33337500D03*
X180657500Y-33337500D03*
D16*
X181927500Y-30797500D03*
D17*
X185737500Y-33337500D03*
D16*
X188277500Y-28257500D03*
D15*
X209867500Y-33337500D03*
X199707500Y-33337500D03*
D16*
X200977500Y-30797500D03*
D17*
X204787500Y-33337500D03*
D16*
X207327500Y-28257500D03*
D15*
X228917500Y-33337500D03*
X218757500Y-33337500D03*
D16*
X220027500Y-30797500D03*
D17*
X223837500Y-33337500D03*
D16*
X226377500Y-28257500D03*
D15*
X247967500Y-33337500D03*
X237807500Y-33337500D03*
D16*
X239077500Y-30797500D03*
D17*
X242887500Y-33337500D03*
D16*
X245427500Y-28257500D03*
D15*
X267017500Y-33337500D03*
X256857500Y-33337500D03*
D16*
X258127500Y-30797500D03*
D17*
X261937500Y-33337500D03*
D16*
X264477500Y-28257500D03*
D15*
X171767500Y-52387500D03*
X161607500Y-52387500D03*
D16*
X162877500Y-49847500D03*
D17*
X166687500Y-52387500D03*
D16*
X169227500Y-47307500D03*
D15*
X190817500Y-52387500D03*
X180657500Y-52387500D03*
D16*
X181927500Y-49847500D03*
D17*
X185737500Y-52387500D03*
D16*
X188277500Y-47307500D03*
D15*
X209867500Y-52387500D03*
X199707500Y-52387500D03*
D16*
X200977500Y-49847500D03*
D17*
X204787500Y-52387500D03*
D16*
X207327500Y-47307500D03*
D15*
X228917500Y-52387500D03*
X218757500Y-52387500D03*
D16*
X220027500Y-49847500D03*
D17*
X223837500Y-52387500D03*
D16*
X226377500Y-47307500D03*
D15*
X247967500Y-52387500D03*
X237807500Y-52387500D03*
D16*
X239077500Y-49847500D03*
D17*
X242887500Y-52387500D03*
D16*
X245427500Y-47307500D03*
D15*
X267017500Y-52387500D03*
X256857500Y-52387500D03*
D16*
X258127500Y-49847500D03*
D17*
X261937500Y-52387500D03*
D16*
X264477500Y-47307500D03*
D15*
X171767500Y-71437500D03*
X161607500Y-71437500D03*
D16*
X162877500Y-68897500D03*
D17*
X166687500Y-71437500D03*
D16*
X169227500Y-66357500D03*
D15*
X190817500Y-71437500D03*
X180657500Y-71437500D03*
D16*
X181927500Y-68897500D03*
D17*
X185737500Y-71437500D03*
D16*
X188277500Y-66357500D03*
D15*
X228917500Y-71437500D03*
X218757500Y-71437500D03*
D16*
X220027500Y-68897500D03*
D17*
X223837500Y-71437500D03*
D16*
X226377500Y-66357500D03*
D15*
X247967500Y-71437500D03*
X237807500Y-71437500D03*
D16*
X239077500Y-68897500D03*
D17*
X242887500Y-71437500D03*
D16*
X245427500Y-66357500D03*
D15*
X267017500Y-71437500D03*
X256857500Y-71437500D03*
D16*
X258127500Y-68897500D03*
D17*
X261937500Y-71437500D03*
D16*
X264477500Y-66357500D03*
D15*
X171767500Y-90487500D03*
X161607500Y-90487500D03*
D16*
X162877500Y-87947500D03*
D17*
X166687500Y-90487500D03*
D16*
X169227500Y-85407500D03*
D15*
X190817500Y-90487500D03*
X180657500Y-90487500D03*
D16*
X181927500Y-87947500D03*
D17*
X185737500Y-90487500D03*
D16*
X188277500Y-85407500D03*
D15*
X209867500Y-90487500D03*
X199707500Y-90487500D03*
D16*
X200977500Y-87947500D03*
D17*
X204787500Y-90487500D03*
D16*
X207327500Y-85407500D03*
D15*
X228917500Y-90487500D03*
X218757500Y-90487500D03*
D16*
X220027500Y-87947500D03*
D17*
X223837500Y-90487500D03*
D16*
X226377500Y-85407500D03*
D15*
X247967500Y-90487500D03*
X237807500Y-90487500D03*
D16*
X239077500Y-87947500D03*
D17*
X242887500Y-90487500D03*
D16*
X245427500Y-85407500D03*
D15*
X267017500Y-90487500D03*
X256857500Y-90487500D03*
D16*
X258127500Y-87947500D03*
D17*
X261937500Y-90487500D03*
D16*
X264477500Y-85407500D03*
D15*
X190817500Y-109537500D03*
X180657500Y-109537500D03*
D16*
X181927500Y-106997500D03*
D17*
X185737500Y-109537500D03*
D16*
X188277500Y-104457500D03*
D15*
X209867500Y-109537500D03*
X199707500Y-109537500D03*
D16*
X200977500Y-106997500D03*
D17*
X204787500Y-109537500D03*
D16*
X207327500Y-104457500D03*
D15*
X228917500Y-109537500D03*
X218757500Y-109537500D03*
D16*
X220027500Y-106997500D03*
D17*
X223837500Y-109537500D03*
D16*
X226377500Y-104457500D03*
D15*
X247967500Y-109537500D03*
X237807500Y-109537500D03*
D16*
X239077500Y-106997500D03*
D17*
X242887500Y-109537500D03*
D16*
X245427500Y-104457500D03*
D15*
X267017500Y-109537500D03*
X256857500Y-109537500D03*
D16*
X258127500Y-106997500D03*
D17*
X261937500Y-109537500D03*
D16*
X264477500Y-104457500D03*
D15*
X133667500Y-109537500D03*
X123507500Y-109537500D03*
D16*
X124777500Y-106997500D03*
D17*
X128587500Y-109537500D03*
D16*
X131127500Y-104457500D03*
D15*
X76517500Y-109537500D03*
X66357500Y-109537500D03*
D16*
X67627500Y-106997500D03*
D17*
X71437500Y-109537500D03*
D16*
X73977500Y-104457500D03*
D15*
X57467500Y-109537500D03*
X47307500Y-109537500D03*
D16*
X48577500Y-106997500D03*
D17*
X52387500Y-109537500D03*
D16*
X54927500Y-104457500D03*
D15*
X152717500Y-90487500D03*
X142557500Y-90487500D03*
D16*
X143827500Y-87947500D03*
D17*
X147637500Y-90487500D03*
D16*
X150177500Y-85407500D03*
D15*
X133667500Y-90487500D03*
X123507500Y-90487500D03*
D16*
X124777500Y-87947500D03*
D17*
X128587500Y-90487500D03*
D16*
X131127500Y-85407500D03*
D15*
X114617500Y-90487500D03*
X104457500Y-90487500D03*
D16*
X105727500Y-87947500D03*
D17*
X109537500Y-90487500D03*
D16*
X112077500Y-85407500D03*
D15*
X95567500Y-90487500D03*
X85407500Y-90487500D03*
D16*
X86677500Y-87947500D03*
D17*
X90487500Y-90487500D03*
D16*
X93027500Y-85407500D03*
D15*
X76517500Y-90487500D03*
X66357500Y-90487500D03*
D16*
X67627500Y-87947500D03*
D17*
X71437500Y-90487500D03*
D16*
X73977500Y-85407500D03*
D15*
X57467500Y-90487500D03*
X47307500Y-90487500D03*
D16*
X48577500Y-87947500D03*
D17*
X52387500Y-90487500D03*
D16*
X54927500Y-85407500D03*
D15*
X38417500Y-90487500D03*
X28257500Y-90487500D03*
D16*
X29527500Y-87947500D03*
D17*
X33337500Y-90487500D03*
D16*
X35877500Y-85407500D03*
D15*
X152717500Y-71437500D03*
X142557500Y-71437500D03*
D16*
X143827500Y-68897500D03*
D17*
X147637500Y-71437500D03*
D16*
X150177500Y-66357500D03*
D15*
X133667500Y-71437500D03*
X123507500Y-71437500D03*
D16*
X124777500Y-68897500D03*
D17*
X128587500Y-71437500D03*
D16*
X131127500Y-66357500D03*
D15*
X114617500Y-71437500D03*
X104457500Y-71437500D03*
D16*
X105727500Y-68897500D03*
D17*
X109537500Y-71437500D03*
D16*
X112077500Y-66357500D03*
D15*
X95567500Y-71437500D03*
X85407500Y-71437500D03*
D16*
X86677500Y-68897500D03*
D17*
X90487500Y-71437500D03*
D16*
X93027500Y-66357500D03*
D15*
X76517500Y-71437500D03*
X66357500Y-71437500D03*
D16*
X67627500Y-68897500D03*
D17*
X71437500Y-71437500D03*
D16*
X73977500Y-66357500D03*
D15*
X57467500Y-71437500D03*
X47307500Y-71437500D03*
D16*
X48577500Y-68897500D03*
D17*
X52387500Y-71437500D03*
D16*
X54927500Y-66357500D03*
D15*
X38417500Y-71437500D03*
X28257500Y-71437500D03*
D16*
X29527500Y-68897500D03*
D17*
X33337500Y-71437500D03*
D16*
X35877500Y-66357500D03*
D15*
X152717500Y-52387500D03*
X142557500Y-52387500D03*
D16*
X143827500Y-49847500D03*
D17*
X147637500Y-52387500D03*
D16*
X150177500Y-47307500D03*
D15*
X133667500Y-52387500D03*
X123507500Y-52387500D03*
D16*
X124777500Y-49847500D03*
D17*
X128587500Y-52387500D03*
D16*
X131127500Y-47307500D03*
D15*
X114617500Y-52387500D03*
X104457500Y-52387500D03*
D16*
X105727500Y-49847500D03*
D17*
X109537500Y-52387500D03*
D16*
X112077500Y-47307500D03*
D15*
X95567500Y-52387500D03*
X85407500Y-52387500D03*
D16*
X86677500Y-49847500D03*
D17*
X90487500Y-52387500D03*
D16*
X93027500Y-47307500D03*
D15*
X76517500Y-52387500D03*
X66357500Y-52387500D03*
D16*
X67627500Y-49847500D03*
D17*
X71437500Y-52387500D03*
D16*
X73977500Y-47307500D03*
D15*
X57467500Y-52387500D03*
X47307500Y-52387500D03*
D16*
X48577500Y-49847500D03*
D17*
X52387500Y-52387500D03*
D16*
X54927500Y-47307500D03*
D15*
X38417500Y-52387500D03*
X28257500Y-52387500D03*
D16*
X29527500Y-49847500D03*
D17*
X33337500Y-52387500D03*
D16*
X35877500Y-47307500D03*
D15*
X152717500Y-33337500D03*
X142557500Y-33337500D03*
D16*
X143827500Y-30797500D03*
D17*
X147637500Y-33337500D03*
D16*
X150177500Y-28257500D03*
D15*
X133667500Y-33337500D03*
X123507500Y-33337500D03*
D16*
X124777500Y-30797500D03*
D17*
X128587500Y-33337500D03*
D16*
X131127500Y-28257500D03*
D15*
X114617500Y-33337500D03*
X104457500Y-33337500D03*
D16*
X105727500Y-30797500D03*
D17*
X109537500Y-33337500D03*
D16*
X112077500Y-28257500D03*
D15*
X95567500Y-33337500D03*
X85407500Y-33337500D03*
D16*
X86677500Y-30797500D03*
D17*
X90487500Y-33337500D03*
D16*
X93027500Y-28257500D03*
D15*
X76517500Y-33337500D03*
X66357500Y-33337500D03*
D16*
X67627500Y-30797500D03*
D17*
X71437500Y-33337500D03*
D16*
X73977500Y-28257500D03*
D15*
X57467500Y-33337500D03*
X47307500Y-33337500D03*
D16*
X48577500Y-30797500D03*
D17*
X52387500Y-33337500D03*
D16*
X54927500Y-28257500D03*
D15*
X28257500Y-33337500D03*
X38417500Y-33337500D03*
D16*
X37147500Y-35877500D03*
D17*
X33337500Y-33337500D03*
D16*
X30797500Y-38417500D03*
M02*
