G04 #@! TF.GenerationSoftware,KiCad,Pcbnew,(5.1.10-1-10_14)*
G04 #@! TF.CreationDate,2021-08-25T20:34:20+10:00*
G04 #@! TF.ProjectId,WTL62,57544c36-322e-46b6-9963-61645f706362,rev?*
G04 #@! TF.SameCoordinates,Original*
G04 #@! TF.FileFunction,Soldermask,Bot*
G04 #@! TF.FilePolarity,Negative*
%FSLAX46Y46*%
G04 Gerber Fmt 4.6, Leading zero omitted, Abs format (unit mm)*
G04 Created by KiCad (PCBNEW (5.1.10-1-10_14)) date 2021-08-25 20:34:20*
%MOMM*%
%LPD*%
G01*
G04 APERTURE LIST*
%ADD10C,4.300000*%
%ADD11C,1.752600*%
%ADD12R,0.300000X0.800000*%
%ADD13R,0.540000X0.800000*%
%ADD14C,1.000000*%
%ADD15C,1.524000*%
%ADD16R,2.550000X2.500000*%
%ADD17C,1.750000*%
%ADD18C,3.000000*%
%ADD19C,3.987800*%
%ADD20C,3.048000*%
%ADD21R,1.200000X0.900000*%
%ADD22R,0.900000X1.200000*%
G04 APERTURE END LIST*
D10*
X147637500Y-80962500D03*
X147637500Y-61912500D03*
X61912500Y-100012500D03*
X61912500Y-42862500D03*
X233362500Y-42862500D03*
X233362500Y-100012500D03*
G36*
G01*
X43824997Y-27887500D02*
X45075003Y-27887500D01*
G75*
G02*
X45325000Y-28137497I0J-249997D01*
G01*
X45325000Y-28762503D01*
G75*
G02*
X45075003Y-29012500I-249997J0D01*
G01*
X43824997Y-29012500D01*
G75*
G02*
X43575000Y-28762503I0J249997D01*
G01*
X43575000Y-28137497D01*
G75*
G02*
X43824997Y-27887500I249997J0D01*
G01*
G37*
G36*
G01*
X43824997Y-24962500D02*
X45075003Y-24962500D01*
G75*
G02*
X45325000Y-25212497I0J-249997D01*
G01*
X45325000Y-25837503D01*
G75*
G02*
X45075003Y-26087500I-249997J0D01*
G01*
X43824997Y-26087500D01*
G75*
G02*
X43575000Y-25837503I0J249997D01*
G01*
X43575000Y-25212497D01*
G75*
G02*
X43824997Y-24962500I249997J0D01*
G01*
G37*
G36*
G01*
X28743747Y-27887500D02*
X29993753Y-27887500D01*
G75*
G02*
X30243750Y-28137497I0J-249997D01*
G01*
X30243750Y-28762503D01*
G75*
G02*
X29993753Y-29012500I-249997J0D01*
G01*
X28743747Y-29012500D01*
G75*
G02*
X28493750Y-28762503I0J249997D01*
G01*
X28493750Y-28137497D01*
G75*
G02*
X28743747Y-27887500I249997J0D01*
G01*
G37*
G36*
G01*
X28743747Y-24962500D02*
X29993753Y-24962500D01*
G75*
G02*
X30243750Y-25212497I0J-249997D01*
G01*
X30243750Y-25837503D01*
G75*
G02*
X29993753Y-26087500I-249997J0D01*
G01*
X28743747Y-26087500D01*
G75*
G02*
X28493750Y-25837503I0J249997D01*
G01*
X28493750Y-25212497D01*
G75*
G02*
X28743747Y-24962500I249997J0D01*
G01*
G37*
D11*
X33337500Y-42862500D03*
X40481250Y-42862500D03*
X38100000Y-42862500D03*
X35718750Y-42862500D03*
D12*
X39056250Y-29733000D03*
X36056250Y-29733000D03*
X37056250Y-29733000D03*
X37556250Y-29733000D03*
X36556250Y-29733000D03*
X38056250Y-29733000D03*
D13*
X39706250Y-29733000D03*
X34906250Y-29733000D03*
X34106250Y-29733000D03*
X40506250Y-29733000D03*
D14*
X42881550Y-28968700D03*
X42881250Y-28452000D03*
X42881250Y-29214000D03*
X42881250Y-28714700D03*
X31730650Y-28714700D03*
X31730650Y-29214000D03*
X31730650Y-28452000D03*
X31730950Y-28968700D03*
X31730950Y-25146000D03*
X31730950Y-25438100D03*
X31731250Y-24218900D03*
X31730950Y-24498300D03*
X31730950Y-24803100D03*
X42881550Y-25425400D03*
X42881550Y-25133300D03*
X42881550Y-24790400D03*
X42881550Y-24485600D03*
X42881850Y-24206200D03*
D12*
X38556250Y-29733000D03*
X35548250Y-29733000D03*
D15*
X67056000Y-44585600D03*
X69596000Y-44585600D03*
X72136000Y-44585600D03*
X74676000Y-44585600D03*
X77216000Y-44585600D03*
X79756000Y-44585600D03*
X82296000Y-44585600D03*
X84836000Y-44585600D03*
X87376000Y-44585600D03*
X89916000Y-44585600D03*
X92456000Y-44585600D03*
X94996000Y-44585600D03*
X94996000Y-59805600D03*
X92456000Y-59805600D03*
X89916000Y-59805600D03*
X87376000Y-59805600D03*
X84836000Y-59805600D03*
X82296000Y-59805600D03*
X79756000Y-59805600D03*
X77216000Y-59805600D03*
X74676000Y-59805600D03*
X72136000Y-59805600D03*
X69596000Y-59805600D03*
X67056000Y-59805600D03*
D16*
X210629500Y-66357500D03*
X197702500Y-68897500D03*
D17*
X209867500Y-71437500D03*
X199707500Y-71437500D03*
D18*
X200977500Y-68897500D03*
D19*
X204787500Y-71437500D03*
D18*
X207327500Y-66357500D03*
D19*
X145224500Y-117792500D03*
X169100500Y-117792500D03*
D20*
X145224500Y-102552500D03*
X169100500Y-102552500D03*
D16*
X163004500Y-104457500D03*
X150077500Y-106997500D03*
D17*
X162242500Y-109537500D03*
X152082500Y-109537500D03*
D18*
X153352500Y-106997500D03*
D19*
X157162500Y-109537500D03*
D18*
X159702500Y-104457500D03*
D19*
X88074500Y-117792500D03*
X111950500Y-117792500D03*
D20*
X88074500Y-102552500D03*
X111950500Y-102552500D03*
D16*
X105854500Y-104457500D03*
X92927500Y-106997500D03*
D17*
X105092500Y-109537500D03*
X94932500Y-109537500D03*
D18*
X96202500Y-106997500D03*
D19*
X100012500Y-109537500D03*
D18*
X102552500Y-104457500D03*
D16*
X172529500Y-28257500D03*
X159602500Y-30797500D03*
D17*
X171767500Y-33337500D03*
X161607500Y-33337500D03*
D18*
X162877500Y-30797500D03*
D19*
X166687500Y-33337500D03*
D18*
X169227500Y-28257500D03*
D16*
X191579500Y-28257500D03*
X178652500Y-30797500D03*
D17*
X190817500Y-33337500D03*
X180657500Y-33337500D03*
D18*
X181927500Y-30797500D03*
D19*
X185737500Y-33337500D03*
D18*
X188277500Y-28257500D03*
D16*
X210629500Y-28257500D03*
X197702500Y-30797500D03*
D17*
X209867500Y-33337500D03*
X199707500Y-33337500D03*
D18*
X200977500Y-30797500D03*
D19*
X204787500Y-33337500D03*
D18*
X207327500Y-28257500D03*
D16*
X229679500Y-28257500D03*
X216752500Y-30797500D03*
D17*
X228917500Y-33337500D03*
X218757500Y-33337500D03*
D18*
X220027500Y-30797500D03*
D19*
X223837500Y-33337500D03*
D18*
X226377500Y-28257500D03*
D16*
X248729500Y-28257500D03*
X235802500Y-30797500D03*
D17*
X247967500Y-33337500D03*
X237807500Y-33337500D03*
D18*
X239077500Y-30797500D03*
D19*
X242887500Y-33337500D03*
D18*
X245427500Y-28257500D03*
D16*
X267779500Y-28257500D03*
X254852500Y-30797500D03*
D17*
X267017500Y-33337500D03*
X256857500Y-33337500D03*
D18*
X258127500Y-30797500D03*
D19*
X261937500Y-33337500D03*
D18*
X264477500Y-28257500D03*
D16*
X172529500Y-47307500D03*
X159602500Y-49847500D03*
D17*
X171767500Y-52387500D03*
X161607500Y-52387500D03*
D18*
X162877500Y-49847500D03*
D19*
X166687500Y-52387500D03*
D18*
X169227500Y-47307500D03*
D16*
X191579500Y-47307500D03*
X178652500Y-49847500D03*
D17*
X190817500Y-52387500D03*
X180657500Y-52387500D03*
D18*
X181927500Y-49847500D03*
D19*
X185737500Y-52387500D03*
D18*
X188277500Y-47307500D03*
D16*
X210629500Y-47307500D03*
X197702500Y-49847500D03*
D17*
X209867500Y-52387500D03*
X199707500Y-52387500D03*
D18*
X200977500Y-49847500D03*
D19*
X204787500Y-52387500D03*
D18*
X207327500Y-47307500D03*
D16*
X229679500Y-47307500D03*
X216752500Y-49847500D03*
D17*
X228917500Y-52387500D03*
X218757500Y-52387500D03*
D18*
X220027500Y-49847500D03*
D19*
X223837500Y-52387500D03*
D18*
X226377500Y-47307500D03*
D16*
X248729500Y-47307500D03*
X235802500Y-49847500D03*
D17*
X247967500Y-52387500D03*
X237807500Y-52387500D03*
D18*
X239077500Y-49847500D03*
D19*
X242887500Y-52387500D03*
D18*
X245427500Y-47307500D03*
D16*
X267779500Y-47307500D03*
X254852500Y-49847500D03*
D17*
X267017500Y-52387500D03*
X256857500Y-52387500D03*
D18*
X258127500Y-49847500D03*
D19*
X261937500Y-52387500D03*
D18*
X264477500Y-47307500D03*
D16*
X172529500Y-66357500D03*
X159602500Y-68897500D03*
D17*
X171767500Y-71437500D03*
X161607500Y-71437500D03*
D18*
X162877500Y-68897500D03*
D19*
X166687500Y-71437500D03*
D18*
X169227500Y-66357500D03*
D16*
X191579500Y-66357500D03*
X178652500Y-68897500D03*
D17*
X190817500Y-71437500D03*
X180657500Y-71437500D03*
D18*
X181927500Y-68897500D03*
D19*
X185737500Y-71437500D03*
D18*
X188277500Y-66357500D03*
D16*
X229679500Y-66357500D03*
X216752500Y-68897500D03*
D17*
X228917500Y-71437500D03*
X218757500Y-71437500D03*
D18*
X220027500Y-68897500D03*
D19*
X223837500Y-71437500D03*
D18*
X226377500Y-66357500D03*
D16*
X248729500Y-66357500D03*
X235802500Y-68897500D03*
D17*
X247967500Y-71437500D03*
X237807500Y-71437500D03*
D18*
X239077500Y-68897500D03*
D19*
X242887500Y-71437500D03*
D18*
X245427500Y-66357500D03*
D16*
X267779500Y-66357500D03*
X254852500Y-68897500D03*
D17*
X267017500Y-71437500D03*
X256857500Y-71437500D03*
D18*
X258127500Y-68897500D03*
D19*
X261937500Y-71437500D03*
D18*
X264477500Y-66357500D03*
D16*
X172529500Y-85407500D03*
X159602500Y-87947500D03*
D17*
X171767500Y-90487500D03*
X161607500Y-90487500D03*
D18*
X162877500Y-87947500D03*
D19*
X166687500Y-90487500D03*
D18*
X169227500Y-85407500D03*
D16*
X191579500Y-85407500D03*
X178652500Y-87947500D03*
D17*
X190817500Y-90487500D03*
X180657500Y-90487500D03*
D18*
X181927500Y-87947500D03*
D19*
X185737500Y-90487500D03*
D18*
X188277500Y-85407500D03*
D16*
X210629500Y-85407500D03*
X197702500Y-87947500D03*
D17*
X209867500Y-90487500D03*
X199707500Y-90487500D03*
D18*
X200977500Y-87947500D03*
D19*
X204787500Y-90487500D03*
D18*
X207327500Y-85407500D03*
D16*
X229679500Y-85407500D03*
X216752500Y-87947500D03*
D17*
X228917500Y-90487500D03*
X218757500Y-90487500D03*
D18*
X220027500Y-87947500D03*
D19*
X223837500Y-90487500D03*
D18*
X226377500Y-85407500D03*
D16*
X248729500Y-85407500D03*
X235802500Y-87947500D03*
D17*
X247967500Y-90487500D03*
X237807500Y-90487500D03*
D18*
X239077500Y-87947500D03*
D19*
X242887500Y-90487500D03*
D18*
X245427500Y-85407500D03*
D16*
X267779500Y-85407500D03*
X254852500Y-87947500D03*
D17*
X267017500Y-90487500D03*
X256857500Y-90487500D03*
D18*
X258127500Y-87947500D03*
D19*
X261937500Y-90487500D03*
D18*
X264477500Y-85407500D03*
D16*
X191579500Y-104457500D03*
X178652500Y-106997500D03*
D17*
X190817500Y-109537500D03*
X180657500Y-109537500D03*
D18*
X181927500Y-106997500D03*
D19*
X185737500Y-109537500D03*
D18*
X188277500Y-104457500D03*
D16*
X210629500Y-104457500D03*
X197702500Y-106997500D03*
D17*
X209867500Y-109537500D03*
X199707500Y-109537500D03*
D18*
X200977500Y-106997500D03*
D19*
X204787500Y-109537500D03*
D18*
X207327500Y-104457500D03*
D16*
X229679500Y-104457500D03*
X216752500Y-106997500D03*
D17*
X228917500Y-109537500D03*
X218757500Y-109537500D03*
D18*
X220027500Y-106997500D03*
D19*
X223837500Y-109537500D03*
D18*
X226377500Y-104457500D03*
D16*
X248729500Y-104457500D03*
X235802500Y-106997500D03*
D17*
X247967500Y-109537500D03*
X237807500Y-109537500D03*
D18*
X239077500Y-106997500D03*
D19*
X242887500Y-109537500D03*
D18*
X245427500Y-104457500D03*
D16*
X267779500Y-104457500D03*
X254852500Y-106997500D03*
D17*
X267017500Y-109537500D03*
X256857500Y-109537500D03*
D18*
X258127500Y-106997500D03*
D19*
X261937500Y-109537500D03*
D18*
X264477500Y-104457500D03*
D16*
X134429500Y-104457500D03*
X121502500Y-106997500D03*
D17*
X133667500Y-109537500D03*
X123507500Y-109537500D03*
D18*
X124777500Y-106997500D03*
D19*
X128587500Y-109537500D03*
D18*
X131127500Y-104457500D03*
D16*
X77279500Y-104457500D03*
X64352500Y-106997500D03*
D17*
X76517500Y-109537500D03*
X66357500Y-109537500D03*
D18*
X67627500Y-106997500D03*
D19*
X71437500Y-109537500D03*
D18*
X73977500Y-104457500D03*
D16*
X58229500Y-104457500D03*
X45302500Y-106997500D03*
D17*
X57467500Y-109537500D03*
X47307500Y-109537500D03*
D18*
X48577500Y-106997500D03*
D19*
X52387500Y-109537500D03*
D18*
X54927500Y-104457500D03*
D16*
X153479500Y-85407500D03*
X140552500Y-87947500D03*
D17*
X152717500Y-90487500D03*
X142557500Y-90487500D03*
D18*
X143827500Y-87947500D03*
D19*
X147637500Y-90487500D03*
D18*
X150177500Y-85407500D03*
D16*
X134429500Y-85407500D03*
X121502500Y-87947500D03*
D17*
X133667500Y-90487500D03*
X123507500Y-90487500D03*
D18*
X124777500Y-87947500D03*
D19*
X128587500Y-90487500D03*
D18*
X131127500Y-85407500D03*
D16*
X115379500Y-85407500D03*
X102452500Y-87947500D03*
D17*
X114617500Y-90487500D03*
X104457500Y-90487500D03*
D18*
X105727500Y-87947500D03*
D19*
X109537500Y-90487500D03*
D18*
X112077500Y-85407500D03*
D16*
X96329500Y-85407500D03*
X83402500Y-87947500D03*
D17*
X95567500Y-90487500D03*
X85407500Y-90487500D03*
D18*
X86677500Y-87947500D03*
D19*
X90487500Y-90487500D03*
D18*
X93027500Y-85407500D03*
D16*
X77279500Y-85407500D03*
X64352500Y-87947500D03*
D17*
X76517500Y-90487500D03*
X66357500Y-90487500D03*
D18*
X67627500Y-87947500D03*
D19*
X71437500Y-90487500D03*
D18*
X73977500Y-85407500D03*
D16*
X58229500Y-85407500D03*
X45302500Y-87947500D03*
D17*
X57467500Y-90487500D03*
X47307500Y-90487500D03*
D18*
X48577500Y-87947500D03*
D19*
X52387500Y-90487500D03*
D18*
X54927500Y-85407500D03*
D16*
X39179500Y-85407500D03*
X26252500Y-87947500D03*
D17*
X38417500Y-90487500D03*
X28257500Y-90487500D03*
D18*
X29527500Y-87947500D03*
D19*
X33337500Y-90487500D03*
D18*
X35877500Y-85407500D03*
D16*
X153479500Y-66357500D03*
X140552500Y-68897500D03*
D17*
X152717500Y-71437500D03*
X142557500Y-71437500D03*
D18*
X143827500Y-68897500D03*
D19*
X147637500Y-71437500D03*
D18*
X150177500Y-66357500D03*
D16*
X134429500Y-66357500D03*
X121502500Y-68897500D03*
D17*
X133667500Y-71437500D03*
X123507500Y-71437500D03*
D18*
X124777500Y-68897500D03*
D19*
X128587500Y-71437500D03*
D18*
X131127500Y-66357500D03*
D16*
X115379500Y-66357500D03*
X102452500Y-68897500D03*
D17*
X114617500Y-71437500D03*
X104457500Y-71437500D03*
D18*
X105727500Y-68897500D03*
D19*
X109537500Y-71437500D03*
D18*
X112077500Y-66357500D03*
D16*
X96329500Y-66357500D03*
X83402500Y-68897500D03*
D17*
X95567500Y-71437500D03*
X85407500Y-71437500D03*
D18*
X86677500Y-68897500D03*
D19*
X90487500Y-71437500D03*
D18*
X93027500Y-66357500D03*
D16*
X77279500Y-66357500D03*
X64352500Y-68897500D03*
D17*
X76517500Y-71437500D03*
X66357500Y-71437500D03*
D18*
X67627500Y-68897500D03*
D19*
X71437500Y-71437500D03*
D18*
X73977500Y-66357500D03*
D16*
X58229500Y-66357500D03*
X45302500Y-68897500D03*
D17*
X57467500Y-71437500D03*
X47307500Y-71437500D03*
D18*
X48577500Y-68897500D03*
D19*
X52387500Y-71437500D03*
D18*
X54927500Y-66357500D03*
D16*
X39179500Y-66357500D03*
X26252500Y-68897500D03*
D17*
X38417500Y-71437500D03*
X28257500Y-71437500D03*
D18*
X29527500Y-68897500D03*
D19*
X33337500Y-71437500D03*
D18*
X35877500Y-66357500D03*
D16*
X153479500Y-47307500D03*
X140552500Y-49847500D03*
D17*
X152717500Y-52387500D03*
X142557500Y-52387500D03*
D18*
X143827500Y-49847500D03*
D19*
X147637500Y-52387500D03*
D18*
X150177500Y-47307500D03*
D16*
X134429500Y-47307500D03*
X121502500Y-49847500D03*
D17*
X133667500Y-52387500D03*
X123507500Y-52387500D03*
D18*
X124777500Y-49847500D03*
D19*
X128587500Y-52387500D03*
D18*
X131127500Y-47307500D03*
D16*
X115379500Y-47307500D03*
X102452500Y-49847500D03*
D17*
X114617500Y-52387500D03*
X104457500Y-52387500D03*
D18*
X105727500Y-49847500D03*
D19*
X109537500Y-52387500D03*
D18*
X112077500Y-47307500D03*
D16*
X96329500Y-47307500D03*
X83402500Y-49847500D03*
D17*
X95567500Y-52387500D03*
X85407500Y-52387500D03*
D18*
X86677500Y-49847500D03*
D19*
X90487500Y-52387500D03*
D18*
X93027500Y-47307500D03*
D16*
X77279500Y-47307500D03*
X64352500Y-49847500D03*
D17*
X76517500Y-52387500D03*
X66357500Y-52387500D03*
D18*
X67627500Y-49847500D03*
D19*
X71437500Y-52387500D03*
D18*
X73977500Y-47307500D03*
D16*
X58229500Y-47307500D03*
X45302500Y-49847500D03*
D17*
X57467500Y-52387500D03*
X47307500Y-52387500D03*
D18*
X48577500Y-49847500D03*
D19*
X52387500Y-52387500D03*
D18*
X54927500Y-47307500D03*
D16*
X39179500Y-47307500D03*
X26252500Y-49847500D03*
D17*
X38417500Y-52387500D03*
X28257500Y-52387500D03*
D18*
X29527500Y-49847500D03*
D19*
X33337500Y-52387500D03*
D18*
X35877500Y-47307500D03*
D16*
X153479500Y-28257500D03*
X140552500Y-30797500D03*
D17*
X152717500Y-33337500D03*
X142557500Y-33337500D03*
D18*
X143827500Y-30797500D03*
D19*
X147637500Y-33337500D03*
D18*
X150177500Y-28257500D03*
D16*
X134429500Y-28257500D03*
X121502500Y-30797500D03*
D17*
X133667500Y-33337500D03*
X123507500Y-33337500D03*
D18*
X124777500Y-30797500D03*
D19*
X128587500Y-33337500D03*
D18*
X131127500Y-28257500D03*
D16*
X115379500Y-28257500D03*
X102452500Y-30797500D03*
D17*
X114617500Y-33337500D03*
X104457500Y-33337500D03*
D18*
X105727500Y-30797500D03*
D19*
X109537500Y-33337500D03*
D18*
X112077500Y-28257500D03*
D16*
X96329500Y-28257500D03*
X83402500Y-30797500D03*
D17*
X95567500Y-33337500D03*
X85407500Y-33337500D03*
D18*
X86677500Y-30797500D03*
D19*
X90487500Y-33337500D03*
D18*
X93027500Y-28257500D03*
D16*
X77279500Y-28257500D03*
X64352500Y-30797500D03*
D17*
X76517500Y-33337500D03*
X66357500Y-33337500D03*
D18*
X67627500Y-30797500D03*
D19*
X71437500Y-33337500D03*
D18*
X73977500Y-28257500D03*
D16*
X58229500Y-28257500D03*
X45302500Y-30797500D03*
D17*
X57467500Y-33337500D03*
X47307500Y-33337500D03*
D18*
X48577500Y-30797500D03*
D19*
X52387500Y-33337500D03*
D18*
X54927500Y-28257500D03*
D16*
X27495500Y-38417500D03*
X40422500Y-35877500D03*
D17*
X28257500Y-33337500D03*
X38417500Y-33337500D03*
D18*
X37147500Y-35877500D03*
D19*
X33337500Y-33337500D03*
D18*
X30797500Y-38417500D03*
D21*
X174625000Y-33275000D03*
X174625000Y-36575000D03*
X193675000Y-33275000D03*
X193675000Y-36575000D03*
X212725000Y-33275000D03*
X212725000Y-36575000D03*
X231775000Y-33275000D03*
X231775000Y-36575000D03*
X250825000Y-33275000D03*
X250825000Y-36575000D03*
X269875000Y-33275000D03*
X269875000Y-36575000D03*
X174625000Y-52325000D03*
X174625000Y-55625000D03*
X193675000Y-52325000D03*
X193675000Y-55625000D03*
X212725000Y-52325000D03*
X212725000Y-55625000D03*
X231775000Y-52325000D03*
X231775000Y-55625000D03*
X250825000Y-52325000D03*
X250825000Y-55625000D03*
X269875000Y-52325000D03*
X269875000Y-55625000D03*
X174625000Y-71375000D03*
X174625000Y-74675000D03*
X193675000Y-71375000D03*
X193675000Y-74675000D03*
X212725000Y-71375000D03*
X212725000Y-74675000D03*
X231775000Y-71375000D03*
X231775000Y-74675000D03*
X250825000Y-71375000D03*
X250825000Y-74675000D03*
X269875000Y-71375000D03*
X269875000Y-74675000D03*
X174625000Y-90425000D03*
X174625000Y-93725000D03*
X193675000Y-90425000D03*
X193675000Y-93725000D03*
X212725000Y-90425000D03*
X212725000Y-93725000D03*
X231775000Y-90425000D03*
X231775000Y-93725000D03*
X250825000Y-90425000D03*
X250825000Y-93725000D03*
X269875000Y-90425000D03*
X269875000Y-93725000D03*
X193675000Y-109475000D03*
X193675000Y-112775000D03*
X212725000Y-109475000D03*
X212725000Y-112775000D03*
X231775000Y-109475000D03*
X231775000Y-112775000D03*
X250825000Y-109475000D03*
X250825000Y-112775000D03*
X269875000Y-109475000D03*
X269875000Y-112775000D03*
X165100000Y-109475000D03*
X165100000Y-112775000D03*
X136525000Y-109475000D03*
X136525000Y-112775000D03*
X107950000Y-109475000D03*
X107950000Y-112775000D03*
X79375000Y-109475000D03*
X79375000Y-112775000D03*
X60325000Y-109475000D03*
X60325000Y-112775000D03*
X155575000Y-90425000D03*
X155575000Y-93725000D03*
X136525000Y-90425000D03*
X136525000Y-93725000D03*
X117475000Y-90425000D03*
X117475000Y-93725000D03*
X98425000Y-90425000D03*
X98425000Y-93725000D03*
X79375000Y-90425000D03*
X79375000Y-93725000D03*
X60325000Y-90425000D03*
X60325000Y-93725000D03*
X41275000Y-90425000D03*
X41275000Y-93725000D03*
X155575000Y-71375000D03*
X155575000Y-74675000D03*
X136525000Y-71375000D03*
X136525000Y-74675000D03*
X117475000Y-71375000D03*
X117475000Y-74675000D03*
X98425000Y-71375000D03*
X98425000Y-74675000D03*
X79375000Y-71375000D03*
X79375000Y-74675000D03*
X60325000Y-71375000D03*
X60325000Y-74675000D03*
X41275000Y-71375000D03*
X41275000Y-74675000D03*
X155575000Y-52387500D03*
X155575000Y-55687500D03*
X136525000Y-52325000D03*
X136525000Y-55625000D03*
X117475000Y-52325000D03*
X117475000Y-55625000D03*
X98425000Y-52325000D03*
X98425000Y-55625000D03*
X79375000Y-52325000D03*
X79375000Y-55625000D03*
X60325000Y-52325000D03*
X60325000Y-55625000D03*
X41275000Y-52325000D03*
X41275000Y-55625000D03*
X155575000Y-33275000D03*
X155575000Y-36575000D03*
X136525000Y-33275000D03*
X136525000Y-36575000D03*
X117475000Y-33275000D03*
X117475000Y-36575000D03*
X98425000Y-33275000D03*
X98425000Y-36575000D03*
X79375000Y-33212500D03*
X79375000Y-36512500D03*
X60325000Y-33275000D03*
X60325000Y-36575000D03*
D22*
X54706250Y-38100000D03*
X58006250Y-38100000D03*
M02*
