M48
; DRILL file {KiCad (5.1.10-1-10_14)} date Wednesday, August 25, 2021 at 08:34:22 PM
; FORMAT={-:-/ absolute / inch / decimal}
; #@! TF.CreationDate,2021-08-25T20:34:22+10:00
; #@! TF.GenerationSoftware,Kicad,Pcbnew,(5.1.10-1-10_14)
; #@! TF.FileFunction,NonPlated,1,2,NPTH
FMAT,2
INCH
T1C0.0689
T2C0.1181
T3C0.1200
T4C0.1570
T5C0.1693
%
G90
G05
T1
X1.1125Y-1.3125
X1.1125Y-2.0625
X1.1125Y-2.8125
X1.1125Y-3.5625
X1.5125Y-1.3125
X1.5125Y-2.0625
X1.5125Y-2.8125
X1.5125Y-3.5625
X1.8625Y-1.3125
X1.8625Y-2.0625
X1.8625Y-2.8125
X1.8625Y-3.5625
X1.8625Y-4.3125
X2.2625Y-1.3125
X2.2625Y-2.0625
X2.2625Y-2.8125
X2.2625Y-3.5625
X2.2625Y-4.3125
X2.6125Y-1.3125
X2.6125Y-2.0625
X2.6125Y-2.8125
X2.6125Y-3.5625
X2.6125Y-4.3125
X3.0125Y-1.3125
X3.0125Y-2.0625
X3.0125Y-2.8125
X3.0125Y-3.5625
X3.0125Y-4.3125
X3.3625Y-1.3125
X3.3625Y-2.0625
X3.3625Y-2.8125
X3.3625Y-3.5625
X3.7375Y-4.3125
X3.7625Y-1.3125
X3.7625Y-2.0625
X3.7625Y-2.8125
X3.7625Y-3.5625
X4.1125Y-1.3125
X4.1125Y-2.0625
X4.1125Y-2.8125
X4.1125Y-3.5625
X4.1375Y-4.3125
X4.5125Y-1.3125
X4.5125Y-2.0625
X4.5125Y-2.8125
X4.5125Y-3.5625
X4.8625Y-1.3125
X4.8625Y-2.0625
X4.8625Y-2.8125
X4.8625Y-3.5625
X4.8625Y-4.3125
X5.2625Y-1.3125
X5.2625Y-2.0625
X5.2625Y-2.8125
X5.2625Y-3.5625
X5.2625Y-4.3125
X5.6125Y-1.3125
X5.6125Y-2.0625
X5.6125Y-2.8125
X5.6125Y-3.5625
X5.9875Y-4.3125
X6.0125Y-1.3125
X6.0125Y-2.0625
X6.0125Y-2.8125
X6.0125Y-3.5625
X6.3625Y-1.3125
X6.3625Y-2.0625
X6.3625Y-2.8125
X6.3625Y-3.5625
X6.3875Y-4.3125
X6.7625Y-1.3125
X6.7625Y-2.0625
X6.7625Y-2.8125
X6.7625Y-3.5625
X7.1125Y-1.3125
X7.1125Y-2.0625
X7.1125Y-2.8125
X7.1125Y-3.5625
X7.1125Y-4.3125
X7.5125Y-1.3125
X7.5125Y-2.0625
X7.5125Y-2.8125
X7.5125Y-3.5625
X7.5125Y-4.3125
X7.8625Y-1.3125
X7.8625Y-2.0625
X7.8625Y-2.8125
X7.8625Y-3.5625
X7.8625Y-4.3125
X8.2625Y-1.3125
X8.2625Y-2.0625
X8.2625Y-2.8125
X8.2625Y-3.5625
X8.2625Y-4.3125
X8.6125Y-1.3125
X8.6125Y-2.0625
X8.6125Y-2.8125
X8.6125Y-3.5625
X8.6125Y-4.3125
X9.0125Y-1.3125
X9.0125Y-2.0625
X9.0125Y-2.8125
X9.0125Y-3.5625
X9.0125Y-4.3125
X9.3625Y-1.3125
X9.3625Y-2.0625
X9.3625Y-2.8125
X9.3625Y-3.5625
X9.3625Y-4.3125
X9.7625Y-1.3125
X9.7625Y-2.0625
X9.7625Y-2.8125
X9.7625Y-3.5625
X9.7625Y-4.3125
X10.1125Y-1.3125
X10.1125Y-2.0625
X10.1125Y-2.8125
X10.1125Y-3.5625
X10.1125Y-4.3125
X10.5125Y-1.3125
X10.5125Y-2.0625
X10.5125Y-2.8125
X10.5125Y-3.5625
X10.5125Y-4.3125
T2
X1.1625Y-1.9625
X1.1625Y-2.7125
X1.1625Y-3.4625
X1.2125Y-1.5125
X1.4125Y-1.8625
X1.4125Y-2.6125
X1.4125Y-3.3625
X1.4625Y-1.4125
X1.9125Y-1.2125
X1.9125Y-1.9625
X1.9125Y-2.7125
X1.9125Y-3.4625
X1.9125Y-4.2125
X2.1625Y-1.1125
X2.1625Y-1.8625
X2.1625Y-2.6125
X2.1625Y-3.3625
X2.1625Y-4.1125
X2.6625Y-1.2125
X2.6625Y-1.9625
X2.6625Y-2.7125
X2.6625Y-3.4625
X2.6625Y-4.2125
X2.9125Y-1.1125
X2.9125Y-1.8625
X2.9125Y-2.6125
X2.9125Y-3.3625
X2.9125Y-4.1125
X3.4125Y-1.2125
X3.4125Y-1.9625
X3.4125Y-2.7125
X3.4125Y-3.4625
X3.6625Y-1.1125
X3.6625Y-1.8625
X3.6625Y-2.6125
X3.6625Y-3.3625
X3.7875Y-4.2125
X4.0375Y-4.1125
X4.1625Y-1.2125
X4.1625Y-1.9625
X4.1625Y-2.7125
X4.1625Y-3.4625
X4.4125Y-1.1125
X4.4125Y-1.8625
X4.4125Y-2.6125
X4.4125Y-3.3625
X4.9125Y-1.2125
X4.9125Y-1.9625
X4.9125Y-2.7125
X4.9125Y-3.4625
X4.9125Y-4.2125
X5.1625Y-1.1125
X5.1625Y-1.8625
X5.1625Y-2.6125
X5.1625Y-3.3625
X5.1625Y-4.1125
X5.6625Y-1.2125
X5.6625Y-1.9625
X5.6625Y-2.7125
X5.6625Y-3.4625
X5.9125Y-1.1125
X5.9125Y-1.8625
X5.9125Y-2.6125
X5.9125Y-3.3625
X6.0375Y-4.2125
X6.2875Y-4.1125
X6.4125Y-1.2125
X6.4125Y-1.9625
X6.4125Y-2.7125
X6.4125Y-3.4625
X6.6625Y-1.1125
X6.6625Y-1.8625
X6.6625Y-2.6125
X6.6625Y-3.3625
X7.1625Y-1.2125
X7.1625Y-1.9625
X7.1625Y-2.7125
X7.1625Y-3.4625
X7.1625Y-4.2125
X7.4125Y-1.1125
X7.4125Y-1.8625
X7.4125Y-2.6125
X7.4125Y-3.3625
X7.4125Y-4.1125
X7.9125Y-1.2125
X7.9125Y-1.9625
X7.9125Y-2.7125
X7.9125Y-3.4625
X7.9125Y-4.2125
X8.1625Y-1.1125
X8.1625Y-1.8625
X8.1625Y-2.6125
X8.1625Y-3.3625
X8.1625Y-4.1125
X8.6625Y-1.2125
X8.6625Y-1.9625
X8.6625Y-2.7125
X8.6625Y-3.4625
X8.6625Y-4.2125
X8.9125Y-1.1125
X8.9125Y-1.8625
X8.9125Y-2.6125
X8.9125Y-3.3625
X8.9125Y-4.1125
X9.4125Y-1.2125
X9.4125Y-1.9625
X9.4125Y-2.7125
X9.4125Y-3.4625
X9.4125Y-4.2125
X9.6625Y-1.1125
X9.6625Y-1.8625
X9.6625Y-2.6125
X9.6625Y-3.3625
X9.6625Y-4.1125
X10.1625Y-1.2125
X10.1625Y-1.9625
X10.1625Y-2.7125
X10.1625Y-3.4625
X10.1625Y-4.2125
X10.4125Y-1.1125
X10.4125Y-1.8625
X10.4125Y-2.6125
X10.4125Y-3.3625
X10.4125Y-4.1125
T3
X3.4675Y-4.0375
X4.4075Y-4.0375
X5.7175Y-4.0375
X6.6575Y-4.0375
T4
X1.3125Y-1.3125
X1.3125Y-2.0625
X1.3125Y-2.8125
X1.3125Y-3.5625
X2.0625Y-1.3125
X2.0625Y-2.0625
X2.0625Y-2.8125
X2.0625Y-3.5625
X2.0625Y-4.3125
X2.8125Y-1.3125
X2.8125Y-2.0625
X2.8125Y-2.8125
X2.8125Y-3.5625
X2.8125Y-4.3125
X3.4675Y-4.6375
X3.5625Y-1.3125
X3.5625Y-2.0625
X3.5625Y-2.8125
X3.5625Y-3.5625
X3.9375Y-4.3125
X4.3125Y-1.3125
X4.3125Y-2.0625
X4.3125Y-2.8125
X4.3125Y-3.5625
X4.4075Y-4.6375
X5.0625Y-1.3125
X5.0625Y-2.0625
X5.0625Y-2.8125
X5.0625Y-3.5625
X5.0625Y-4.3125
X5.7175Y-4.6375
X5.8125Y-1.3125
X5.8125Y-2.0625
X5.8125Y-2.8125
X5.8125Y-3.5625
X6.1875Y-4.3125
X6.5625Y-1.3125
X6.5625Y-2.0625
X6.5625Y-2.8125
X6.5625Y-3.5625
X6.6575Y-4.6375
X7.3125Y-1.3125
X7.3125Y-2.0625
X7.3125Y-2.8125
X7.3125Y-3.5625
X7.3125Y-4.3125
X8.0625Y-1.3125
X8.0625Y-2.0625
X8.0625Y-2.8125
X8.0625Y-3.5625
X8.0625Y-4.3125
X8.8125Y-1.3125
X8.8125Y-2.0625
X8.8125Y-2.8125
X8.8125Y-3.5625
X8.8125Y-4.3125
X9.5625Y-1.3125
X9.5625Y-2.0625
X9.5625Y-2.8125
X9.5625Y-3.5625
X9.5625Y-4.3125
X10.3125Y-1.3125
X10.3125Y-2.0625
X10.3125Y-2.8125
X10.3125Y-3.5625
X10.3125Y-4.3125
T5
X2.4375Y-1.6875
X2.4375Y-3.9375
X5.8125Y-2.4375
X5.8125Y-3.1875
X9.1875Y-1.6875
X9.1875Y-3.9375
T0
M30
